<?xml version="1.0" standalone="no"?>
<!DOCTYPE svg PUBLIC "-//W3C//DTD SVG 20010904//EN"
 "http://www.w3.org/TR/2001/REC-SVG-20010904/DTD/svg10.dtd">
<svg version="1.0" xmlns="http://www.w3.org/2000/svg"
 width="512.000000pt" height="512.000000pt" viewBox="0 0 512.000000 512.000000"
 preserveAspectRatio="xMidYMid meet">

<g transform="translate(0.000000,512.000000) scale(0.100000,-0.100000)"
fill="" stroke="none">
<path d="M2477 5040 c-107 -27 -201 -106 -251 -210 -28 -58 -31 -75 -31 -155
0 -77 4 -98 27 -147 15 -32 38 -72 52 -91 l25 -32 -53 -28 c-160 -84 -292
-263 -330 -446 -16 -79 -14 -94 17 -128 l20 -23 607 0 c599 0 608 0 634 21 22
17 26 28 26 69 0 63 -33 169 -77 250 -45 81 -177 214 -253 254 -30 16 -57 31
-59 33 -3 2 7 16 22 31 14 15 38 54 54 87 24 52 28 72 28 150 0 77 -4 99 -27
147 -61 130 -183 216 -319 223 -41 2 -91 0 -112 -5z m196 -183 c101 -60 134
-192 72 -293 -34 -56 -114 -104 -173 -104 -149 0 -257 144 -211 281 44 130
193 185 312 116z m6 -572 c89 -21 173 -69 242 -137 52 -53 119 -161 119 -195
0 -11 -85 -13 -480 -13 l-480 0 15 38 c99 236 342 364 584 307z"/>
<path d="M1105 4877 c-111 -29 -202 -103 -251 -204 -22 -45 -29 -74 -32 -142
-5 -100 17 -172 73 -245 l33 -43 -42 -20 c-159 -78 -289 -244 -337 -431 -25
-98 -24 -118 6 -147 l24 -25 615 0 615 0 21 28 c19 23 21 35 16 83 -7 70 -43
170 -87 246 -47 79 -161 191 -237 231 -34 18 -62 35 -62 37 0 3 15 25 34 49
86 113 95 264 23 399 -75 143 -257 224 -412 184z m139 -158 c134 -33 202 -195
132 -313 -36 -62 -92 -98 -160 -104 -140 -11 -245 94 -234 232 7 88 57 150
146 182 46 16 62 17 116 3z m49 -594 c168 -35 325 -172 371 -322 l7 -23 -480
0 -480 0 14 40 c63 177 261 313 465 319 19 0 65 -6 103 -14z"/>
<path d="M3868 4880 c-113 -19 -221 -98 -272 -197 -63 -124 -52 -282 28 -387
12 -17 25 -36 29 -42 4 -7 -20 -27 -60 -50 -81 -47 -186 -150 -232 -227 -46
-77 -81 -179 -88 -252 -5 -56 -3 -62 22 -85 l27 -25 584 -3 c321 -1 598 1 616
6 17 4 41 20 52 35 20 27 20 29 4 110 -27 130 -85 236 -182 333 -45 45 -109
96 -144 116 -60 33 -62 35 -43 52 10 9 34 45 52 79 32 59 34 67 34 167 0 96
-2 110 -30 163 -74 147 -240 233 -397 207z m162 -184 c66 -33 103 -90 108
-170 4 -56 1 -71 -23 -115 -16 -28 -45 -62 -68 -78 -36 -25 -49 -28 -118 -28
-70 0 -81 3 -121 30 -156 110 -105 350 82 385 47 9 86 2 140 -24z m40 -583
c127 -35 243 -131 304 -255 l37 -73 -477 -3 c-262 -1 -479 0 -482 3 -3 2 9 33
26 68 108 220 351 326 592 260z"/>
<path d="M2640 3623 c-30 -11 -60 -47 -60 -73 0 -14 11 -41 25 -60 33 -45 32
-59 -10 -108 -81 -94 -86 -198 -14 -290 45 -58 87 -65 130 -23 36 36 37 67 4
111 -14 19 -25 42 -25 51 0 9 18 39 40 65 79 95 79 204 2 284 -38 39 -66 52
-92 43z"/>
<path d="M1731 3534 c-35 -44 -22 -137 25 -194 43 -50 81 -71 151 -82 77 -11
103 -29 103 -68 0 -45 35 -80 80 -80 125 0 96 212 -39 279 -20 10 -60 21 -90
24 -62 7 -91 29 -91 67 0 45 -35 80 -80 80 -30 0 -43 -6 -59 -26z"/>
<path d="M3472 3537 c-12 -13 -22 -34 -22 -48 0 -43 -26 -67 -78 -74 -90 -12
-104 -17 -145 -54 -76 -69 -103 -184 -52 -231 51 -48 135 -10 135 60 0 41 22
58 87 66 73 8 123 33 161 80 35 42 57 119 47 164 -13 59 -92 81 -133 37z"/>
<path d="M1853 3020 c-38 -16 -43 -41 -43 -229 l0 -181 -260 0 c-168 0 -268
-4 -283 -11 -40 -18 -47 -49 -47 -215 l0 -155 169 -177 c93 -97 320 -334 505
-527 l336 -350 0 -532 0 -532 26 -20 c15 -12 36 -21 48 -21 24 0 729 381 764
413 22 20 22 21 22 357 l0 336 493 513 c270 282 497 523 504 535 8 14 12 73
13 174 l0 154 -29 29 -29 29 -266 0 -266 0 0 185 c0 171 -2 187 -20 205 -11
11 -30 22 -43 25 -12 4 -121 5 -241 3 l-218 -3 -24 -28 c-23 -27 -24 -32 -24
-208 l0 -179 -279 0 -280 0 -3 185 c-4 250 20 229 -276 232 -125 1 -237 -2
-249 -7z m365 -217 l3 -63 -126 0 -125 0 0 65 0 66 123 -3 122 -3 3 -62z
m1132 2 l0 -65 -125 0 -125 0 0 58 c0 32 3 62 7 65 3 4 60 7 125 7 l118 0 0
-65z m-1129 -370 c4 -109 10 -152 26 -192 80 -201 300 -317 507 -269 138 33
239 114 304 245 36 74 37 76 41 218 l3 143 124 0 124 0 0 -127 c0 -156 -17
-242 -69 -348 -91 -187 -251 -319 -451 -372 -103 -28 -273 -23 -375 10 -210
69 -369 222 -447 429 -30 78 -32 93 -36 246 l-4 163 123 -3 124 -3 6 -140z
m-413 -42 l3 -53 -215 0 -216 0 0 55 0 55 213 -2 212 -3 3 -52z m1130 5 l-3
-53 -277 -3 -278 -2 0 55 0 55 281 0 280 0 -3 -52z m1002 -3 l0 -55 -215 0
-215 0 0 55 0 55 215 0 215 0 0 -55z m-2083 -279 c50 -141 162 -295 279 -384
374 -284 894 -224 1185 136 56 69 140 224 155 285 l6 27 170 0 c93 0 168 -4
166 -9 -1 -4 -196 -210 -433 -456 -236 -246 -435 -457 -442 -469 -9 -15 -12
-109 -13 -342 l0 -321 -267 -146 -268 -146 -5 477 c-3 262 -7 478 -8 480 -2 4
-654 682 -796 829 l-99 103 174 0 174 0 22 -64z m948 48 c-24 -18 -109 -44
-145 -44 -36 0 -121 26 -145 44 -18 14 -4 15 145 15 149 0 163 -1 145 -15z"/>
</g>
</svg>
