<?xml version="1.0" encoding="utf-8"?>
<!-- Generator: Adobe Illustrator 24.3.0, SVG Export Plug-In . SVG Version: 6.00 Build 0)  -->
<svg version="1.1" id="Layer_1" xmlns="http://www.w3.org/2000/svg" xmlns:xlink="http://www.w3.org/1999/xlink" x="0px" y="0px"
	 viewBox="0 0 5764.18 3000.24" style="enable-background:new 0 0 5764.18 3000.24;" xml:space="preserve">
<style type="text/css">
	.st0{fill:url(#SVGID_1_);}
	.st1{fill:#DBE6F1;}
	.st2{fill:#ED9843;}
	.st3{fill:#A0662C;}
	.st4{fill:#FF7051;}
	.st5{fill:#BE523A;}
	.st6{fill:#6FA533;}
	.st7{fill:#89CE3D;}
	.st8{fill:#01273E;}
	.st9{fill:#053C5E;}
	.st10{fill:#FFFFFF;}
	.st11{fill:#FFE3C6;stroke:#ADD6FF;stroke-width:2.148;stroke-linejoin:round;stroke-miterlimit:10;}
	.st12{fill:#ADD6FF;stroke:#ADD6FF;stroke-width:2.148;stroke-linejoin:round;stroke-miterlimit:10;}
	.st13{fill:#ADD6FF;}
	.st14{fill:#DD3A16;}
	.st15{fill:#F5891D;}
	.st16{fill:#58B100;}
	.st17{fill:#D3E7FF;}
	.st18{fill:#C3D4E9;}
	.st19{fill:#8DAFD7;}
	.st20{fill:#5992D5;}
	.st21{fill:#8BADD6;}
	.st22{fill:#FFE1C3;}
	.st23{fill:#EFD0B0;}
	.st24{fill:#1F4F7E;}
	.st25{fill:#215A91;}
	.st26{fill:#B5CEE6;}
	.st27{fill:#CDE5FD;}
	.st28{fill:#F28169;}
	.st29{fill:#FBD9D2;}
	.st30{fill:#AD452F;}
	.st31{fill:#B6786A;}
	.st32{fill:#DDDDDD;}
	.st33{fill:#8E8E8E;}
	.st34{fill:#843423;}
	.st35{fill:#7B94EE;}
	.st36{fill:#4864CC;}
	.st37{fill:#FFBF80;}
	.st38{fill:#B06011;}
	.st39{fill:#D4320F;}
	.st40{fill:#E39787;}
	.st41{fill:#FFE1C2;}
	.st42{fill:#ECC7A3;}
	.st43{fill:#031D37;}
	.st44{fill:#1C1C1C;}
	.st45{fill:#042444;}
	.st46{fill:#303030;}
	.st47{fill:#3E6993;}
	.st48{fill:#345A7F;}
	.st49{fill:#204263;}
	.st50{fill:#ADADAD;}
	.st51{fill:#5E5E5E;}
	.st52{fill:#ECD2B8;}
	.st53{fill:#989696;}
	.st54{fill:#2D547B;}
	.st55{fill:#EFC23E;}
	.st56{fill:#777175;}
	.st57{fill:#545052;}
	.st58{fill:#F8D66F;}
	.st59{fill:#25507A;}
	.st60{fill:#4084C6;}
	.st61{fill:#14304B;}
	.st62{fill:#041F40;}
	.st63{fill:#001023;}
	.st64{fill:#C76E14;}
	.st65{fill:#3D3C3C;}
	.st66{fill:#F1D2B2;}
	.st67{fill:#2773BC;}
	.st68{fill:#225E98;}
	.st69{fill:#133B61;}
	.st70{fill:#D43411;}
	.st71{fill:#901E06;}
	.st72{fill:#EBCFB3;}
	.st73{fill:#AD2A0D;}
	.st74{fill:#EFCBAB;}
	.st75{fill:#3B3B3B;}
	.st76{fill:#DDBB9C;}
	.st77{fill:#413F3F;}
	.st78{fill:#D77614;}
	.st79{fill:#AD5F12;}
	.st80{fill:#FFD9B3;}
	.st81{fill:#EECAA7;}
	.st82{fill:#8B8B8B;}
</style>
<linearGradient id="SVGID_1_" gradientUnits="userSpaceOnUse" x1="2825.6628" y1="-456.9533" x2="2807.521" y2="2935.5505">
	<stop  offset="0" style="stop-color:#FFFFFF"/>
	<stop  offset="1" style="stop-color:#6ABEFF"/>
</linearGradient>
<path class="st0" d="M1521.91,2809.19c-1112.78-242.36-735.46-1462.32-312.9-1631.87c471.49-189.17,631.28-25.36,882.51-227.11
	c232.86-187.01,209.94-423.59,406.71-651.49c142.14-164.63,378.52-192.99,670.4-140.34C3371.11,194.9,3456.19,346,3684.03,427
	c250.79,89.15,556.77,96.46,749.26,306.32c225.16,245.47-12.77,525.62,74.93,794.54c49.88,152.93,269.03,221.54,280.98,392.48
	c16.81,240.6-283.5,689.15,42.14,888.85"/>
<g>
	<path class="st1" d="M201.71,2809.66c0-47.26,1200.04-85.58,2680.39-85.58s2680.38,38.32,2680.38,85.58
		c0,47.27-1200.04,85.59-2680.38,85.59S201.71,2856.93,201.71,2809.66L201.71,2809.66z"/>
	<path class="st2" d="M4795.87,1375.06c0,0,107.08,226.85,110.12,489.73c0.1,8.6-0.01,17.27-0.14,25.94
		c-0.07,4.67-0.19,9.34-0.33,14.03c-1.26,42.2-5.3,85.04-13.18,127.81c-3.89,21.13-8.73,42.24-14.55,63.24
		c-3.41,12.34-7.14,24.64-11.28,36.88c-16.25,48.1-37.44,92.76-61.83,134.13c0,0.01,0,0.04,0,0.05
		c-26.8,45.46-57.51,86.85-90.01,124.27c-17.22,19.83-34.95,38.48-52.84,56.07c-0.01,0.01-0.02,0.02-0.02,0.03
		c-16.34,16.05-32.8,31.26-49.19,45.46c-0.01,0-0.01,0.02-0.02,0.02c-18.77,16.26-37.37,31.2-55.52,45.04
		c-31.77,24.22-62.01,44.78-88.8,61.63h-78.49c1.38-3.74,2.29-6.04,4.35-11.35c0.02-0.05,0.04-0.12,0.06-0.17
		c0.01-0.01,0-0.02,0-0.03c0.05-0.12,0.12-0.25,0.17-0.38c2.05-5.27,4.4-11.18,7.05-17.65c3.08-7.51,6.47-15.59,10.42-24.57
		c-7.53,17.1-13.59,31.89-17.92,43.14c-1.66,4.31-3.02,7.76-4.21,11.01h-51.56c-46.97-124.06-138.85-425.67-46.51-698.92
		C4411.38,1546.17,4795.87,1375.06,4795.87,1375.06L4795.87,1375.06z"/>
	<path class="st3" d="M4761.73,1482.23c-26.81,77.56-48.31,157.08-67.86,237.15c-11.73,48.04-22.83,96.21-33.72,144.48
		c-6.73,29.82-13.42,59.67-20.15,89.51c-27.31,121.18-55.52,242.17-91.17,360.77c-0.08,0.09-0.15,0.19-0.23,0.29
		c-0.02,0.23-0.05,0.47-0.08,0.71c-1.13,3.75-2.16,7.54-3.31,11.28c-3.19,10.46-6.48,20.89-9.81,31.3c0,0.01,0,0.02,0,0.02
		c-4.82,15.12-9.75,30.2-14.85,45.2c-6.68,19.61-13.54,39.11-21.03,58.37c-4.53,11.64-9.35,23.16-14.2,34.65
		c-2.86,6.75-5.7,13.51-8.54,20.26c-2.79,6.62-5.65,13.21-8.5,19.79c-4.71,10.86-9.51,21.69-14.53,32.37
		c-0.88,1.86-1.83,3.67-2.72,5.52c-0.01,0.01-0.01,0.02-0.02,0.03c0,0,0,0.01,0,0.02c-2.6,5.43-5.26,10.82-7.97,16.19
		c-1.55,3.08-3.06,6.19-4.64,9.25h-48.61c1.38-3.74,2.29-6.04,4.35-11.35c0.02-0.05,0.04-0.12,0.06-0.17c0.01-0.01,0-0.02,0-0.03
		c7.43-13.16,14.72-26.43,21.74-39.85c1.77-3.38,3.5-6.76,5.26-10.14c5.62-10.83,11.13-21.72,16.49-32.71
		c1.26-2.6,2.6-5.16,3.84-7.77c7.99-16.82,15.35-33.95,22.56-51.18c2.62-6.29,5.23-12.59,7.86-18.88
		c3.7-8.82,7.42-17.63,11.04-26.47c12.73-31.17,24.53-62.75,35.72-94.59c14.54-41.39,28-83.24,40.78-125.33
		c0.34-1.1,0.65-2.22,0.98-3.32c19.59-64.74,37.48-130.06,54.87-195.54c12.93-48.7,25.61-97.47,38.44-146.17
		C4685.23,1716.45,4717.67,1596.96,4761.73,1482.23L4761.73,1482.23z"/>
	<path class="st3" d="M4393.92,2588.38c-1.66,4.31-3.02,7.76-4.21,11.01h-2.01C4389.81,2595.74,4391.84,2592.05,4393.92,2588.38
		L4393.92,2588.38z"/>
	<path class="st4" d="M5002.26,2083.86c192.26,1.12,356.49,84.35,356.49,84.35s-92.1,280.58-298.5,431.18h-670.46
		c1.38-3.74,2.29-6.04,4.35-11.35c0.02-0.05,0.04-0.12,0.06-0.17c0.01-0.01,0-0.02,0-0.03c0.05-0.12,0.12-0.25,0.17-0.38
		c2.05-5.27,4.4-11.18,7.05-17.65c3.08-7.51,6.47-15.59,10.42-24.57c0.11-0.26,0.23-0.54,0.34-0.8c0.01-0.01,0.02-0.02,0.03-0.03
		c5.98-13.59,12.85-28.49,20.88-44.79c11.03-22.39,23.88-46.71,38.86-72.31c17.03-29.08,36.56-59.46,58.85-89.65
		c5.75-7.78,11.7-15.52,17.8-23.23c-0.02,0.23-0.05,0.47-0.08,0.71c0.1-0.33,0.21-0.67,0.31-1c16.2-20.48,33.68-40.61,52.43-59.94
		c48.2-49.7,104.86-93.97,170.58-124.03c34.77-15.9,70.35-26.99,105.95-34.36C4919.68,2087.14,4961.59,2083.62,5002.26,2083.86
		L5002.26,2083.86z"/>
	<path class="st5" d="M5250.92,2205.36c-84.87,44.19-173.92,77.65-262.82,110.61c-52.68,19.53-105.41,38.9-157.84,59.22
		c-20.31,7.88-40.58,15.94-60.77,24.24c-36.27,14.91-72.22,30.7-107.66,47.78c-0.01,0.01-0.02,0.02-0.02,0.03
		c-26.96,13-53.65,26.69-79.86,41.48c-3.17,1.79-6.34,3.6-9.52,5.39c-0.06,0.03-0.11,0.05-0.17,0.08c0,0-0.01,0-0.02,0
		c-14.77,8.3-29.54,16.6-43.99,25.56c-7.89,4.9-15.61,10.15-23.32,15.37c-5.92,4.01-11.81,8.1-17.67,12.22
		c-0.29,0.21-0.59,0.42-0.88,0.63c-0.63,0.44-1.27,0.89-1.9,1.34c-4.49,3.17-8.97,6.37-13.43,9.6c-6.75,4.9-13.43,9.9-20.04,15.02
		c0,0,0,0.01,0,0.02c-10.6,8.19-20.99,16.7-31.2,25.44h-30.02c1.38-3.74,2.29-6.04,4.35-11.35c0.02-0.05,0.04-0.12,0.06-0.17
		c0.01-0.01,0-0.02,0-0.03c0.05-0.12,0.12-0.26,0.17-0.38c2.05-5.27,4.4-11.18,7.05-17.65c3.08-7.51,6.47-15.59,10.42-24.57
		c0.11-0.26,0.23-0.54,0.34-0.8c2.99-2.24,6.01-4.39,9.02-6.59c9.32-6.83,18.72-13.52,28.32-19.84c0.26-0.18,0.53-0.36,0.79-0.54
		c11.49-7.53,23.18-14.66,35.01-21.51c1.42-0.82,2.82-1.69,4.25-2.5c5.83-3.34,11.73-6.55,17.59-9.83
		c4.13-2.32,8.28-4.56,12.43-6.82c0.95-0.52,1.9-1.06,2.86-1.58c0.83-0.46,1.66-0.91,2.49-1.36c8.5-4.65,16.98-9.43,25.62-13.77
		c8.19-4.1,16.45-8.04,24.73-11.88c2.92-1.36,5.87-2.64,8.81-3.98c0,0-0.01-0.01,0-0.02c5.52-2.51,11.03-5.03,16.59-7.48
		c17-7.51,34.12-14.71,51.33-21.63c20.77-8.35,41.68-16.27,62.65-23.97c23.24-8.54,46.57-16.75,69.99-24.68
		c58.07-19.69,116.56-37.9,175.03-56.12c40.3-12.56,80.59-25.31,120.64-38.78C5138.04,2252.14,5195.26,2231.02,5250.92,2205.36
		L5250.92,2205.36z"/>
	<path class="st6" d="M5192.48,1383.06c12.2,60.5,21.31,122.22,21.78,184.3c0.24,32.67-1.95,65.68-8.44,97.63
		c-2.02,9.96-4.48,19.82-7.4,29.53c-0.13,0.43-0.23,0.87-0.37,1.3c-6.17,20.21-14.56,39.66-25.25,57.5
		c-6.59,10.99-14.05,21.34-22.3,30.89c-49.66,57.53-122.08,80.47-190.83,95.82c-11.54,2.58-23.18,4.87-34.78,7.15
		c-6.34,1.24-12.69,2.37-19.04,3.55c-8.71,1.62-17.41,3.26-26.12,4.87c0,0-0.01,0-0.02,0c-1.18,0.22-2.35,0.45-3.53,0.67
		c-19.64,3.65-39.27,7.4-58.77,11.86c-9.43,2.16-18.85,4.39-28.2,6.93c-13.75,3.73-27.66,8.12-41.38,13.31
		c-35.77,13.55-69.95,33.11-94.67,64.65c-5.58,7.13-10.63,14.75-15.06,22.79c-10.42,18.92-16.5,40.47-20.92,61.9
		c-7.19,34.87-9.9,70.65-11.96,106.25c-0.72,12.57-1.33,25.17-2.06,37.73c-0.63,10.84-1.26,21.67-1.9,32.51
		c-0.3,5.06-0.65,10.11-0.9,15.17c-1,19.96-1.89,39.92-3.1,59.87c-0.98,15.99-2.16,32-3.74,47.94c-0.04,0.32-0.05,0.64-0.09,0.96
		c-1.33,13.27-2.89,26.5-4.88,39.67c-1.33,8.79-2.8,17.63-4.45,26.43c-3.15,16.77-6.97,33.49-11.67,49.87
		c-0.06,0.03-0.11,0.05-0.17,0.08c0.02,0.01,0.13,0.03,0.15,0.03c-4.29,14.89-9.37,29.45-15.33,43.54
		c-9.36,22.11-20.96,42.97-35.61,61.63h-95.43c5.84-2.69,11.52-5.77,17-9.25c1.85-1.17,3.69-2.35,5.5-3.62
		c6.34-4.44,12.34-9.48,17.96-14.96c6.86-6.7,13.05-13.99,18.63-21.76c0.43-0.6,0.83-1.23,1.25-1.83
		c14.8-21.16,25.24-45.7,33.21-71.16c4.72-15.1,8.66-30.49,11.95-45.73c2.49-11.56,4.63-23.24,6.52-34.96c0,0,0-0.01,0-0.02
		c1.91-11.89,3.57-23.83,5.13-35.77c1.96-15.04,3.73-30.1,5.33-45.19c0.1-0.33,0.21-0.67,0.31-1c-0.08,0.09-0.15,0.19-0.23,0.29
		c1.56-14.79,2.95-29.6,4.17-44.44c1.42-17.35,2.49-34.69,3.84-52.05c1.05-13.46,2.4-26.92,3.86-40.34
		c0.92-8.38,1.84-16.74,2.89-25.09c2.07-16.61,4.52-33.23,7.54-49.71c2.42-13.24,5.2-26.41,8.62-39.36
		c4.99-18.94,11.34-37.55,19.98-54.87c0.01,0,0-0.01,0-0.02c1.92-3.84,3.91-7.65,6.07-11.35c3.04-5.2,6.31-10.25,9.77-15.14
		c3.64-5.16,7.5-10.14,11.56-14.88c4.19-4.88,8.58-9.45,13.1-13.81c36.25-34.9,82.84-53.56,129.66-65.19
		c44.91-11.15,90.71-16.82,136.33-23.39c12.8-1.84,25.59-3.72,38.34-5.85c26.07-4.36,52.11-9.48,77.6-16.95
		c7.66-2.25,15.25-4.82,22.79-7.56c25.19-9.14,49.46-21.21,71.03-37.82c9.95-7.66,19.33-16.24,27.97-25.96
		c8.92-10.03,16.9-21.09,23.83-32.86c9.83-16.69,17.49-34.76,23.35-53.52c11.92-38.13,16.51-78.72,17.39-118.87
		C5209.64,1504.23,5202.55,1443.12,5192.48,1383.06L5192.48,1383.06z"/>
	<path class="st7" d="M4536.09,2361.69c-14.37-96.05-103.93-159.98-103.93-159.98s-66.27,91.79-51.91,187.84
		c14.37,96.04,105.21,160.49,105.21,160.49S4550.45,2457.73,4536.09,2361.69L4536.09,2361.69z"/>
	<path class="st7" d="M4634.26,2310.21c64.15-67.47,170.89-59.97,170.89-59.97s2.74,116.91-61.41,184.38
		c-64.15,67.47-172.21,59.55-172.21,59.55S4570.11,2377.68,4634.26,2310.21L4634.26,2310.21z"/>
	<path class="st7" d="M4594.73,1951.46c-20.02-73.24-95.66-113.21-95.66-113.21s-43.19,78.79-23.18,152.03
		c20.02,73.24,96.71,113.47,96.71,113.47S4614.75,2024.7,4594.73,1951.46L4594.73,1951.46z"/>
	<path class="st7" d="M4885.71,1897.07c67.78,18.76,107.5,99.7,107.5,99.7s-70.17,50.51-137.95,31.75
		c-67.78-18.77-107.79-100.83-107.79-100.83S4817.93,1878.3,4885.71,1897.07L4885.71,1897.07z"/>
	<path class="st7" d="M5138.88,1762.69c25.67-56.75,0.44-127.65,0.44-127.65s-66.85,21.11-92.52,77.86
		c-25.67,56.76,0.05,128.46,0.05,128.46S5113.21,1819.44,5138.88,1762.69L5138.88,1762.69z"/>
	<path class="st7" d="M5241.34,1622.91c34.52-20.7,79.3-4.01,79.3-4.01s-11.19,50.26-45.71,70.95c-34.53,20.7-79.81,3.66-79.81,3.66
		S5206.82,1643.6,5241.34,1622.91L5241.34,1622.91z"/>
	<path class="st2" d="M952.31,1584.86c0,0-107.08,226.84-110.11,489.73c-0.1,8.6,0.01,17.27,0.14,25.94
		c0.07,4.67,0.19,9.34,0.33,14.03c1.26,42.19,5.3,85.03,13.18,127.8c3.89,21.14,8.73,42.25,14.55,63.25
		c3.42,12.33,7.14,24.64,11.28,36.88c16.26,48.09,37.45,92.75,61.84,134.13c0,0-0.01,0.01,0,0.02c0,0-0.01,0.02,0,0.02
		c26.8,45.46,57.51,86.86,90.01,124.28c17.22,19.83,34.94,38.48,52.84,56.07c0.01,0.01,0.01,0.02,0.02,0.02
		c16.33,16.05,32.8,31.27,49.19,45.46c0,0,0.01,0.03,0.02,0.03c18.77,16.26,37.36,31.2,55.52,45.03c31.77,24.23,62,44.78,88.8,61.64
		h78.49c-1.38-3.74-2.29-6.04-4.35-11.35c-0.03-0.05-0.04-0.12-0.07-0.18c0,0,0.01-0.02,0-0.02c-0.04-0.12-0.11-0.26-0.16-0.38
		c-2.05-5.27-4.4-11.19-7.05-17.65c-3.09-7.51-6.48-15.6-10.42-24.57c7.53,17.09,13.58,31.89,17.92,43.14
		c1.66,4.3,3.01,7.76,4.21,11.01h51.56c46.97-124.06,138.85-425.68,46.5-698.92C1336.8,1755.97,952.31,1584.86,952.31,1584.86
		L952.31,1584.86z"/>
	<path class="st3" d="M986.46,1692.02c26.81,77.57,48.31,157.08,67.86,237.16c11.73,48.03,22.83,96.2,33.72,144.47
		c6.72,29.83,13.42,59.68,20.14,89.52c27.32,121.18,55.53,242.16,91.18,360.76c0.08,0.1,0.15,0.2,0.23,0.29
		c0.02,0.24,0.05,0.48,0.08,0.72c1.13,3.75,2.16,7.53,3.31,11.28c3.19,10.45,6.48,20.89,9.81,31.3c0,0-0.01,0.01,0,0.02
		c4.82,15.11,9.75,30.19,14.85,45.19c6.67,19.61,13.54,39.12,21.03,58.38c4.52,11.63,9.34,23.15,14.2,34.65
		c2.85,6.75,5.7,13.51,8.54,20.26c2.79,6.62,5.65,13.2,8.5,19.79c4.71,10.86,9.51,21.68,14.53,32.37c0.87,1.86,1.83,3.67,2.72,5.52
		c0.01,0,0.01,0.02,0.02,0.02c0,0.01,0,0.02,0,0.02c2.6,5.43,5.26,10.83,7.97,16.2c1.55,3.08,3.06,6.19,4.64,9.25h48.61
		c-1.38-3.74-2.29-6.04-4.35-11.35c-0.03-0.05-0.04-0.12-0.07-0.18c0,0,0.01-0.02,0-0.02c-7.42-13.17-14.71-26.43-21.74-39.86
		c-1.76-3.37-3.49-6.76-5.25-10.14c-5.62-10.82-11.14-21.72-16.49-32.7c-1.26-2.6-2.6-5.17-3.84-7.78
		c-7.99-16.82-15.35-33.94-22.56-51.18c-2.63-6.28-5.23-12.59-7.87-18.87c-3.69-8.82-7.42-17.63-11.03-26.48
		c-12.73-31.16-24.53-62.74-35.72-94.58c-14.54-41.39-28.01-83.24-40.79-125.33c-0.33-1.11-0.64-2.22-0.98-3.33
		c-19.59-64.73-37.48-130.05-54.86-195.54c-12.93-48.69-25.61-97.46-38.44-146.17C1062.96,1926.25,1030.52,1806.75,986.46,1692.02
		L986.46,1692.02z"/>
	<path class="st3" d="M1354.27,2798.18c1.66,4.3,3.01,7.76,4.21,11.01h2C1358.37,2805.54,1356.34,2801.85,1354.27,2798.18
		L1354.27,2798.18z"/>
	<path class="st4" d="M745.93,2293.65c-192.27,1.13-356.49,84.36-356.49,84.36s92.1,280.58,298.5,431.18h670.46
		c-1.38-3.74-2.29-6.04-4.35-11.35c-0.03-0.05-0.04-0.12-0.07-0.18c0,0,0.01-0.02,0-0.02c-0.04-0.12-0.11-0.26-0.16-0.38
		c-2.05-5.27-4.4-11.19-7.05-17.65c-3.09-7.51-6.48-15.6-10.42-24.57c-0.11-0.26-0.23-0.54-0.35-0.81c0,0-0.01-0.01-0.02-0.02
		c-5.98-13.6-12.85-28.49-20.88-44.79c-11.03-22.4-23.88-46.72-38.87-72.31c-17.02-29.08-36.55-59.47-58.85-89.65
		c-5.74-7.78-11.69-15.52-17.79-23.24c0.02,0.24,0.05,0.48,0.08,0.72c-0.1-0.34-0.21-0.67-0.31-1.01
		c-16.2-20.47-33.68-40.6-52.43-59.94c-48.2-49.69-104.87-93.96-170.59-124.03c-34.76-15.9-70.34-26.98-105.95-34.35
		C828.51,2296.93,786.6,2293.42,745.93,2293.65L745.93,2293.65z"/>
	<path class="st5" d="M497.27,2415.16c84.86,44.18,173.92,77.65,262.82,110.6c52.67,19.53,105.41,38.91,157.83,59.23
		c20.32,7.87,40.59,15.94,60.77,24.24c36.28,14.9,72.23,30.69,107.67,47.78c0.01,0.01,0.01,0.02,0.02,0.02
		c26.96,13,53.65,26.69,79.86,41.49c3.17,1.79,6.34,3.6,9.52,5.38c0.05,0.03,0.11,0.06,0.16,0.09c0.01,0,0.02,0,0.02,0
		c14.78,8.3,29.55,16.59,44,25.56c7.88,4.89,15.6,10.15,23.31,15.37c5.93,4.01,11.82,8.09,17.68,12.22c0.29,0.2,0.58,0.42,0.88,0.62
		c0.63,0.45,1.26,0.9,1.9,1.34c4.49,3.18,8.97,6.38,13.42,9.61c6.75,4.9,13.43,9.9,20.05,15.01c0,0.01,0,0.02,0,0.02
		c10.6,8.2,20.98,16.7,31.2,25.45h30.02c-1.38-3.74-2.29-6.04-4.35-11.35c-0.03-0.05-0.04-0.12-0.07-0.18c0,0,0.01-0.02,0-0.02
		c-0.04-0.12-0.11-0.26-0.16-0.38c-2.05-5.27-4.4-11.19-7.05-17.65c-3.09-7.51-6.48-15.6-10.42-24.57
		c-0.11-0.26-0.23-0.54-0.35-0.81c-2.98-2.23-6.01-4.39-9.01-6.59c-9.32-6.82-18.73-13.52-28.32-19.84
		c-0.27-0.17-0.53-0.36-0.8-0.53c-11.48-7.54-23.17-14.66-35-21.51c-1.42-0.83-2.82-1.69-4.25-2.51
		c-5.84-3.33-11.74-6.54-17.59-9.83c-4.13-2.31-8.28-4.55-12.43-6.81c-0.96-0.52-1.9-1.06-2.86-1.59c-0.83-0.45-1.66-0.9-2.49-1.36
		c-8.5-4.65-16.99-9.42-25.63-13.76c-8.18-4.11-16.44-8.04-24.72-11.88c-2.93-1.36-5.87-2.65-8.81-3.98c0-0.01,0-0.02,0-0.02
		c-5.52-2.52-11.04-5.04-16.59-7.49c-17-7.5-34.12-14.71-51.33-21.62c-20.78-8.35-41.68-16.27-62.65-23.97
		c-23.24-8.54-46.57-16.75-69.99-24.69c-58.07-19.69-116.57-37.89-175.03-56.12c-40.3-12.56-80.59-25.3-120.64-38.78
		C610.15,2461.94,552.93,2440.82,497.27,2415.16L497.27,2415.16z"/>
	<path class="st6" d="M555.71,1592.86c-12.2,60.49-21.32,122.21-21.78,184.3c-0.25,32.67,1.94,65.67,8.44,97.62
		c2.03,9.96,4.47,19.83,7.4,29.54c0.13,0.43,0.24,0.86,0.37,1.29c6.18,20.22,14.56,39.66,25.26,57.5c6.59,11,14.04,21.34,22.29,30.9
		c49.67,57.53,122.09,80.47,190.83,95.82c11.54,2.57,23.19,4.87,34.78,7.14c6.34,1.25,12.7,2.37,19.04,3.56
		c8.7,1.62,17.41,3.26,26.11,4.87c0.01,0,0.01,0,0.02,0c1.18,0.21,2.36,0.45,3.53,0.67c19.64,3.64,39.26,7.39,58.77,11.86
		c9.42,2.16,18.85,4.39,28.2,6.92c13.75,3.73,27.66,8.12,41.37,13.32c35.78,13.55,69.96,33.1,94.68,64.65
		c5.58,7.13,10.63,14.75,15.05,22.79c10.43,18.92,16.51,40.46,20.93,61.9c7.18,34.87,9.89,70.65,11.95,106.25
		c0.73,12.57,1.34,25.16,2.07,37.73c0.62,10.84,1.26,21.67,1.9,32.5c0.3,5.06,0.64,10.11,0.9,15.17c1,19.97,1.89,39.92,3.1,59.87
		c0.98,15.99,2.16,32.01,3.74,47.94c0.03,0.32,0.05,0.65,0.08,0.97c1.34,13.27,2.9,26.5,4.89,39.67c1.32,8.79,2.8,17.62,4.45,26.43
		c3.15,16.77,6.96,33.49,11.67,49.86c0.05,0.03,0.11,0.06,0.16,0.09c-0.01,0-0.12,0.02-0.14,0.02c4.28,14.9,9.37,29.46,15.33,43.54
		c9.35,22.12,20.95,42.97,35.61,61.64h95.43c-5.84-2.69-11.52-5.78-17-9.25c-1.86-1.17-3.7-2.35-5.5-3.62
		c-6.34-4.45-12.34-9.48-17.96-14.97c-6.86-6.69-13.06-13.98-18.64-21.76c-0.43-0.59-0.82-1.22-1.24-1.83
		c-14.81-21.15-25.24-45.69-33.21-71.15c-4.72-15.1-8.67-30.49-11.95-45.73c-2.5-11.57-4.63-23.24-6.52-34.96c0-0.01,0-0.02,0-0.02
		c-1.92-11.89-3.57-23.84-5.13-35.77c-1.96-15.04-3.73-30.1-5.33-45.19c-0.1-0.34-0.21-0.67-0.31-1.01c0.08,0.1,0.15,0.2,0.23,0.29
		c-1.57-14.79-2.96-29.6-4.17-44.43c-1.42-17.35-2.5-34.69-3.84-52.05c-1.05-13.47-2.4-26.92-3.87-40.35
		c-0.91-8.37-1.83-16.74-2.88-25.09c-2.07-16.61-4.52-33.22-7.54-49.7c-2.42-13.24-5.2-26.41-8.62-39.36
		c-4.99-18.94-11.34-37.55-19.99-54.87c0-0.01,0.01-0.02,0-0.02c-1.91-3.85-3.9-7.65-6.06-11.35c-3.04-5.21-6.31-10.26-9.77-15.15
		c-3.65-5.15-7.5-10.13-11.57-14.88c-4.18-4.88-8.57-9.45-13.1-13.8c-36.24-34.9-82.83-53.57-129.65-65.19
		c-44.91-11.15-90.71-16.83-136.33-23.39c-12.8-1.84-25.58-3.72-38.33-5.85c-26.08-4.36-52.11-9.48-77.61-16.96
		c-7.66-2.24-15.24-4.81-22.78-7.55c-25.19-9.15-49.46-21.21-71.03-37.82c-9.95-7.66-19.34-16.24-27.97-25.96
		c-8.92-10.04-16.9-21.1-23.83-32.86c-9.83-16.69-17.49-34.76-23.36-53.53c-11.92-38.13-16.51-78.72-17.39-118.87
		C538.55,1714.02,545.64,1652.91,555.71,1592.86L555.71,1592.86z"/>
	<path class="st7" d="M1212.1,2571.48c14.36-96.04,103.93-159.97,103.93-159.97s66.27,91.79,51.91,187.83
		c-14.37,96.05-105.21,160.5-105.21,160.5S1197.73,2667.53,1212.1,2571.48L1212.1,2571.48z"/>
	<path class="st7" d="M1113.93,2520.01c-64.15-67.48-170.9-59.97-170.9-59.97s-2.73,116.9,61.42,184.38
		c64.15,67.47,172.2,59.54,172.2,59.54S1178.08,2587.48,1113.93,2520.01L1113.93,2520.01z"/>
	<path class="st7" d="M1153.46,2161.25c20.01-73.24,95.66-113.2,95.66-113.2s43.19,78.78,23.17,152.02
		c-20.01,73.25-96.7,113.47-96.7,113.47S1133.44,2234.5,1153.46,2161.25L1153.46,2161.25z"/>
	<path class="st7" d="M862.48,2106.87c-67.78,18.76-107.5,99.7-107.5,99.7s70.17,50.51,137.95,31.74
		c67.78-18.76,107.79-100.82,107.79-100.82S930.26,2088.1,862.48,2106.87L862.48,2106.87z"/>
	<path class="st7" d="M609.31,1972.49c-25.67-56.75-0.44-127.65-0.44-127.65s66.85,21.11,92.52,77.86
		c25.67,56.75-0.05,128.45-0.05,128.45S634.98,2029.24,609.31,1972.49L609.31,1972.49z"/>
	<path class="st7" d="M506.84,1832.7c-34.52-20.7-79.3-4-79.3-4s11.19,50.25,45.72,70.95c34.52,20.7,79.81,3.66,79.81,3.66
		S541.37,1853.4,506.84,1832.7L506.84,1832.7z"/>
	<path class="st8" d="M1277.71,1141.22l-0.13,190.72c-0.02,16.87-13.7,30.53-30.56,30.52c-16.86-0.02-30.52-13.7-30.51-30.56
		l0.13-190.73c0.01-16.86,13.69-30.52,30.55-30.51C1264.06,1110.67,1277.72,1124.35,1277.71,1141.22L1277.71,1141.22z"/>
	<path class="st8" d="M1604.14,636.15l190.72,0.12c16.87,0.01,30.53,13.69,30.52,30.55c-0.01,16.87-13.69,30.53-30.55,30.52
		l-190.73-0.12c-16.87-0.01-30.53-13.69-30.52-30.55C1573.59,649.81,1587.27,636.14,1604.14,636.15L1604.14,636.15z"/>
	<path class="st8" d="M1890.99,636.33l190.73,0.11c16.86,0.01,30.52,13.69,30.51,30.56c-0.01,16.86-13.69,30.52-30.55,30.51
		l-190.73-0.11c-16.86-0.01-30.53-13.69-30.52-30.56C1860.44,649.98,1874.12,636.32,1890.99,636.33L1890.99,636.33z"/>
	<path class="st9" d="M1449.19,666.59l2601.25,1.58c111.41,0.07,201.68,90.44,201.61,201.86l-1.06,1737.55
		c-0.06,111.41-90.44,201.68-201.85,201.61l-2601.25-1.58c-111.42-0.07-201.68-90.44-201.61-201.86l1.05-1737.54
		C1247.4,756.79,1337.77,666.53,1449.19,666.59L1449.19,666.59z"/>
	<path class="st10" d="M1473.93,743.94l2551.68,1.55c83.98,0.05,152.03,68.18,151.98,152.17l-1.02,1682.2
		c-0.05,83.98-68.18,152.03-152.17,151.98l-2551.68-1.55c-83.99-0.05-152.03-68.18-151.98-152.17l1.02-1682.19
		C1321.81,811.94,1389.94,743.89,1473.93,743.94L1473.93,743.94z"/>
	<path class="st11" d="M3181.25,903.36v1828.45h843.79c83.7-0.3,151.47-68.18,151.52-151.96l0.06-101.96V903.36H3181.25
		L3181.25,903.36z"/>
	<polygon class="st12" points="1575.29,862.05 1575.82,1133.06 1575.82,1133.87 1576.29,1396.54 1576.29,1397.38 1576.86,1664.15 
		1576.86,1665 1577.39,1931.8 1577.39,1932.62 1577.89,2199.42 1577.89,2200.27 1578.42,2467.07 1578.42,2467.89 1578.89,2730.14 
		1578.89,2730.36 1579.68,2730.36 1579.68,2730.14 1579.21,2467.89 1579.21,2467.07 1578.67,2200.27 1578.67,2199.42 
		1578.17,1932.62 1578.17,1931.8 1577.64,1665 1577.64,1664.15 1577.14,1397.38 1577.14,1396.54 1576.67,1133.87 1576.67,1133.06 
		1576.14,862.05 1575.29,862.05 	"/>
	<polygon class="st12" points="1838.8,862.05 1839.33,1132.68 1839.33,1133.49 1839.84,1396.16 1839.84,1397.01 1840.31,1663.78 
		1840.31,1664.62 1840.84,1931.43 1840.84,1932.27 1841.34,2199.05 1841.34,2199.89 1841.87,2466.66 1841.87,2467.48 
		1842.37,2730.14 1842.37,2730.52 1843.22,2730.52 1843.22,2730.14 1842.72,2467.48 1842.72,2466.66 1842.19,2199.86 
		1842.19,2199.05 1841.68,1932.21 1841.68,1931.43 1841.15,1664.62 1841.15,1663.78 1840.62,1397.01 1840.62,1396.16 
		1840.12,1133.49 1840.12,1132.68 1839.58,862.05 1838.8,862.05 	"/>
	<polygon class="st12" points="2110.59,862.05 2111.15,1132.27 2111.15,1133.12 2111.62,1395.75 2111.62,1396.6 2112.09,1663.37 
		2112.09,1664.22 2112.66,1931.05 2112.66,1931.83 2113.13,2198.67 2113.13,2199.48 2113.69,2466.32 2113.69,2467.1 
		2114.16,2730.14 2114.16,2730.68 2114.94,2730.68 2114.94,2730.14 2114.47,2467.1 2114.47,2466.32 2113.91,2199.48 
		2113.91,2198.67 2113.44,1931.83 2113.44,1931.05 2112.88,1664.22 2112.88,1663.37 2112.41,1396.6 2112.41,1395.75 
		2111.94,1133.12 2111.94,1132.27 2111.37,862.05 2110.59,862.05 	"/>
	<polygon class="st12" points="2374.07,862.05 2374.6,1131.93 2374.6,1132.74 2375.07,1395.38 2375.07,1396.22 2375.64,1662.99 
		2375.64,1663.84 2376.17,1930.68 2376.17,1931.49 2376.64,2198.29 2376.64,2199.11 2377.2,2465.94 2377.2,2466.73 2377.67,2730.14 
		2377.67,2730.83 2378.46,2730.83 2378.46,2730.14 2377.99,2466.73 2377.99,2465.94 2377.42,2199.11 2377.42,2198.29 
		2376.95,1931.49 2376.95,1930.68 2376.42,1663.84 2376.42,1662.99 2375.92,1396.22 2375.92,1395.38 2375.45,1132.74 
		2375.45,1131.93 2374.91,862.05 2374.07,862.05 	"/>
	<polygon class="st12" points="2641.69,862.05 2642.22,1131.55 2642.22,1132.37 2642.72,1395.03 2642.72,1395.85 2643.25,1662.65 
		2643.25,1663.5 2643.79,1930.3 2643.79,1931.11 2644.29,2197.92 2644.29,2198.73 2644.82,2465.57 2644.82,2466.38 2645.29,2730.14 
		2645.29,2731.02 2646.11,2731.02 2646.11,2730.14 2645.6,2466.38 2645.6,2465.57 2645.07,2198.73 2645.07,2197.92 2644.57,1931.11 
		2644.57,1930.3 2644.04,1663.5 2644.04,1662.65 2643.57,1395.85 2643.57,1395.03 2643.07,1132.37 2643.07,1131.55 2642.53,862.05 
		2641.69,862.05 	"/>
	<polygon class="st12" points="2909.37,862.05 2909.9,1131.14 2909.9,1131.99 2910.4,1394.59 2910.4,1395.44 2910.87,1662.21 
		2910.87,1663.09 2911.44,1929.92 2911.44,1930.71 2911.91,2197.54 2911.91,2198.36 2912.44,2465.16 2912.44,2465.97 
		2912.94,2730.14 2912.94,2731.18 2913.72,2731.18 2913.72,2730.14 2913.22,2465.97 2913.22,2465.16 2912.69,2198.36 
		2912.69,2197.51 2912.22,1930.71 2912.22,1929.92 2911.66,1663.09 2911.66,1662.21 2911.19,1395.44 2911.19,1394.59 
		2910.68,1131.99 2910.68,1131.14 2910.15,862.05 2909.37,862.05 	"/>
	<polygon class="st12" points="3176.99,862.05 3177.49,1130.77 3177.49,1130.8 3177.55,1131.55 3177.55,1131.61 3178.02,1394.22 
		3178.02,1395.06 3178.52,1661.87 3178.52,1662.71 3179.05,1929.52 3179.05,1930.33 3179.52,2197.13 3179.52,2197.98 
		3180.09,2464.78 3180.09,2465.6 3180.56,2730.14 3180.56,2731.34 3181.34,2731.34 3181.34,2730.14 3180.87,2465.6 3180.87,2464.78 
		3180.31,2197.98 3180.31,2197.13 3179.84,1930.33 3179.84,1929.52 3179.31,1662.71 3179.31,1661.87 3178.8,1395.06 3178.8,1394.22 
		3178.33,1131.61 3178.33,1131.55 3178.27,1130.8 3178.27,1130.77 3177.77,862.05 3176.99,862.05 	"/>
	<polygon class="st12" points="3444.64,862.05 3445.11,1130.39 3445.11,1130.42 3445.17,1131.21 3445.64,1393.87 3445.64,1394.72 
		3446.14,1661.49 3446.14,1662.34 3446.67,1929.14 3446.67,1929.95 3447.17,2196.76 3447.17,2197.6 3447.71,2464.41 
		3447.71,2465.22 3448.18,2730.14 3448.18,2731.49 3448.96,2731.49 3448.96,2730.14 3448.49,2465.22 3448.49,2464.41 
		3447.96,2197.6 3447.96,2196.76 3447.46,1929.95 3447.46,1929.14 3446.92,1662.34 3446.92,1661.49 3446.42,1394.72 
		3446.42,1393.87 3445.95,1131.21 3445.89,1130.42 3445.89,1130.39 3445.42,862.05 3444.64,862.05 	"/>
	<polygon class="st12" points="3712.25,862.05 3712.72,1130.01 3712.72,1130.83 3713.22,1393.5 3713.22,1394.34 3713.76,1661.11 
		3713.76,1661.99 3714.32,1928.76 3714.32,1929.61 3714.79,2196.38 3714.79,2197.23 3715.33,2464.03 3715.33,2464.88 
		3715.83,2730.14 3715.83,2731.65 3716.67,2731.65 3716.67,2730.14 3716.17,2464.88 3716.17,2464.03 3715.64,2197.23 
		3715.64,2196.38 3715.14,1929.61 3715.14,1928.76 3714.6,1661.99 3714.6,1661.11 3714.07,1394.34 3714.07,1393.5 3713.57,1130.83 
		3713.57,1130.01 3713.04,862.05 3712.25,862.05 	"/>
	<polygon class="st12" points="3979.87,862.05 3980.37,1129.64 3980.37,1130.45 3980.84,1393.09 3980.84,1393.93 3981.38,1660.71 
		3981.38,1661.58 3981.88,1928.39 3981.94,1929.17 3981.94,1929.2 3982.41,2196.01 3982.41,2196.85 3982.97,2463.65 
		3982.97,2464.47 3983.44,2730.14 3983.44,2731.81 3984.29,2731.81 3984.29,2730.14 3983.82,2464.47 3983.82,2463.65 
		3983.26,2196.85 3983.26,2196.01 3982.79,1929.2 3982.79,1929.17 3982.72,1928.39 3982.22,1661.58 3982.22,1660.71 
		3981.69,1393.93 3981.69,1393.09 3981.22,1130.45 3981.22,1129.64 3980.66,862.05 3979.87,862.05 	"/>
	<polygon class="st12" points="4177.43,1129.36 3981.22,1129.64 3980.37,1129.64 3713.57,1130.01 3712.72,1130.01 3445.89,1130.39 
		3445.11,1130.39 3178.27,1130.8 3177.49,1130.8 2910.68,1131.17 2909.9,1131.17 2643.07,1131.55 2642.22,1131.55 2375.45,1131.93 
		2374.6,1131.93 2111.94,1132.3 2111.15,1132.3 1840.12,1132.68 1839.33,1132.68 1576.67,1133.06 1575.82,1133.06 1321.59,1133.4 
		1321.59,1134.21 1575.82,1133.87 1576.67,1133.87 1839.33,1133.49 1840.12,1133.49 2111.15,1133.12 2111.94,1133.12 
		2374.6,1132.74 2375.45,1132.74 2642.22,1132.37 2643.07,1132.37 2909.9,1131.99 2910.68,1131.99 3177.55,1131.61 3178.33,1131.61 
		3445.17,1131.21 3445.95,1131.21 3712.72,1130.83 3713.57,1130.83 3980.37,1130.45 3981.22,1130.45 4177.43,1130.17 
		4177.43,1129.36 	"/>
	<polygon class="st12" points="4177.28,1392.84 3962.47,1393.12 3961.54,1393.12 3668.55,1393.5 3667.62,1393.5 3374.59,1393.87 
		3373.73,1393.87 3080.67,1394.25 3079.81,1394.28 2786.75,1394.66 2785.89,1394.66 2492.83,1395.03 2491.9,1395.03 
		2198.87,1395.41 2197.94,1395.41 1909.46,1395.78 1908.6,1395.78 1610.96,1396.16 1610.1,1396.16 1321.59,1396.54 1321.59,1397.32 
		1610.1,1396.94 1610.96,1396.94 1908.6,1396.57 1909.46,1396.57 2197.94,1396.19 2198.87,1396.19 2491.9,1395.82 2492.83,1395.82 
		2785.89,1395.44 2786.75,1395.44 3079.81,1395.06 3080.67,1395.06 3373.73,1394.69 3374.59,1394.69 3667.62,1394.31 
		3668.55,1394.31 3961.54,1393.93 3962.47,1393.93 4177.28,1393.65 4177.28,1392.84 	"/>
	<polygon class="st12" points="4177.12,1660.46 3982.22,1660.74 3981.38,1660.74 3714.6,1661.11 3713.76,1661.11 3446.92,1661.49 
		3446.14,1661.49 3179.31,1661.87 3178.52,1661.9 2911.66,1662.27 2910.87,1662.27 2644.04,1662.65 2643.25,1662.65 
		2376.42,1663.03 2375.64,1663.03 2112.88,1663.4 2112.09,1663.4 1841.15,1663.78 1840.31,1663.78 1577.64,1664.15 1576.86,1664.15 
		1321.27,1664.5 1321.27,1665.31 1576.86,1664.97 1577.64,1664.97 1840.31,1664.59 1841.15,1664.59 2112.09,1664.22 
		2112.88,1664.22 2375.64,1663.84 2376.42,1663.84 2643.25,1663.46 2644.04,1663.46 2910.87,1663.09 2911.66,1663.09 
		3178.52,1662.71 3179.31,1662.71 3446.14,1662.34 3446.92,1662.34 3713.76,1661.96 3714.6,1661.96 3981.38,1661.58 
		3982.22,1661.58 4177.12,1661.3 4177.12,1660.46 	"/>
	<polygon class="st12" points="4176.96,1928.1 3982.72,1928.39 3981.88,1928.39 3715.14,1928.76 3714.32,1928.76 3447.46,1929.14 
		3446.67,1929.14 3179.84,1929.52 3179.05,1929.52 2912.22,1929.92 2911.44,1929.92 2644.57,1930.3 2643.79,1930.3 2376.95,1930.68 
		2376.17,1930.68 2113.44,1931.05 2112.66,1931.05 1841.68,1931.43 1840.84,1931.43 1578.17,1931.8 1577.39,1931.8 1321.12,1932.15 
		1321.12,1932.93 1577.39,1932.59 1578.17,1932.59 1840.84,1932.21 1841.68,1932.21 2112.66,1931.83 2113.44,1931.83 
		2376.17,1931.46 2376.95,1931.46 2643.79,1931.08 2644.57,1931.08 2911.44,1930.71 2912.22,1930.71 3179.05,1930.33 
		3179.84,1930.33 3446.67,1929.95 3447.46,1929.95 3714.32,1929.58 3715.14,1929.58 3981.94,1929.2 3982.79,1929.2 4176.96,1928.92 
		4176.96,1928.1 	"/>
	<polygon class="st12" points="4176.78,2195.72 3983.26,2196.01 3982.41,2196.01 3715.64,2196.38 3714.79,2196.38 3447.96,2196.76 
		3447.17,2196.76 3180.31,2197.13 3179.52,2197.13 2912.69,2197.51 2911.91,2197.54 2645.07,2197.92 2644.29,2197.92 
		2377.42,2198.29 2376.64,2198.29 2113.91,2198.67 2113.13,2198.67 1842.19,2199.05 1841.34,2199.05 1578.67,2199.42 
		1577.89,2199.42 1320.96,2199.77 1320.96,2200.58 1577.89,2200.24 1578.67,2200.24 1841.34,2199.86 1842.19,2199.86 
		2113.13,2199.48 2113.91,2199.48 2376.64,2199.11 2377.42,2199.11 2644.29,2198.73 2645.07,2198.73 2911.91,2198.36 
		2912.69,2198.36 3179.52,2197.98 3180.31,2197.98 3447.17,2197.6 3447.96,2197.6 3714.79,2197.23 3715.64,2197.23 3982.41,2196.85 
		3983.26,2196.85 4176.78,2196.57 4176.81,2196.57 4176.81,2195.72 4176.78,2195.72 	"/>
	<polygon class="st12" points="4176.62,2463.37 3983.82,2463.65 3982.97,2463.65 3716.17,2464.03 3715.33,2464.03 3448.49,2464.41 
		3447.71,2464.41 3180.87,2464.78 3180.09,2464.78 2913.22,2465.16 2912.44,2465.19 2645.6,2465.57 2644.82,2465.57 
		2377.99,2465.94 2377.2,2465.94 2114.47,2466.32 2113.69,2466.32 1842.72,2466.7 1841.87,2466.7 1579.21,2467.07 1578.42,2467.07 
		1320.8,2467.42 1320.8,2468.2 1578.42,2467.85 1579.21,2467.85 1841.87,2467.48 1842.72,2467.48 2113.69,2467.1 2114.47,2467.1 
		2377.2,2466.73 2377.99,2466.73 2644.82,2466.35 2645.6,2466.35 2912.44,2465.97 2913.22,2465.97 3180.09,2465.6 3180.87,2465.6 
		3447.71,2465.22 3448.49,2465.22 3715.33,2464.85 3716.17,2464.85 3982.97,2464.47 3983.82,2464.47 4176.62,2464.19 
		4176.62,2463.37 	"/>
	<path class="st13" d="M1473.92,743.93c-83.99-0.05-152.12,68.02-152.17,152.01v7.44H4176.6l0.02-22.56
		c-8.34-76.06-72.74-135.29-151.03-135.33L1473.92,743.93L1473.92,743.93z"/>
	<path class="st14" d="M1449.1,824.19c-0.08-25.6,20.61-46.42,46.21-46.5c25.6-0.08,46.42,20.61,46.5,46.21
		c0.08,25.6-20.61,46.42-46.21,46.5C1470,870.48,1449.18,849.79,1449.1,824.19L1449.1,824.19z"/>
	<path class="st15" d="M1581.62,823.78c-0.08-25.6,20.61-46.42,46.21-46.5s46.42,20.61,46.5,46.21c0.08,25.6-20.61,46.42-46.21,46.5
		C1602.52,870.07,1581.7,849.38,1581.62,823.78L1581.62,823.78z"/>
	<path class="st16" d="M1701.28,823.41c-0.08-25.61,20.61-46.42,46.21-46.5c25.6-0.08,46.42,20.6,46.5,46.21
		c0.08,25.6-20.61,46.41-46.21,46.49C1722.18,869.69,1701.36,849.01,1701.28,823.41L1701.28,823.41z"/>
	<polyline class="st17" points="2376.45,1517.51 2376.45,1809.22 2146.8,1809.22 2146.8,1455.33 2295.27,1455.33 	"/>
	<polyline class="st18" points="2376.45,1517.51 2295.27,1517.51 2295.27,1455.33 	"/>
	<path class="st19" d="M2323.03,1564.27c0-1.39,1.12-2.52,2.52-2.52h31.19c1.39,0,2.52,1.13,2.52,2.52v0.36
		c0,1.39-1.13,2.52-2.52,2.52h-31.19c-1.4,0-2.52-1.13-2.52-2.52V1564.27L2323.03,1564.27z"/>
	<path class="st20" d="M2249.92,1549.89c0-1.39-1.12-2.52-2.51-2.52h-31.2c-1.39,0-2.52,1.13-2.52,2.52v0.36
		c0,1.39,1.13,2.52,2.52,2.52h31.2c1.39,0,2.51-1.13,2.51-2.52V1549.89L2249.92,1549.89z"/>
	<path class="st19" d="M2248.2,1578.37c0-1.49,1.21-2.7,2.7-2.7h30.84c1.49,0,2.7,1.21,2.7,2.7c0,1.49-1.21,2.7-2.7,2.7h-30.84
		C2249.41,1581.07,2248.2,1579.86,2248.2,1578.37L2248.2,1578.37z"/>
	<path class="st19" d="M2300.41,1564.21c0-1.36,1.11-2.46,2.47-2.46h15.36c1.36,0,2.47,1.1,2.47,2.46v0.47
		c0,1.36-1.11,2.47-2.47,2.47h-15.36c-1.36,0-2.47-1.11-2.47-2.47V1564.21L2300.41,1564.21z"/>
	<path class="st20" d="M2272.54,1549.84c0-1.36-1.11-2.47-2.47-2.47h-15.36c-1.36,0-2.47,1.11-2.47,2.47v0.46
		c0,1.37,1.11,2.47,2.47,2.47h15.36c1.36,0,2.47-1.1,2.47-2.47V1549.84L2272.54,1549.84z"/>
	<path class="st19" d="M2225.59,1578.37c0-1.49,1.21-2.7,2.7-2.7h14.9c1.49,0,2.7,1.21,2.7,2.7c0,1.49-1.21,2.7-2.7,2.7h-14.9
		C2226.8,1581.07,2225.59,1579.86,2225.59,1578.37L2225.59,1578.37z"/>
	<path class="st19" d="M2213.69,1564.38c0-1.45,1.18-2.63,2.63-2.63h8.33c1.45,0,2.63,1.18,2.63,2.63v0.14
		c0,1.45-1.18,2.63-2.63,2.63h-8.33c-1.45,0-2.63-1.18-2.63-2.63V1564.38L2213.69,1564.38z"/>
	<path class="st19" d="M2288.51,1564.15c0-1.33,1.08-2.4,2.41-2.4h4.88c1.33,0,2.4,1.07,2.4,2.4v0.59c0,1.33-1.07,2.41-2.4,2.41
		h-4.88c-1.33,0-2.41-1.08-2.41-2.41V1564.15L2288.51,1564.15z"/>
	<path class="st19" d="M2213.69,1578.37c0-1.49,1.21-2.7,2.7-2.7h4.29c1.49,0,2.7,1.21,2.7,2.7c0,1.49-1.21,2.7-2.7,2.7h-4.29
		C2214.9,1581.07,2213.69,1579.86,2213.69,1578.37L2213.69,1578.37z"/>
	<path class="st19" d="M2231.14,1564.29c0-1.4,1.13-2.54,2.54-2.54h6.05c1.41,0,2.54,1.14,2.54,2.54v0.32c0,1.4-1.13,2.54-2.54,2.54
		h-6.05c-1.41,0-2.54-1.14-2.54-2.54V1564.29L2231.14,1564.29z"/>
	<path class="st19" d="M2244.29,1564.26c0-1.39,1.12-2.51,2.51-2.51h3.66c1.39,0,2.51,1.12,2.51,2.51v0.38
		c0,1.38-1.12,2.51-2.51,2.51h-3.66c-1.39,0-2.51-1.13-2.51-2.51V1564.26L2244.29,1564.26z"/>
	<path class="st19" d="M2254.71,1564.39c0-1.46,1.18-2.64,2.64-2.64h24.45c1.46,0,2.64,1.18,2.64,2.64v0.12
		c0,1.46-1.18,2.64-2.64,2.64h-24.45c-1.46,0-2.64-1.18-2.64-2.64V1564.39L2254.71,1564.39z"/>
	<path class="st19" d="M2323.03,1626.55c0-1.39,1.12-2.52,2.52-2.52h31.19c1.39,0,2.52,1.13,2.52,2.52v0.36
		c0,1.39-1.13,2.52-2.52,2.52h-31.19c-1.4,0-2.52-1.13-2.52-2.52V1626.55L2323.03,1626.55z"/>
	<path class="st20" d="M2249.92,1612.46c0-1.39-1.12-2.51-2.51-2.51h-31.2c-1.39,0-2.52,1.12-2.52,2.51v0.37
		c0,1.39,1.13,2.51,2.52,2.51h31.2c1.39,0,2.51-1.12,2.51-2.51V1612.46L2249.92,1612.46z"/>
	<path class="st19" d="M2248.2,1640.66c0-1.5,1.21-2.7,2.7-2.7h30.84c1.49,0,2.7,1.2,2.7,2.7c0,1.49-1.21,2.69-2.7,2.69h-30.84
		C2249.41,1643.35,2248.2,1642.15,2248.2,1640.66L2248.2,1640.66z"/>
	<path class="st19" d="M2300.41,1626.5c0-1.36,1.11-2.47,2.47-2.47h15.36c1.36,0,2.47,1.11,2.47,2.47v0.46
		c0,1.37-1.11,2.47-2.47,2.47h-15.36c-1.36,0-2.47-1.1-2.47-2.47V1626.5L2300.41,1626.5z"/>
	<path class="st20" d="M2272.54,1612.41c0-1.36-1.11-2.46-2.47-2.46h-15.36c-1.36,0-2.47,1.1-2.47,2.46v0.47
		c0,1.36,1.11,2.46,2.47,2.46h15.36c1.36,0,2.47-1.1,2.47-2.46V1612.41L2272.54,1612.41z"/>
	<path class="st19" d="M2225.59,1640.66c0-1.5,1.21-2.7,2.7-2.7h14.9c1.49,0,2.7,1.2,2.7,2.7c0,1.49-1.21,2.69-2.7,2.69h-14.9
		C2226.8,1643.35,2225.59,1642.15,2225.59,1640.66L2225.59,1640.66z"/>
	<path class="st19" d="M2289.74,1640.66c0-1.5,1.21-2.7,2.7-2.7h14.9c1.49,0,2.7,1.2,2.7,2.7c0,1.49-1.21,2.69-2.7,2.69h-14.9
		C2290.95,1643.35,2289.74,1642.15,2289.74,1640.66L2289.74,1640.66z"/>
	<path class="st19" d="M2213.69,1626.66c0-1.45,1.18-2.63,2.63-2.63h8.33c1.45,0,2.63,1.18,2.63,2.63v0.14
		c0,1.45-1.18,2.63-2.63,2.63h-8.33c-1.45,0-2.63-1.18-2.63-2.63V1626.66L2213.69,1626.66z"/>
	<path class="st19" d="M2288.51,1626.44c0-1.33,1.08-2.41,2.41-2.41h4.88c1.33,0,2.4,1.08,2.4,2.41v0.59c0,1.32-1.07,2.4-2.4,2.4
		h-4.88c-1.33,0-2.41-1.08-2.41-2.4V1626.44L2288.51,1626.44z"/>
	<path class="st20" d="M2284.44,1612.35c0-1.33-1.08-2.4-2.41-2.4h-4.88c-1.33,0-2.4,1.07-2.4,2.4v0.59c0,1.33,1.07,2.4,2.4,2.4
		h4.88c1.33,0,2.41-1.07,2.41-2.4V1612.35L2284.44,1612.35z"/>
	<path class="st19" d="M2213.69,1640.66c0-1.5,1.21-2.7,2.7-2.7h4.29c1.49,0,2.7,1.2,2.7,2.7c0,1.49-1.21,2.69-2.7,2.69h-4.29
		C2214.9,1643.35,2213.69,1642.15,2213.69,1640.66L2213.69,1640.66z"/>
	<path class="st19" d="M2231.14,1626.57c0-1.4,1.13-2.54,2.54-2.54h6.05c1.41,0,2.54,1.14,2.54,2.54v0.32c0,1.4-1.13,2.54-2.54,2.54
		h-6.05c-1.41,0-2.54-1.14-2.54-2.54V1626.57L2231.14,1626.57z"/>
	<path class="st19" d="M2244.29,1626.54c0-1.39,1.12-2.51,2.51-2.51h3.66c1.39,0,2.51,1.12,2.51,2.51v0.38
		c0,1.39-1.12,2.51-2.51,2.51h-3.66c-1.39,0-2.51-1.12-2.51-2.51V1626.54L2244.29,1626.54z"/>
	<path class="st19" d="M2254.71,1626.67c0-1.46,1.18-2.64,2.64-2.64h24.45c1.46,0,2.64,1.18,2.64,2.64v0.12
		c0,1.46-1.18,2.64-2.64,2.64h-24.45c-1.46,0-2.64-1.18-2.64-2.64V1626.67L2254.71,1626.67z"/>
	<path class="st19" d="M2323.03,1685.72c0-1.39,1.12-2.52,2.52-2.52h31.19c1.39,0,2.52,1.13,2.52,2.52v0.36
		c0,1.4-1.13,2.52-2.52,2.52h-31.19c-1.4,0-2.52-1.12-2.52-2.52V1685.72L2323.03,1685.72z"/>
	<path class="st20" d="M2249.92,1671.64c0-1.39-1.12-2.52-2.51-2.52h-31.2c-1.39,0-2.52,1.13-2.52,2.52v0.36
		c0,1.39,1.13,2.52,2.52,2.52h31.2c1.39,0,2.51-1.13,2.51-2.52V1671.64L2249.92,1671.64z"/>
	<path class="st19" d="M2248.2,1699.83c0-1.49,1.21-2.7,2.7-2.7h30.84c1.49,0,2.7,1.21,2.7,2.7s-1.21,2.7-2.7,2.7h-30.84
		C2249.41,1702.53,2248.2,1701.32,2248.2,1699.83L2248.2,1699.83z"/>
	<path class="st19" d="M2300.41,1685.67c0-1.36,1.11-2.47,2.47-2.47h15.36c1.36,0,2.47,1.11,2.47,2.47v0.47
		c0,1.36-1.11,2.46-2.47,2.46h-15.36c-1.36,0-2.47-1.1-2.47-2.46V1685.67L2300.41,1685.67z"/>
	<path class="st20" d="M2272.54,1671.58c0-1.36-1.11-2.46-2.47-2.46h-15.36c-1.36,0-2.47,1.1-2.47,2.46v0.47
		c0,1.36,1.11,2.47,2.47,2.47h15.36c1.36,0,2.47-1.11,2.47-2.47V1671.58L2272.54,1671.58z"/>
	<path class="st19" d="M2225.59,1699.83c0-1.49,1.21-2.7,2.7-2.7h14.9c1.49,0,2.7,1.21,2.7,2.7s-1.21,2.7-2.7,2.7h-14.9
		C2226.8,1702.53,2225.59,1701.32,2225.59,1699.83L2225.59,1699.83z"/>
	<path class="st19" d="M2289.74,1699.83c0-1.49,1.21-2.7,2.7-2.7h14.9c1.49,0,2.7,1.21,2.7,2.7s-1.21,2.7-2.7,2.7h-14.9
		C2290.95,1702.53,2289.74,1701.32,2289.74,1699.83L2289.74,1699.83z"/>
	<path class="st19" d="M2213.69,1685.83c0-1.45,1.18-2.63,2.63-2.63h8.33c1.45,0,2.63,1.18,2.63,2.63v0.15
		c0,1.45-1.18,2.62-2.63,2.62h-8.33c-1.45,0-2.63-1.17-2.63-2.62V1685.83L2213.69,1685.83z"/>
	<path class="st19" d="M2288.51,1685.61c0-1.33,1.08-2.41,2.41-2.41h4.88c1.33,0,2.4,1.08,2.4,2.41v0.59c0,1.33-1.07,2.4-2.4,2.4
		h-4.88c-1.33,0-2.41-1.07-2.41-2.4V1685.61L2288.51,1685.61z"/>
	<path class="st20" d="M2284.44,1671.52c0-1.33-1.08-2.4-2.41-2.4h-4.88c-1.33,0-2.4,1.07-2.4,2.4v0.59c0,1.33,1.07,2.41,2.4,2.41
		h4.88c1.33,0,2.41-1.08,2.41-2.41V1671.52L2284.44,1671.52z"/>
	<path class="st19" d="M2213.69,1699.83c0-1.49,1.21-2.7,2.7-2.7h4.29c1.49,0,2.7,1.21,2.7,2.7s-1.21,2.7-2.7,2.7h-4.29
		C2214.9,1702.53,2213.69,1701.32,2213.69,1699.83L2213.69,1699.83z"/>
	<path class="st19" d="M2312.25,1699.83c0-1.49,1.21-2.7,2.7-2.7h4.29c1.49,0,2.7,1.21,2.7,2.7s-1.21,2.7-2.7,2.7h-4.29
		C2313.46,1702.53,2312.25,1701.32,2312.25,1699.83L2312.25,1699.83z"/>
	<path class="st19" d="M2231.14,1685.74c0-1.4,1.13-2.54,2.54-2.54h6.05c1.41,0,2.54,1.14,2.54,2.54v0.32
		c0,1.41-1.13,2.54-2.54,2.54h-6.05c-1.41,0-2.54-1.13-2.54-2.54V1685.74L2231.14,1685.74z"/>
	<path class="st19" d="M2324.69,1699.83c0-1.49,1.21-2.7,2.7-2.7h4.29c1.49,0,2.7,1.21,2.7,2.7s-1.21,2.7-2.7,2.7h-4.29
		C2325.9,1702.53,2324.69,1701.32,2324.69,1699.83L2324.69,1699.83z"/>
	<path class="st19" d="M2244.29,1685.71c0-1.38,1.12-2.51,2.51-2.51h3.66c1.39,0,2.51,1.13,2.51,2.51v0.39c0,1.38-1.12,2.5-2.51,2.5
		h-3.66c-1.39,0-2.51-1.12-2.51-2.5V1685.71L2244.29,1685.71z"/>
	<path class="st19" d="M2254.71,1685.84c0-1.45,1.18-2.64,2.64-2.64h24.45c1.46,0,2.64,1.19,2.64,2.64v0.12
		c0,1.46-1.18,2.64-2.64,2.64h-24.45c-1.46,0-2.64-1.18-2.64-2.64V1685.84L2254.71,1685.84z"/>
	<path class="st19" d="M2323.03,1751.17c0-1.39,1.12-2.51,2.52-2.51h31.19c1.39,0,2.52,1.12,2.52,2.51v0.37
		c0,1.39-1.13,2.52-2.52,2.52h-31.19c-1.4,0-2.52-1.13-2.52-2.52V1751.17L2323.03,1751.17z"/>
	<path class="st20" d="M2249.92,1737.09c0-1.39-1.12-2.52-2.51-2.52h-31.2c-1.39,0-2.52,1.13-2.52,2.52v0.36
		c0,1.39,1.13,2.52,2.52,2.52h31.2c1.39,0,2.51-1.13,2.51-2.52V1737.09L2249.92,1737.09z"/>
	<path class="st19" d="M2300.41,1751.12c0-1.36,1.11-2.46,2.47-2.46h15.36c1.36,0,2.47,1.1,2.47,2.46v0.47
		c0,1.36-1.11,2.47-2.47,2.47h-15.36c-1.36,0-2.47-1.11-2.47-2.47V1751.12L2300.41,1751.12z"/>
	<path class="st20" d="M2272.54,1737.04c0-1.37-1.11-2.47-2.47-2.47h-15.36c-1.36,0-2.47,1.1-2.47,2.47v0.46
		c0,1.36,1.11,2.47,2.47,2.47h15.36c1.36,0,2.47-1.11,2.47-2.47V1737.04L2272.54,1737.04z"/>
	<path class="st19" d="M2225.59,1765.28c0-1.49,1.21-2.7,2.7-2.7h14.9c1.49,0,2.7,1.21,2.7,2.7c0,1.49-1.21,2.7-2.7,2.7h-14.9
		C2226.8,1767.98,2225.59,1766.77,2225.59,1765.28L2225.59,1765.28z"/>
	<path class="st19" d="M2213.69,1751.28c0-1.45,1.18-2.62,2.63-2.62h8.33c1.45,0,2.63,1.17,2.63,2.62v0.15
		c0,1.45-1.18,2.63-2.63,2.63h-8.33c-1.45,0-2.63-1.18-2.63-2.63V1751.28L2213.69,1751.28z"/>
	<path class="st19" d="M2288.51,1751.06c0-1.33,1.08-2.4,2.41-2.4h4.88c1.33,0,2.4,1.07,2.4,2.4v0.59c0,1.33-1.07,2.41-2.4,2.41
		h-4.88c-1.33,0-2.41-1.08-2.41-2.41V1751.06L2288.51,1751.06z"/>
	<path class="st20" d="M2284.44,1736.97c0-1.32-1.08-2.4-2.41-2.4h-4.88c-1.33,0-2.4,1.08-2.4,2.4v0.6c0,1.32,1.07,2.4,2.4,2.4h4.88
		c1.33,0,2.41-1.08,2.41-2.4V1736.97L2284.44,1736.97z"/>
	<path class="st19" d="M2213.69,1765.28c0-1.49,1.21-2.7,2.7-2.7h4.29c1.49,0,2.7,1.21,2.7,2.7c0,1.49-1.21,2.7-2.7,2.7h-4.29
		C2214.9,1767.98,2213.69,1766.77,2213.69,1765.28L2213.69,1765.28z"/>
	<path class="st19" d="M2231.14,1751.2c0-1.41,1.13-2.54,2.54-2.54h6.05c1.41,0,2.54,1.13,2.54,2.54v0.32c0,1.4-1.13,2.54-2.54,2.54
		h-6.05c-1.41,0-2.54-1.14-2.54-2.54V1751.2L2231.14,1751.2z"/>
	<path class="st19" d="M2244.29,1751.16c0-1.38,1.12-2.5,2.51-2.5h3.66c1.39,0,2.51,1.12,2.51,2.5v0.39c0,1.38-1.12,2.51-2.51,2.51
		h-3.66c-1.39,0-2.51-1.13-2.51-2.51V1751.16L2244.29,1751.16z"/>
	<path class="st19" d="M2254.71,1751.3c0-1.46,1.18-2.64,2.64-2.64h24.45c1.46,0,2.64,1.18,2.64,2.64v0.12
		c0,1.45-1.18,2.64-2.64,2.64h-24.45c-1.46,0-2.64-1.19-2.64-2.64V1751.3L2254.71,1751.3z"/>
	<path class="st20" d="M2318.24,1737.21c0-1.46-1.18-2.64-2.64-2.64h-24.45c-1.45,0-2.64,1.18-2.64,2.64v0.12
		c0,1.46,1.19,2.64,2.64,2.64h24.45c1.46,0,2.64-1.18,2.64-2.64V1737.21L2318.24,1737.21z"/>
	<path class="st21" d="M2169.32,1561.43c-0.69-0.78-0.62-1.98,0.17-2.67c0.78-0.69,1.98-0.62,2.67,0.17l9.22,10.45
		c0.69,0.78,0.61,1.98-0.17,2.67c-0.79,0.69-1.98,0.62-2.67-0.17L2169.32,1561.43L2169.32,1561.43z"/>
	<path class="st21" d="M2196.27,1555.18c0.69-0.78,0.61-1.98-0.17-2.67c-0.78-0.69-1.98-0.62-2.67,0.17l-14.73,16.7
		c-0.69,0.78-0.62,1.98,0.17,2.67c0.78,0.69,1.98,0.62,2.67-0.17L2196.27,1555.18L2196.27,1555.18z"/>
	<path class="st20" d="M2170.3,1543.49c-3.48,0-6.3,2.82-6.3,6.3c0,0.19,0,24.78,0,24.98c0,3.48,2.82,6.3,6.3,6.3h24.98
		c3.48,0,6.31-2.82,6.31-6.3v-24.98c0-3.48-2.83-6.3-6.31-6.3H2170.3L2170.3,1543.49z M2170.3,1546.08h24.98
		c2.05,0,3.71,1.66,3.71,3.71v24.98c0,2.05-1.66,3.71-3.71,3.71h-24.98c-2.05,0-3.71-1.66-3.71-3.71c0-0.2,0-24.79,0-24.98
		C2166.59,1547.74,2168.25,1546.08,2170.3,1546.08L2170.3,1546.08z"/>
	<path class="st21" d="M2169.32,1623.72c-0.69-0.79-0.62-1.99,0.17-2.68c0.78-0.69,1.98-0.61,2.67,0.17l9.22,10.45
		c0.69,0.78,0.61,1.98-0.17,2.67c-0.79,0.69-1.98,0.62-2.67-0.16L2169.32,1623.72L2169.32,1623.72z"/>
	<path class="st21" d="M2196.27,1617.47c0.69-0.79,0.61-1.99-0.17-2.68c-0.78-0.69-1.98-0.61-2.67,0.17l-14.73,16.7
		c-0.69,0.78-0.62,1.98,0.17,2.67c0.78,0.69,1.98,0.62,2.67-0.16L2196.27,1617.47L2196.27,1617.47z"/>
	<path class="st20" d="M2170.3,1605.77c-3.48,0-6.3,2.82-6.3,6.3c0,0.2,0,24.79,0,24.98c0,3.48,2.82,6.3,6.3,6.3h24.98
		c3.48,0,6.31-2.82,6.31-6.3v-24.98c0-3.48-2.83-6.3-6.31-6.3H2170.3L2170.3,1605.77z M2170.3,1608.36h24.98
		c2.05,0,3.71,1.66,3.71,3.71v24.98c0,2.05-1.66,3.71-3.71,3.71h-24.98c-2.05,0-3.71-1.66-3.71-3.71c0-0.19,0-24.78,0-24.98
		C2166.59,1610.02,2168.25,1608.36,2170.3,1608.36L2170.3,1608.36z"/>
	<path class="st21" d="M2169.32,1682.89c-0.69-0.79-0.62-1.98,0.17-2.67c0.78-0.7,1.98-0.62,2.67,0.16l9.22,10.45
		c0.69,0.79,0.61,1.98-0.17,2.68c-0.79,0.69-1.98,0.61-2.67-0.17L2169.32,1682.89L2169.32,1682.89z"/>
	<path class="st21" d="M2196.27,1676.64c0.69-0.79,0.61-1.98-0.17-2.67c-0.78-0.7-1.98-0.62-2.67,0.16l-14.73,16.7
		c-0.69,0.79-0.62,1.98,0.17,2.68c0.78,0.69,1.98,0.61,2.67-0.17L2196.27,1676.64L2196.27,1676.64z"/>
	<path class="st20" d="M2170.3,1664.94c-3.48,0-6.3,2.82-6.3,6.31c0,0.19,0,24.78,0,24.98c0,3.48,2.82,6.3,6.3,6.3h24.98
		c3.48,0,6.31-2.82,6.31-6.3v-24.98c0-3.49-2.83-6.31-6.31-6.31H2170.3L2170.3,1664.94z M2170.3,1667.53h24.98
		c2.05,0,3.71,1.67,3.71,3.72v24.98c0,2.04-1.66,3.71-3.71,3.71h-24.98c-2.05,0-3.71-1.67-3.71-3.71c0-0.2,0-24.79,0-24.98
		C2166.59,1669.2,2168.25,1667.53,2170.3,1667.53L2170.3,1667.53z"/>
	<path class="st21" d="M2169.32,1748.34c-0.69-0.78-0.62-1.98,0.17-2.67c0.78-0.69,1.98-0.62,2.67,0.17l9.22,10.45
		c0.69,0.78,0.61,1.98-0.17,2.67c-0.79,0.69-1.98,0.61-2.67-0.17L2169.32,1748.34L2169.32,1748.34z"/>
	<path class="st21" d="M2196.27,1742.09c0.69-0.78,0.61-1.98-0.17-2.67c-0.78-0.69-1.98-0.62-2.67,0.16l-14.73,16.71
		c-0.69,0.78-0.62,1.98,0.17,2.67c0.78,0.69,1.98,0.61,2.67-0.17L2196.27,1742.09L2196.27,1742.09z"/>
	<path class="st20" d="M2170.3,1730.4c-3.48,0-6.3,2.82-6.3,6.3c0,0.19,0,24.78,0,24.98c0,3.48,2.82,6.3,6.3,6.3h24.98
		c3.48,0,6.31-2.82,6.31-6.3v-24.98c0-3.48-2.83-6.3-6.31-6.3H2170.3L2170.3,1730.4z M2170.3,1732.99h24.98
		c2.05,0,3.71,1.66,3.71,3.71v24.98c0,2.05-1.66,3.71-3.71,3.71h-24.98c-2.05,0-3.71-1.66-3.71-3.71c0-0.2,0-24.79,0-24.98
		C2166.59,1734.65,2168.25,1732.99,2170.3,1732.99L2170.3,1732.99z"/>
	<polyline class="st22" points="2882.09,2044.78 2882.09,2314.79 2669.52,2314.79 2669.52,1987.23 2806.94,1987.23 	"/>
	<polyline class="st23" points="2882.09,2044.78 2806.94,2044.78 2806.94,1987.23 	"/>
	<path class="st19" d="M2832.64,2088.06c0-1.29,1.04-2.33,2.33-2.33h28.87c1.29,0,2.33,1.04,2.33,2.33v0.33
		c0,1.29-1.04,2.34-2.33,2.34h-28.87c-1.29,0-2.33-1.05-2.33-2.34V2088.06L2832.64,2088.06z"/>
	<path class="st20" d="M2764.97,2074.75c0-1.29-1.04-2.33-2.33-2.33h-28.88c-1.28,0-2.33,1.04-2.33,2.33v0.34
		c0,1.28,1.05,2.33,2.33,2.33h28.88c1.29,0,2.33-1.05,2.33-2.33V2074.75L2764.97,2074.75z"/>
	<path class="st19" d="M2763.38,2101.12c0-1.38,1.12-2.5,2.5-2.5h28.54c1.38,0,2.5,1.12,2.5,2.5c0,1.38-1.12,2.49-2.5,2.49h-28.54
		C2764.5,2103.61,2763.38,2102.5,2763.38,2101.12L2763.38,2101.12z"/>
	<path class="st19" d="M2811.7,2088.01c0-1.26,1.03-2.28,2.29-2.28h14.22c1.26,0,2.28,1.02,2.28,2.28v0.43
		c0,1.26-1.02,2.29-2.28,2.29h-14.22c-1.26,0-2.29-1.03-2.29-2.29V2088.01L2811.7,2088.01z"/>
	<path class="st20" d="M2785.9,2074.7c0-1.26-1.02-2.28-2.28-2.28h-14.22c-1.26,0-2.28,1.02-2.28,2.28v0.44
		c0,1.26,1.02,2.28,2.28,2.28h14.22c1.26,0,2.28-1.02,2.28-2.28V2074.7L2785.9,2074.7z"/>
	<path class="st19" d="M2742.45,2101.12c0-1.38,1.12-2.5,2.5-2.5h13.78c1.38,0,2.5,1.12,2.5,2.5c0,1.38-1.12,2.49-2.5,2.49h-13.78
		C2743.57,2103.61,2742.45,2102.5,2742.45,2101.12L2742.45,2101.12z"/>
	<path class="st19" d="M2731.43,2088.16c0-1.34,1.09-2.43,2.44-2.43h7.7c1.35,0,2.44,1.09,2.44,2.43v0.13
		c0,1.35-1.09,2.44-2.44,2.44h-7.7c-1.35,0-2.44-1.09-2.44-2.44V2088.16L2731.43,2088.16z"/>
	<path class="st19" d="M2800.69,2087.95c0-1.23,1-2.22,2.22-2.22h4.52c1.23,0,2.23,0.99,2.23,2.22v0.55c0,1.23-1,2.23-2.23,2.23
		h-4.52c-1.22,0-2.22-1-2.22-2.23V2087.95L2800.69,2087.95z"/>
	<path class="st19" d="M2731.43,2101.12c0-1.38,1.12-2.5,2.5-2.5h3.97c1.38,0,2.5,1.12,2.5,2.5c0,1.38-1.12,2.49-2.5,2.49h-3.97
		C2732.55,2103.61,2731.43,2102.5,2731.43,2101.12L2731.43,2101.12z"/>
	<path class="st19" d="M2747.58,2088.08c0-1.3,1.05-2.35,2.35-2.35h5.61c1.3,0,2.35,1.05,2.35,2.35v0.3c0,1.29-1.05,2.35-2.35,2.35
		h-5.61c-1.3,0-2.35-1.06-2.35-2.35V2088.08L2747.58,2088.08z"/>
	<path class="st19" d="M2759.76,2088.05c0-1.28,1.03-2.32,2.32-2.32h3.39c1.28,0,2.32,1.04,2.32,2.32v0.35
		c0,1.29-1.04,2.33-2.32,2.33h-3.39c-1.29,0-2.32-1.04-2.32-2.33V2088.05L2759.76,2088.05z"/>
	<path class="st19" d="M2769.4,2088.17c0-1.35,1.09-2.44,2.44-2.44h22.63c1.35,0,2.45,1.09,2.45,2.44v0.11
		c0,1.35-1.1,2.45-2.45,2.45h-22.63c-1.35,0-2.44-1.1-2.44-2.45V2088.17L2769.4,2088.17z"/>
	<path class="st19" d="M2832.64,2145.71c0-1.29,1.04-2.33,2.33-2.33h28.87c1.29,0,2.33,1.04,2.33,2.33v0.34
		c0,1.28-1.04,2.33-2.33,2.33h-28.87c-1.29,0-2.33-1.05-2.33-2.33V2145.71L2832.64,2145.71z"/>
	<path class="st20" d="M2764.97,2132.67c0-1.28-1.04-2.33-2.33-2.33h-28.88c-1.28,0-2.33,1.05-2.33,2.33v0.34
		c0,1.29,1.05,2.33,2.33,2.33h28.88c1.29,0,2.33-1.04,2.33-2.33V2132.67L2764.97,2132.67z"/>
	<path class="st19" d="M2763.38,2158.77c0-1.38,1.12-2.5,2.5-2.5h28.54c1.38,0,2.5,1.12,2.5,2.5c0,1.38-1.12,2.5-2.5,2.5h-28.54
		C2764.5,2161.27,2763.38,2160.15,2763.38,2158.77L2763.38,2158.77z"/>
	<path class="st19" d="M2811.7,2145.66c0-1.26,1.03-2.28,2.29-2.28h14.22c1.26,0,2.28,1.02,2.28,2.28v0.43
		c0,1.27-1.02,2.29-2.28,2.29h-14.22c-1.26,0-2.29-1.02-2.29-2.29V2145.66L2811.7,2145.66z"/>
	<path class="st20" d="M2785.9,2132.62c0-1.26-1.02-2.28-2.28-2.28h-14.22c-1.26,0-2.28,1.02-2.28,2.28v0.44
		c0,1.26,1.02,2.28,2.28,2.28h14.22c1.26,0,2.28-1.02,2.28-2.28V2132.62L2785.9,2132.62z"/>
	<path class="st19" d="M2742.45,2158.77c0-1.38,1.12-2.5,2.5-2.5h13.78c1.38,0,2.5,1.12,2.5,2.5c0,1.38-1.12,2.5-2.5,2.5h-13.78
		C2743.57,2161.27,2742.45,2160.15,2742.45,2158.77L2742.45,2158.77z"/>
	<path class="st19" d="M2801.83,2158.77c0-1.38,1.12-2.5,2.5-2.5h13.79c1.38,0,2.5,1.12,2.5,2.5c0,1.38-1.12,2.5-2.5,2.5h-13.79
		C2802.95,2161.27,2801.83,2160.15,2801.83,2158.77L2801.83,2158.77z"/>
	<path class="st19" d="M2731.43,2145.81c0-1.34,1.09-2.43,2.44-2.43h7.7c1.35,0,2.44,1.09,2.44,2.43v0.13
		c0,1.35-1.09,2.44-2.44,2.44h-7.7c-1.35,0-2.44-1.09-2.44-2.44V2145.81L2731.43,2145.81z"/>
	<path class="st19" d="M2800.69,2145.61c0-1.23,1-2.23,2.22-2.23h4.52c1.23,0,2.23,1,2.23,2.23v0.54c0,1.23-1,2.23-2.23,2.23h-4.52
		c-1.22,0-2.22-1-2.22-2.23V2145.61L2800.69,2145.61z"/>
	<path class="st20" d="M2796.92,2132.57c0-1.23-1-2.23-2.23-2.23h-4.52c-1.23,0-2.22,1-2.22,2.23v0.54c0,1.23,0.99,2.23,2.22,2.23
		h4.52c1.23,0,2.23-1,2.23-2.23V2132.57L2796.92,2132.57z"/>
	<path class="st19" d="M2731.43,2158.77c0-1.38,1.12-2.5,2.5-2.5h3.97c1.38,0,2.5,1.12,2.5,2.5c0,1.38-1.12,2.5-2.5,2.5h-3.97
		C2732.55,2161.27,2731.43,2160.15,2731.43,2158.77L2731.43,2158.77z"/>
	<path class="st19" d="M2747.58,2145.73c0-1.3,1.05-2.35,2.35-2.35h5.61c1.3,0,2.35,1.05,2.35,2.35v0.3c0,1.3-1.05,2.35-2.35,2.35
		h-5.61c-1.3,0-2.35-1.05-2.35-2.35V2145.73L2747.58,2145.73z"/>
	<path class="st19" d="M2759.76,2145.7c0-1.28,1.03-2.32,2.32-2.32h3.39c1.28,0,2.32,1.04,2.32,2.32v0.36
		c0,1.28-1.04,2.32-2.32,2.32h-3.39c-1.29,0-2.32-1.04-2.32-2.32V2145.7L2759.76,2145.7z"/>
	<path class="st19" d="M2769.4,2145.82c0-1.35,1.09-2.44,2.44-2.44h22.63c1.35,0,2.45,1.09,2.45,2.44v0.11
		c0,1.35-1.1,2.45-2.45,2.45h-22.63c-1.35,0-2.44-1.1-2.44-2.45V2145.82L2769.4,2145.82z"/>
	<path class="st19" d="M2832.64,2200.48c0-1.28,1.04-2.33,2.33-2.33h28.87c1.29,0,2.33,1.05,2.33,2.33v0.34
		c0,1.29-1.04,2.33-2.33,2.33h-28.87c-1.29,0-2.33-1.04-2.33-2.33V2200.48L2832.64,2200.48z"/>
	<path class="st20" d="M2764.97,2187.44c0-1.28-1.04-2.33-2.33-2.33h-28.88c-1.28,0-2.33,1.05-2.33,2.33v0.34
		c0,1.29,1.05,2.33,2.33,2.33h28.88c1.29,0,2.33-1.04,2.33-2.33V2187.44L2764.97,2187.44z"/>
	<path class="st19" d="M2763.38,2213.54c0-1.38,1.12-2.5,2.5-2.5h28.54c1.38,0,2.5,1.12,2.5,2.5c0,1.38-1.12,2.5-2.5,2.5h-28.54
		C2764.5,2216.04,2763.38,2214.92,2763.38,2213.54L2763.38,2213.54z"/>
	<path class="st19" d="M2811.7,2200.43c0-1.26,1.03-2.28,2.29-2.28h14.22c1.26,0,2.28,1.02,2.28,2.28v0.44
		c0,1.26-1.02,2.28-2.28,2.28h-14.22c-1.26,0-2.29-1.02-2.29-2.28V2200.43L2811.7,2200.43z"/>
	<path class="st20" d="M2785.9,2187.4c0-1.26-1.02-2.29-2.28-2.29h-14.22c-1.26,0-2.28,1.03-2.28,2.29v0.43
		c0,1.26,1.02,2.28,2.28,2.28h14.22c1.26,0,2.28-1.02,2.28-2.28V2187.4L2785.9,2187.4z"/>
	<path class="st19" d="M2742.45,2213.54c0-1.38,1.12-2.5,2.5-2.5h13.78c1.38,0,2.5,1.12,2.5,2.5c0,1.38-1.12,2.5-2.5,2.5h-13.78
		C2743.57,2216.04,2742.45,2214.92,2742.45,2213.54L2742.45,2213.54z"/>
	<path class="st19" d="M2801.83,2213.54c0-1.38,1.12-2.5,2.5-2.5h13.79c1.38,0,2.5,1.12,2.5,2.5c0,1.38-1.12,2.5-2.5,2.5h-13.79
		C2802.95,2216.04,2801.83,2214.92,2801.83,2213.54L2801.83,2213.54z"/>
	<path class="st19" d="M2731.43,2200.59c0-1.35,1.09-2.44,2.44-2.44h7.7c1.35,0,2.44,1.09,2.44,2.44v0.13
		c0,1.34-1.09,2.43-2.44,2.43h-7.7c-1.35,0-2.44-1.09-2.44-2.43V2200.59L2731.43,2200.59z"/>
	<path class="st19" d="M2800.69,2200.38c0-1.23,1-2.23,2.22-2.23h4.52c1.23,0,2.23,1,2.23,2.23v0.54c0,1.23-1,2.23-2.23,2.23h-4.52
		c-1.22,0-2.22-1-2.22-2.23V2200.38L2800.69,2200.38z"/>
	<path class="st20" d="M2796.92,2187.34c0-1.23-1-2.23-2.23-2.23h-4.52c-1.23,0-2.22,1-2.22,2.23v0.55c0,1.22,0.99,2.22,2.22,2.22
		h4.52c1.23,0,2.23-1,2.23-2.22V2187.34L2796.92,2187.34z"/>
	<path class="st19" d="M2731.43,2213.54c0-1.38,1.12-2.5,2.5-2.5h3.97c1.38,0,2.5,1.12,2.5,2.5c0,1.38-1.12,2.5-2.5,2.5h-3.97
		C2732.55,2216.04,2731.43,2214.92,2731.43,2213.54L2731.43,2213.54z"/>
	<path class="st19" d="M2822.66,2213.54c0-1.38,1.12-2.5,2.5-2.5h3.97c1.38,0,2.5,1.12,2.5,2.5c0,1.38-1.12,2.5-2.5,2.5h-3.97
		C2823.78,2216.04,2822.66,2214.92,2822.66,2213.54L2822.66,2213.54z"/>
	<path class="st19" d="M2747.58,2200.5c0-1.3,1.05-2.35,2.35-2.35h5.61c1.3,0,2.35,1.05,2.35,2.35v0.3c0,1.3-1.05,2.35-2.35,2.35
		h-5.61c-1.3,0-2.35-1.05-2.35-2.35V2200.5L2747.58,2200.5z"/>
	<path class="st19" d="M2834.17,2213.54c0-1.38,1.12-2.5,2.5-2.5h3.97c1.38,0,2.5,1.12,2.5,2.5c0,1.38-1.12,2.5-2.5,2.5h-3.97
		C2835.29,2216.04,2834.17,2214.92,2834.17,2213.54L2834.17,2213.54z"/>
	<path class="st19" d="M2759.76,2200.47c0-1.28,1.03-2.32,2.32-2.32h3.39c1.28,0,2.32,1.04,2.32,2.32v0.36
		c0,1.28-1.04,2.32-2.32,2.32h-3.39c-1.29,0-2.32-1.04-2.32-2.32V2200.47L2759.76,2200.47z"/>
	<path class="st19" d="M2769.4,2200.59c0-1.34,1.09-2.44,2.44-2.44h22.63c1.35,0,2.45,1.1,2.45,2.44v0.12c0,1.35-1.1,2.44-2.45,2.44
		h-22.63c-1.35,0-2.44-1.09-2.44-2.44V2200.59L2769.4,2200.59z"/>
	<path class="st19" d="M2832.64,2261.07c0-1.29,1.04-2.33,2.33-2.33h28.87c1.29,0,2.33,1.04,2.33,2.33v0.33
		c0,1.29-1.04,2.33-2.33,2.33h-28.87c-1.29,0-2.33-1.04-2.33-2.33V2261.07L2832.64,2261.07z"/>
	<path class="st20" d="M2764.97,2248.03c0-1.29-1.04-2.33-2.33-2.33h-28.88c-1.28,0-2.33,1.04-2.33,2.33v0.33
		c0,1.29,1.05,2.33,2.33,2.33h28.88c1.29,0,2.33-1.04,2.33-2.33V2248.03L2764.97,2248.03z"/>
	<path class="st19" d="M2811.7,2261.02c0-1.26,1.03-2.28,2.29-2.28h14.22c1.26,0,2.28,1.02,2.28,2.28v0.43
		c0,1.26-1.02,2.28-2.28,2.28h-14.22c-1.26,0-2.29-1.02-2.29-2.28V2261.02L2811.7,2261.02z"/>
	<path class="st20" d="M2785.9,2247.98c0-1.26-1.02-2.28-2.28-2.28h-14.22c-1.26,0-2.28,1.02-2.28,2.28v0.43
		c0,1.26,1.02,2.28,2.28,2.28h14.22c1.26,0,2.28-1.02,2.28-2.28V2247.98L2785.9,2247.98z"/>
	<path class="st19" d="M2742.45,2274.12c0-1.38,1.12-2.5,2.5-2.5h13.78c1.38,0,2.5,1.12,2.5,2.5c0,1.38-1.12,2.5-2.5,2.5h-13.78
		C2743.57,2276.62,2742.45,2275.5,2742.45,2274.12L2742.45,2274.12z"/>
	<path class="st19" d="M2731.43,2261.17c0-1.35,1.09-2.43,2.44-2.43h7.7c1.35,0,2.44,1.08,2.44,2.43v0.13
		c0,1.34-1.09,2.43-2.44,2.43h-7.7c-1.35,0-2.44-1.09-2.44-2.43V2261.17L2731.43,2261.17z"/>
	<path class="st19" d="M2800.69,2260.96c0-1.23,1-2.22,2.22-2.22h4.52c1.23,0,2.23,0.99,2.23,2.22v0.55c0,1.23-1,2.22-2.23,2.22
		h-4.52c-1.22,0-2.22-0.99-2.22-2.22V2260.96L2800.69,2260.96z"/>
	<path class="st20" d="M2796.92,2247.92c0-1.23-1-2.22-2.23-2.22h-4.52c-1.23,0-2.22,0.99-2.22,2.22v0.55
		c0,1.23,0.99,2.22,2.22,2.22h4.52c1.23,0,2.23-0.99,2.23-2.22V2247.92L2796.92,2247.92z"/>
	<path class="st19" d="M2731.43,2274.12c0-1.38,1.12-2.5,2.5-2.5h3.97c1.38,0,2.5,1.12,2.5,2.5c0,1.38-1.12,2.5-2.5,2.5h-3.97
		C2732.55,2276.62,2731.43,2275.5,2731.43,2274.12L2731.43,2274.12z"/>
	<path class="st19" d="M2747.58,2261.09c0-1.3,1.05-2.35,2.35-2.35h5.61c1.3,0,2.35,1.05,2.35,2.35v0.29c0,1.3-1.05,2.35-2.35,2.35
		h-5.61c-1.3,0-2.35-1.05-2.35-2.35V2261.09L2747.58,2261.09z"/>
	<path class="st19" d="M2759.76,2261.06c0-1.28,1.03-2.32,2.32-2.32h3.39c1.28,0,2.32,1.04,2.32,2.32v0.35
		c0,1.28-1.04,2.32-2.32,2.32h-3.39c-1.29,0-2.32-1.04-2.32-2.32V2261.06L2759.76,2261.06z"/>
	<path class="st19" d="M2769.4,2261.18c0-1.35,1.09-2.44,2.44-2.44h22.63c1.35,0,2.45,1.09,2.45,2.44v0.11
		c0,1.35-1.1,2.44-2.45,2.44h-22.63c-1.35,0-2.44-1.09-2.44-2.44V2261.18L2769.4,2261.18z"/>
	<path class="st20" d="M2828.21,2248.14c0-1.35-1.1-2.44-2.45-2.44h-22.63c-1.35,0-2.44,1.09-2.44,2.44v0.11
		c0,1.35,1.09,2.44,2.44,2.44h22.63c1.35,0,2.45-1.09,2.45-2.44V2248.14L2828.21,2248.14z"/>
	<path class="st21" d="M2690.36,2085.44c-0.64-0.73-0.57-1.84,0.16-2.48c0.72-0.64,1.83-0.57,2.47,0.16l8.53,9.67
		c0.64,0.73,0.57,1.83-0.15,2.47c-0.73,0.64-1.84,0.57-2.48-0.15L2690.36,2085.44L2690.36,2085.44z"/>
	<path class="st21" d="M2715.3,2079.65c0.64-0.73,0.58-1.83-0.15-2.47c-0.73-0.64-1.83-0.57-2.47,0.15l-13.64,15.46
		c-0.64,0.73-0.57,1.83,0.16,2.47c0.72,0.64,1.83,0.57,2.47-0.15L2715.3,2079.65L2715.3,2079.65z"/>
	<path class="st20" d="M2691.27,2068.83c-3.22,0-5.83,2.61-5.83,5.83c0,0.18,0,22.94,0,23.12c0,3.22,2.61,5.83,5.83,5.83h23.12
		c3.22,0,5.84-2.61,5.84-5.83v-23.12c0-3.22-2.62-5.83-5.84-5.83H2691.27L2691.27,2068.83z M2691.27,2071.22h23.12
		c1.9,0,3.44,1.54,3.44,3.44v23.12c0,1.9-1.54,3.44-3.44,3.44h-23.12c-1.9,0-3.44-1.54-3.44-3.44c0-0.18,0-22.94,0-23.12
		C2687.83,2072.76,2689.37,2071.22,2691.27,2071.22L2691.27,2071.22z"/>
	<path class="st21" d="M2690.36,2143.09c-0.64-0.73-0.57-1.84,0.16-2.48c0.72-0.64,1.83-0.57,2.47,0.16l8.53,9.67
		c0.64,0.73,0.57,1.83-0.15,2.48c-0.73,0.64-1.84,0.57-2.48-0.16L2690.36,2143.09L2690.36,2143.09z"/>
	<path class="st21" d="M2715.3,2137.3c0.64-0.72,0.58-1.83-0.15-2.47c-0.73-0.64-1.83-0.57-2.47,0.15l-13.64,15.46
		c-0.64,0.73-0.57,1.83,0.16,2.48c0.72,0.64,1.83,0.57,2.47-0.16L2715.3,2137.3L2715.3,2137.3z"/>
	<path class="st20" d="M2691.27,2126.48c-3.22,0-5.83,2.61-5.83,5.83c0,0.18,0,22.94,0,23.12c0,3.23,2.61,5.84,5.83,5.84h23.12
		c3.22,0,5.84-2.61,5.84-5.84v-23.12c0-3.22-2.62-5.83-5.84-5.83H2691.27L2691.27,2126.48z M2691.27,2128.88h23.12
		c1.9,0,3.44,1.53,3.44,3.43v23.12c0,1.9-1.54,3.44-3.44,3.44h-23.12c-1.9,0-3.44-1.54-3.44-3.44c0-0.18,0-22.94,0-23.12
		C2687.83,2130.41,2689.37,2128.88,2691.27,2128.88L2691.27,2128.88z"/>
	<path class="st21" d="M2690.36,2197.86c-0.64-0.73-0.57-1.83,0.16-2.47c0.72-0.64,1.83-0.57,2.47,0.15l8.53,9.67
		c0.64,0.73,0.57,1.84-0.15,2.48c-0.73,0.64-1.84,0.57-2.48-0.16L2690.36,2197.86L2690.36,2197.86z"/>
	<path class="st21" d="M2715.3,2192.07c0.64-0.72,0.58-1.83-0.15-2.47c-0.73-0.64-1.83-0.57-2.47,0.16l-13.64,15.45
		c-0.64,0.73-0.57,1.84,0.16,2.48c0.72,0.64,1.83,0.57,2.47-0.16L2715.3,2192.07L2715.3,2192.07z"/>
	<path class="st20" d="M2691.27,2181.25c-3.22,0-5.83,2.61-5.83,5.83c0,0.18,0,22.94,0,23.12c0,3.23,2.61,5.84,5.83,5.84h23.12
		c3.22,0,5.84-2.61,5.84-5.84v-23.12c0-3.22-2.62-5.83-5.84-5.83H2691.27L2691.27,2181.25z M2691.27,2183.65h23.12
		c1.9,0,3.44,1.54,3.44,3.43v23.12c0,1.9-1.54,3.44-3.44,3.44h-23.12c-1.9,0-3.44-1.54-3.44-3.44c0-0.18,0-22.94,0-23.12
		C2687.83,2185.19,2689.37,2183.65,2691.27,2183.65L2691.27,2183.65z"/>
	<path class="st21" d="M2690.36,2258.44c-0.64-0.72-0.57-1.83,0.16-2.47c0.72-0.64,1.83-0.57,2.47,0.15l8.53,9.68
		c0.64,0.72,0.57,1.83-0.15,2.47c-0.73,0.64-1.84,0.57-2.48-0.15L2690.36,2258.44L2690.36,2258.44z"/>
	<path class="st21" d="M2715.3,2252.66c0.64-0.73,0.58-1.84-0.15-2.48c-0.73-0.64-1.83-0.57-2.47,0.16l-13.64,15.46
		c-0.64,0.72-0.57,1.83,0.16,2.47c0.72,0.64,1.83,0.57,2.47-0.15L2715.3,2252.66L2715.3,2252.66z"/>
	<path class="st20" d="M2691.27,2241.83c-3.22,0-5.83,2.61-5.83,5.84c0,0.18,0,22.94,0,23.12c0,3.22,2.61,5.83,5.83,5.83h23.12
		c3.22,0,5.84-2.61,5.84-5.83v-23.12c0-3.23-2.62-5.84-5.84-5.84H2691.27L2691.27,2241.83z M2691.27,2244.23h23.12
		c1.9,0,3.44,1.54,3.44,3.44v23.12c0,1.89-1.54,3.43-3.44,3.43h-23.12c-1.9,0-3.44-1.54-3.44-3.43c0-0.18,0-22.94,0-23.12
		C2687.83,2245.77,2689.37,2244.23,2691.27,2244.23L2691.27,2244.23z"/>
	<path class="st24" d="M3750.71,713.77c0-236.67,191.85-428.52,428.52-428.52c236.66,0,428.52,191.85,428.52,428.52
		c0,236.66-191.86,428.52-428.52,428.52C3942.56,1142.29,3750.71,950.43,3750.71,713.77L3750.71,713.77z"/>
	<path class="st25" d="M4214.06,302.67c-236.67,0-428.54,191.84-428.54,428.51c0,160.8,88.62,300.84,219.63,374.15
		c53.2,23.69,112.08,36.97,174.08,36.97c236.67,0,428.51-191.87,428.51-428.54c0-160.8-88.62-300.84-219.65-374.15
		C4334.9,315.93,4276.05,302.67,4214.06,302.67L4214.06,302.67z"/>
	<path class="st26" d="M3826.9,713.77c0-194.58,157.74-352.32,352.33-352.32c194.58,0,352.32,157.74,352.32,352.32
		c0,194.58-157.74,352.32-352.32,352.32C3984.64,1066.09,3826.9,908.35,3826.9,713.77L3826.9,713.77z"/>
	<path class="st27" d="M4179.23,361.46c-194.58,0-352.33,157.72-352.33,352.3c0,104.63,45.67,198.57,118.09,263.1
		c54.42,34.42,118.85,54.41,188.01,54.41c194.58,0,352.32-157.75,352.32-352.33c0-104.62-45.65-198.52-118.05-263.05
		C4312.84,381.47,4248.4,361.46,4179.23,361.46L4179.23,361.46z"/>
	<path class="st25" d="M4160.3,444.45c0-12.85,10.42-23.26,23.27-23.26h2.86c12.85,0,23.26,10.41,23.26,23.26v270.39
		c0,12.85-10.41,23.26-23.26,23.26h-2.86c-12.85,0-23.27-10.41-23.27-23.26V444.45L4160.3,444.45z"/>
	<path class="st25" d="M4345.3,687.59c13.35-0.09,24.24,10.66,24.34,24.01v1.05c0.1,13.34-10.65,24.24-24,24.33l-160.99,1.12
		c-13.35,0.09-24.24-10.65-24.34-24v-1.05c-0.1-13.35,10.65-24.24,24-24.34L4345.3,687.59L4345.3,687.59z"/>
	<path class="st28" d="M4178.74,713.88c0.85-1.28,2.79-1.5,4.34-0.48l0.41,0.28c1.55,1.02,2.11,2.89,1.27,4.17l-157.28,238.34
		c-0.85,1.28-2.79,1.5-4.33,0.48l-0.42-0.28c-1.54-1.02-2.11-2.88-1.26-4.17L4178.74,713.88L4178.74,713.88z"/>
	<path class="st28" d="M4107.52,713.77c0-39.6,32.1-71.71,71.71-71.71c39.6,0,71.7,32.11,71.7,71.71c0,39.6-32.1,71.7-71.7,71.7
		C4139.62,785.47,4107.52,753.37,4107.52,713.77L4107.52,713.77z"/>
	<path class="st29" d="M4144.4,713.77c0-19.23,15.59-34.83,34.83-34.83c19.23,0,34.82,15.6,34.82,34.83s-15.59,34.82-34.82,34.82
		C4159.99,748.59,4144.4,733,4144.4,713.77L4144.4,713.77z"/>
	<path class="st25" d="M4161.81,389.28c0-9.62,7.8-17.41,17.42-17.41c9.61,0,17.41,7.8,17.41,17.41c0,9.62-7.8,17.41-17.41,17.41
		C4169.61,406.69,4161.81,398.9,4161.81,389.28L4161.81,389.28z"/>
	<path class="st25" d="M4196.64,1038.26c0,9.62-7.8,17.42-17.41,17.42c-9.62,0-17.42-7.8-17.42-17.42c0-9.61,7.8-17.41,17.42-17.41
		C4188.84,1020.85,4196.64,1028.65,4196.64,1038.26L4196.64,1038.26z"/>
	<path class="st25" d="M4502.74,696.36c9.61,0,17.41,7.79,17.41,17.41c0,9.62-7.8,17.41-17.42,17.41c-9.61,0-17.41-7.8-17.41-17.41
		C4485.32,704.15,4493.12,696.36,4502.74,696.36L4502.74,696.36z"/>
	<path class="st25" d="M3855.72,696.36c-9.62,0-17.42,7.79-17.42,17.41c0.01,9.62,7.8,17.41,17.42,17.41
		c9.61,0,17.41-7.8,17.41-17.41C3873.13,704.15,3865.33,696.36,3855.72,696.36L3855.72,696.36z"/>
	<path class="st30" d="M4787.42,2229.22c39.44,0,71.41,33.76,71.41,75.42v9.64c0,41.65-31.97,75.42-71.41,75.42h-494.76v-22.2h43.28
		v-116.08h-43.28v-22.2H4787.42L4787.42,2229.22z"/>
	<path class="st31" d="M4740.27,2229.22c39.44,0,71.41,33.76,71.41,75.42v9.64c0,41.65-31.97,75.42-71.41,75.42h-494.75v-22.2h43.27
		v-116.08h-43.27v-22.2H4740.27L4740.27,2229.22z"/>
	<path class="st30" d="M4623.01,2229.22c39.44,0,71.41,33.76,71.41,75.42v9.64c0,41.65-31.97,75.42-71.41,75.42h-494.75v-22.2h43.27
		v-116.08h-43.27v-22.2H4623.01L4623.01,2229.22z"/>
	<path class="st30" d="M4574.06,2229.22c39.44,0,71.41,33.76,71.41,75.42v9.64c0,41.65-31.97,75.42-71.41,75.42H4079.3v-22.2h43.28
		v-116.08h-43.28v-22.2H4574.06L4574.06,2229.22z"/>
	<path class="st5" d="M4457.19,2229.22c39.44,0,71.41,33.76,71.41,75.42v9.64c0,41.65-31.97,75.42-71.41,75.42h-494.76v-22.2h43.28
		v-116.08h-43.28v-22.2H4457.19L4457.19,2229.22z"/>
	<path class="st32" d="M4455.57,2251.42c28.8,0,52.15,24.66,52.15,55.08v5.91c0,30.42-23.35,55.09-52.15,55.09h-449.86v-116.08
		H4455.57L4455.57,2251.42z"/>
	<polygon class="st33" points="4411.34,2289.39 4005.71,2289.39 4005.71,2292.71 4411.34,2292.71 4411.34,2289.39 	"/>
	<polygon class="st34" points="4083.5,2292.71 4056.06,2292.71 4056.06,2333.7 4069.78,2323.72 4083.5,2333.7 4083.5,2292.71 	"/>
	<path class="st35" d="M4126.6,2108.25c-29.73,0-53.83,25.45-53.83,56.85v7.27c0,31.4,24.1,56.85,53.83,56.85h372.96v-16.74h-32.62
		v-87.5h32.62v-16.73H4126.6L4126.6,2108.25z"/>
	<path class="st36" d="M4162.14,2108.25c-29.73,0-53.83,25.45-53.83,56.85v7.27c0,31.4,24.1,56.85,53.83,56.85h372.96v-16.74h-32.62
		v-87.5h32.62v-16.73H4162.14L4162.14,2108.25z"/>
	<path class="st35" d="M4250.53,2108.25c-29.73,0-53.83,25.45-53.83,56.85v7.27c0,31.4,24.1,56.85,53.83,56.85h372.96v-16.74h-32.62
		v-87.5h32.62v-16.73H4250.53L4250.53,2108.25z"/>
	<path class="st35" d="M4287.43,2108.25c-29.73,0-53.83,25.45-53.83,56.85v7.27c0,31.4,24.1,56.85,53.83,56.85h372.96v-16.74h-32.62
		v-87.5h32.62v-16.73H4287.43L4287.43,2108.25z"/>
	<path class="st35" d="M4375.53,2108.25c-29.73,0-53.83,25.45-53.83,56.85v7.27c0,31.4,24.1,56.85,53.83,56.85h372.96v-16.74h-32.62
		v-87.5h32.62v-16.73H4375.53L4375.53,2108.25z"/>
	<path class="st32" d="M4376.75,2124.98c-21.71,0-39.31,18.59-39.31,41.53v4.45c0,22.93,17.6,41.52,39.31,41.52h339.12v-87.5
		H4376.75L4376.75,2124.98z"/>
	<polygon class="st33" points="4410.1,2153.61 4715.87,2153.61 4715.87,2156.11 4410.1,2156.11 4410.1,2153.61 	"/>
	<polygon class="st36" points="4657.23,2156.11 4677.91,2156.11 4677.91,2187.01 4667.57,2179.48 4657.23,2187.01 4657.23,2156.11 	
		"/>
	<path class="st15" d="M3954.34,2389.7c-45.86,0-83.03,39.26-83.03,87.69v11.21c0,48.44,37.17,87.7,83.03,87.7h575.29v-25.82h-50.32
		v-134.97h50.32v-25.81H3954.34L3954.34,2389.7z"/>
	<path class="st37" d="M4045.5,2389.7c-45.86,0-83.03,39.26-83.03,87.69v11.21c0,48.44,37.17,87.7,83.03,87.7h575.29v-25.82h-50.32
		v-134.97h50.32v-25.81H4045.5L4045.5,2389.7z"/>
	<path class="st15" d="M4221.53,2389.7c-45.86,0-83.03,39.26-83.03,87.69v11.21c0,48.44,37.17,87.7,83.03,87.7h575.29v-25.82h-50.32
		v-134.97h50.32v-25.81H4221.53L4221.53,2389.7z"/>
	<path class="st15" d="M4374.66,2389.7c-45.85,0-83.03,39.26-83.03,87.69v11.21c0,48.44,37.18,87.7,83.03,87.7h575.3v-25.82h-50.32
		v-134.97h50.32v-25.81H4374.66L4374.66,2389.7z"/>
	<path class="st32" d="M4376.55,2415.51c-33.49,0-60.64,28.68-60.64,64.05v6.88c0,35.37,27.15,64.04,60.64,64.04h523.09v-134.97
		H4376.55L4376.55,2415.51z"/>
	<polygon class="st33" points="4427.98,2459.66 4899.64,2459.66 4899.64,2463.52 4427.98,2463.52 4427.98,2459.66 	"/>
	<polygon class="st38" points="4809.18,2463.52 4841.09,2463.52 4841.09,2511.19 4825.13,2499.58 4809.18,2511.19 4809.18,2463.52 	
		"/>
	<path class="st39" d="M3841.15,2576.3c-57.23,0-103.63,49-103.63,109.45v13.99c0,60.45,46.4,109.45,103.63,109.45h718v-32.22h-62.8
		v-168.45h62.8v-32.22H3841.15L3841.15,2576.3z"/>
	<path class="st40" d="M3954.93,2576.3c-57.23,0-103.63,49-103.63,109.45v13.99c0,60.45,46.4,109.45,103.63,109.45h718v-32.22
		h-62.81v-168.45h62.81v-32.22H3954.93L3954.93,2576.3z"/>
	<path class="st39" d="M4174.62,2576.3c-57.23,0-103.63,49-103.63,109.45v13.99c0,60.45,46.4,109.45,103.63,109.45h717.99v-32.22
		h-62.8v-168.45h62.8v-32.22H4174.62L4174.62,2576.3z"/>
	<path class="st39" d="M4365.74,2576.3c-57.23,0-103.63,49-103.63,109.45v13.99c0,60.45,46.4,109.45,103.63,109.45h718v-32.22h-62.8
		v-168.45h62.8v-32.22H4365.74L4365.74,2576.3z"/>
	<path class="st32" d="M4368.09,2608.52c-41.79,0-75.68,35.79-75.68,79.94v8.57c0,44.15,33.89,79.94,75.68,79.94h652.85v-168.45
		H4368.09L4368.09,2608.52z"/>
	<polygon class="st33" points="4432.28,2663.62 5020.94,2663.62 5020.94,2668.44 4432.28,2668.44 4432.28,2663.62 	"/>
	<polygon class="st34" points="4908.04,2668.44 4947.86,2668.44 4947.86,2727.92 4927.95,2713.44 4908.04,2727.92 4908.04,2668.44 	
		"/>
	<path class="st41" d="M4424.41,1609.54l-3.43,13.89l24.9,26.43l31.33-70.25l-17.52-12.07c0,0,23.5-34.49,5.93-72.92
		c-17.57-38.43-46.99-54.45-87.56-38.95c-40.57,15.49-55.86,51.79-55.86,51.79L4424.41,1609.54L4424.41,1609.54z"/>
	<path class="st42" d="M4417.79,1621.95l13.38,12.88c0,0,9.37-30,11.32-45.35c1.95-15.35-11.67-35.1-11.67-35.1l-5.72-2.76
		L4417.79,1621.95L4417.79,1621.95z"/>
	<path class="st41" d="M4422.38,1503.64c-6.69-12.49-16.89,4.06-25.01-0.72c-17.01-10.04-33.92-30-53.63-19.44
		c-29.1,15.59-37.51,66.34-0.31,101.52c31.9,30.16,62.74,44.17,85.59,20.32c12.53-13.08-6.42-61.67-7.58-73.3
		C4420.28,1520.39,4427,1512.26,4422.38,1503.64L4422.38,1503.64z"/>
	<path d="M4379.24,1512.86l27.06,20.74l-3.03-23.17c0,0,14.8-16.97,19.08-1.97c1.63,5.72-4.35,12.08-3.71,20.98
		c1.05,14.44,7.82,22.94,7.82,22.94l35.87,16.44c0,0,44.29-88.22-44.38-133.53c-2.19-1.12-4.17-2.59-6.4-3.18
		c-41.04-10.86-56.16,10.16-94.52,40.28c-44.91,35.25-56.79,35.62-56.79,35.62s25.29,54.53,60.3,38.61
		C4352.67,1532.02,4379.24,1512.86,4379.24,1512.86L4379.24,1512.86z"/>
	<path d="M4403.16,1531.19c0,0,11.64,19.59,13.44,35.86c1.8,16.26-3.08,31.6-3.08,31.6l-23.6,16.85l22.52,27.17l16.58-37.35
		c0,0,4.36-17.56-1.32-36.89c-5.67-19.34-21.4-40.45-21.4-40.45"/>
	<path class="st43" d="M4572.81,2102.58c-140.03,28.8-410.9,4.03-410.9,4.03l-23.17,292.46c0,0-26.79,15.63-48.88,12.01
		c-22.09-3.62-39.48-26.49-39.48-26.49s-6.94-336.87,8.75-358.8c21.39-29.89,518.91-66.35,518.91-66.35
		S4680.3,2080.47,4572.81,2102.58L4572.81,2102.58z"/>
	<path class="st44" d="M4050.38,2384.59l-55.59,54.57c0,0-38.94-14.27-44.92,8.25c-5.97,22.52,2.75,19.57,2.75,19.57l186.49,1.54
		l-0.37-69.45c0,0-31.63,16.41-48.88,12.01C4072.61,2406.67,4050.38,2384.59,4050.38,2384.59L4050.38,2384.59z"/>
	<polygon points="4138.59,2465.89 4138.74,2480.21 3948.33,2482.8 3948.26,2464.02 4105.95,2466.33 4138.59,2465.89 	"/>
	<path class="st45" d="M4605.2,2102.58c-140.03,28.8-410.9,4.03-410.9,4.03l-23.17,292.46c0,0-26.79,15.63-48.88,12.01
		c-22.09-3.62-39.48-26.49-39.48-26.49s-6.93-336.87,8.76-358.8c21.38-29.89,518.9-66.35,518.9-66.35
		S4712.69,2080.47,4605.2,2102.58L4605.2,2102.58z"/>
	<path class="st46" d="M4082.77,2384.59l-55.59,54.57c0,0-38.93-14.27-44.91,8.25c-5.98,22.52,2.74,19.57,2.74,19.57l186.49,1.54
		l-0.37-69.45c0,0-31.63,16.41-48.88,12.01C4105,2406.67,4082.77,2384.59,4082.77,2384.59L4082.77,2384.59z"/>
	<polygon points="4170.98,2465.89 4171.13,2480.21 3980.72,2482.8 3980.65,2464.02 4138.34,2466.33 4170.98,2465.89 	"/>
	<path class="st47" d="M4479.22,1563.52l-46.72,93.69c0,0-45.8,162.22-59.56,270.89c-13.76,108.67,4.5,163.78,4.5,163.78
		s5.87,19.01,64.08,20.83c58.2,1.82,168.75-13.54,168.75-13.54l1.51-10.44l30.53-12.38l1.98,9.95l21.02-9.03l1.59-23.7l25.83-5.37
		c0,0-43.31-182.04-77.36-320.32c-29.68-120.53-110.03-139.93-110.03-139.93L4479.22,1563.52L4479.22,1563.52z"/>
	<path class="st48" d="M4581.04,1725.44c0,0,16.98,186.6-38.25,252.39c-18.66,22.23-174.88,17.11-174.88,17.11l8.18-85.88
		l75.38-24.19l10.18-158.48L4581.04,1725.44L4581.04,1725.44z"/>
	<polygon class="st49" points="4637.24,2079.75 4610.43,1959.44 4606.71,2092.14 4637.24,2079.75 	"/>
	<polygon class="st32" points="4477.21,1566.93 4470.53,1563.52 4425.73,1645.26 4430.49,1660.61 4477.21,1566.93 	"/>
	<path class="st49" d="M4479.03,1564.44c0.08-0.44-0.02-0.41,0.29-0.09l20.29,18.5l-40.27,79.55l-12.08,5.43l5.51,8.47
		c0,0-23.81,74.68-33.03,123.55c-8.83,46.76-36.94,62.67-36.94,62.67l48.99-205.72L4479.03,1564.44L4479.03,1564.44z"/>
	<path class="st47" d="M4459.65,1685.58c-9.96,51.08,7.29,209.59,7.29,209.59l-116.15,24l2.82,66.19c0,0,162.24-9.39,179.02-18.68
		c14.57-8.07,64.54-197.34,44.59-262.22C4557.26,1639.57,4470.67,1629.02,4459.65,1685.58L4459.65,1685.58z"/>
	<polygon class="st46" points="4363.11,1988.73 4182.98,2016.87 4174.85,2006.8 4360.96,1984.92 4363.11,1988.73 	"/>
	<polygon class="st50" points="4360.96,1984.92 4305.77,1972.59 4165.97,1984.65 4174.85,2006.8 4360.96,1984.92 	"/>
	<polygon class="st51" points="4245.01,1977.83 4273.17,1995.24 4193.7,2004.59 4165.97,1984.65 4245.01,1977.83 	"/>
	<path class="st52" d="M4317.68,1896.71l-96.65,26.26l-31.95,19.01l-6.69,41.25c0,0,4.07,1.51,7.59-2.77
		c3.52-4.28,7.99-21.02,7.99-21.02l27.66-16.1l28.13,39.9l68.4-56.44L4317.68,1896.71L4317.68,1896.71z"/>
	<polygon class="st53" points="4091.83,1844.32 4169.95,1980.07 4189.28,2015.89 4182.98,2016.87 4144.8,1990.3 4058.84,1842.77 
		4062.82,1838.19 4091.83,1844.32 	"/>
	<polygon class="st50" points="4087.86,1848.9 4165.97,1984.65 4182.98,2016.87 4140.82,1994.88 4058.84,1842.77 4087.86,1848.9 	
		"/>
	<path class="st32" d="M4350.79,1919.17l-36.99,4.96c0,0-7.47,13.79-6.76,26.52c0.72,12.72,9.61,24.37,9.61,24.37l36.89,8.24
		L4350.79,1919.17L4350.79,1919.17z"/>
	<path class="st54" d="M4382.91,1866.11l-24.14,27.62l-19.55-0.02c0,0,8.67,6.49,11.57,12.86c2.89,6.36,0,12.6,0,12.6l24.5-5.06
		L4382.91,1866.11L4382.91,1866.11z"/>
	<path class="st50" d="M4339.22,1893.71l-21.54,3l3.9,26.38l29.21-3.92c0,0,2.89-6.24,0-12.6
		C4347.89,1900.2,4339.22,1893.71,4339.22,1893.71L4339.22,1893.71z"/>
	<path class="st41" d="M4313.8,1924.13l-68.05,7.98l-40.17,22.9l-11.28,30.35c0,0,1.82,2.53,4.07,2.42
		c2.25-0.11,4.92-2.86,4.92-2.86l1.93,10.66c0,0,4.98,3.68,8.34-1.55c3.36-5.22,5.11-19.34,5.11-19.34l27.53-14.95l-16.83,15.22
		l-12.49,20.55c0,0,2.47,5.2,7.8,1.62c5.34-3.57,13.53-15.93,13.53-15.93l19.89-9.43l53.94-4.32L4313.8,1924.13L4313.8,1924.13z"/>
	<polygon class="st41" points="4202.1,1985.98 4203.29,1984.92 4203.81,1987.78 4212.67,1964.88 4224.02,1956.88 4210.84,1962.7 
		4202.1,1985.98 	"/>
	<g>
		<path class="st55" d="M893.28,425.44c-104.72-54.51-233.8-13.82-288.32,90.9c-42.1,80.86-27.38,176.22,29.72,240.59l-0.11-0.03
			l54.6,118.36l114.21,10.44l107.86-15.02l51.1-123.12l-0.09,0.05c8.19-10.39,15.59-21.67,21.93-33.84
			C1038.7,609.05,998.01,479.96,893.28,425.44L893.28,425.44z"/>
		<path class="st10" d="M733.21,601.92c0,0,1.83-0.12,2.74-0.09c9.13,0.17,16.87,5.42,22.01,14.83c5,9.15,7.61,22.25,7.68,39
			c0.14,32.05,1.24,74.06,3.05,123.58c0.18,4.61-4.23,8.04-8.66,6.73c-20.42-6-38.87-16.9-52.52-31.38
			c-14.88-15.78-23.56-35.19-24.55-56.75c-1.14-24.68,4.18-47.93,14.26-66.1C706.81,614.43,720.1,603.11,733.21,601.92
			L733.21,601.92z M734.43,615.37c0,0-17.75,9.14-25.4,22.93c-8.85,15.96-13.6,36.72-12.58,58.92c0.84,18.23,8.16,34.59,20.88,48.1
			c9.95,10.54,22.96,18.97,37.52,24.6c-1.59-45.08-2.62-84.26-2.76-114.18c-0.07-14.71-2.24-25.67-6.02-32.59
			c-2.92-5.34-6.42-7.72-10.41-7.8C735.27,615.32,734.86,615.34,734.43,615.37L734.43,615.37z"/>
		<path class="st10" d="M762.19,772.73c0.54,0.02,1.09,0.1,1.65,0.26c12.15,3.58,24.73,5.11,36.81,4.45
			c3.74-0.2,6.95,2.68,7.13,6.44l5.67,123.45c0.22,4.86-4.61,8.37-9.17,6.63l-39.92-15.26c-2.6-0.99-4.32-3.47-4.34-6.25
			c0.01,0.31-0.52-10.36-1-20.57c-1.34-29.04-2.69-60.61-3.84-92.16C755.03,775.7,758.37,772.57,762.19,772.73L762.19,772.73z
			 M769.05,788.22c1.08,28.41,2.25,56.87,3.47,83.04c0.33,7.26,0.6,12.88,0.78,16.39l26.15,10L794.57,791
			C786.1,790.96,777.53,790.05,769.05,788.22L769.05,788.22z"/>
		<path class="st10" d="M853.59,596.37c0,0,27.43,10.04,38.58,26.4c11.71,17.17,19.14,39.81,20.28,64.49
			c0.99,21.55-5.88,41.7-19.25,58.78c-12.26,15.68-29.62,28.22-49.4,36.08c-4.3,1.7-8.99-1.31-9.25-5.92
			c-2.73-49.47-5.5-91.4-8.29-123.32c-1.47-16.7-0.08-29.98,4.06-39.56c4.25-9.83,11.48-15.78,20.55-16.8
			C851.76,596.42,852.67,596.38,853.59,596.37L853.59,596.37z M853.62,609.89c0,0-0.85,0.03-1.26,0.07
			c-3.96,0.44-7.21,3.12-9.63,8.72c-3.12,7.24-4.29,18.35-3,33c2.61,29.81,5.18,68.92,7.73,113.97
			c13.99-6.93,26.17-16.53,35.11-27.95c11.43-14.6,17.22-31.57,16.39-49.81c-1.02-22.2-7.65-42.45-17.93-57.52
			C872.13,617.36,861.51,609.88,853.62,609.89L853.62,609.89z"/>
		<path class="st10" d="M840.43,769.13c3.77-0.5,7.39,2.31,7.63,6.34c2.51,45.56,5.83,116.49,5.52,112.69
			c0.23,2.76-1.27,5.39-3.77,6.61l-38.34,18.85c-4.37,2.15-9.51-0.88-9.74-5.75l-5.68-123.47c-0.17-3.75,2.76-6.93,6.51-7.07
			c12.08-0.45,24.46-3.12,36.24-7.79C839.35,769.34,839.89,769.21,840.43,769.13L840.43,769.13z M835.01,785.18
			c-8.27,2.61-16.71,4.3-25.15,5.12l4.91,106.65l25.12-12.35C839.77,879.99,837.29,827.44,835.01,785.18L835.01,785.18z"/>
		<path class="st56" d="M692.57,872.53l219.61-7.65c12.34-0.42,22.7,9.23,23.12,21.57c0.43,12.33-9.22,22.69-21.56,23.12
			l-219.6,7.65c-12.34,0.42-22.7-9.23-23.13-21.56C670.58,883.31,680.23,872.96,692.57,872.53L692.57,872.53z"/>
		<path class="st56" d="M717.06,897.67l174.03-6.07c12.34-0.42,22.7,9.23,23.13,21.56c0.42,12.34-9.23,22.7-21.56,23.13
			l-174.04,6.06c-12.34,0.42-22.69-9.22-23.12-21.57C695.07,908.45,704.72,898.09,717.06,897.67L717.06,897.67z"/>
		<path class="st56" d="M731.77,926.85l143.58-5c12.33-0.43,22.69,9.22,23.11,21.57c0.44,12.34-9.22,22.69-21.56,23.12l-143.58,5
			c-12.34,0.44-22.69-9.22-23.12-21.56C709.78,937.64,719.43,927.29,731.77,926.85L731.77,926.85z"/>
		<path class="st56" d="M759.26,934.72c13.42-25.77,45.2-35.8,70.98-22.38c25.78,13.42,35.8,45.21,22.38,70.98
			c-13.42,25.78-45.21,35.8-70.98,22.38C755.85,992.28,745.83,960.5,759.26,934.72L759.26,934.72z"/>
		<path class="st57" d="M927.28,904.25l-15.02,0.56l-215.51,7.9l-15.95,0.58c3.8,2.59,8.39,4.1,13.33,3.93l1.61-0.05
			c-0.11,0.85-0.16,1.71-0.17,2.59l218.45-8c-0.08-0.74-0.17-1.48-0.31-2.19c1.41-0.05,2.77-0.26,4.09-0.56
			c0.71-0.16,1.39-0.4,2.08-0.62c0.52-0.17,1.02-0.35,1.51-0.55c0.88-0.37,1.75-0.8,2.57-1.27c0.2-0.12,0.4-0.24,0.59-0.36
			C925.52,905.61,926.43,904.97,927.28,904.25L927.28,904.25z"/>
		<path class="st57" d="M901.96,933.83l-5.98,0.21l-184.1,6.75l-2.04,0.08c0.57,0.22,1.19,0.33,1.78,0.5
			c-0.76,2.04-1.12,4.23-1.27,6.48l187.79-6.87c-0.27-1.84-0.72-3.61-1.4-5.26c0.56-0.13,1.08-0.31,1.6-0.47
			c0.61-0.18,1.21-0.39,1.8-0.62c0.61-0.25,1.22-0.5,1.8-0.8C901.95,933.84,901.96,933.83,901.96,933.83L901.96,933.83z"/>
		<path class="st57" d="M893.36,958.29l-176.74,6.48c3.46,3.53,8.03,5.88,13.14,6.53l0.03-0.01l152.18-5.58
			c2.28-0.61,4.37-1.58,6.27-2.82c0.02-0.01,0.04-0.02,0.05-0.02s0.01-0.01,0.01-0.02c0.88-0.58,1.72-1.23,2.51-1.93
			c0.1-0.09,0.21-0.19,0.31-0.27C891.91,959.9,892.67,959.12,893.36,958.29L893.36,958.29z"/>
		<path class="st58" d="M969.7,680.67c13.02-4.99,26.72-69.04,2.68-131.87c-24.04-62.81-76.7-100.62-89.75-95.63
			c-13.02,4.99,26.8,39.96,50.84,102.77C957.52,618.76,956.66,685.65,969.7,680.67L969.7,680.67z"/>
	</g>
	<path class="st59" d="M975.04,2012.15c0-17.56,14.24-31.8,31.8-31.8h215.53c17.56,0,31.8,14.24,31.8,31.8v410.15
		c0,17.56-14.24,31.8-31.8,31.8h-215.53c-17.56,0-31.8-14.24-31.8-31.8V2012.15L975.04,2012.15z"/>
	<path class="st60" d="M1029.49,2012.15c0-17.56,14.24-31.8,31.8-31.8h215.53c17.56,0,31.8,14.24,31.8,31.8v410.15
		c0,17.56-14.24,31.8-31.8,31.8h-215.53c-17.56,0-31.8-14.24-31.8-31.8V2012.15L1029.49,2012.15z"/>
	<path class="st60" d="M1254.11,2350.32c0,0,136.4-10.21,187.78,25.21c51.39,35.41,48.07,78.57,48.07,78.57h-227.44L1254.11,2350.32
		L1254.11,2350.32z"/>
	<path class="st61" d="M975.04,2467.73c0-7.52,6.1-13.63,13.63-13.63h487.7c7.53,0,13.63,6.11,13.63,13.63v0.46
		c0,7.53-6.1,13.63-13.63,13.63h-487.7c-7.53,0-13.63-6.1-13.63-13.63V2467.73L975.04,2467.73z"/>
	<polygon class="st61" points="1182.38,2467.96 1223.34,2467.96 1223.34,2770.18 1182.38,2770.18 1182.38,2467.96 	"/>
	<path class="st62" d="M1298.81,2319.61c0,0,200.96,16.93,215.71,77.7c19.02,78.39,2.48,356.77,2.48,356.77h-60.99l-36.51-299.69
		c0,0-153.3-4.43-242.87-45.41c-89.56-40.99-94.72-96.18-94.72-96.18L1298.81,2319.61L1298.81,2319.61z"/>
	<path class="st63" d="M1426.3,2376.98c-2.61-15.58-153.33-36.94-153.33-36.94l104.86,59.72l40.66,55.36l37.52,298.96h11.92
		c0,0-8.73-104.3-20.25-210.97C1441.09,2482.17,1433.6,2420.46,1426.3,2376.98L1426.3,2376.98z"/>
	<path class="st62" d="M1253.99,2316.04c0,0,154.27,55.7,161.9,86.48c10.41,42.03,0,348.04,0,348.04l-65.17,3.52l-21.97-297.59
		c0,0-164.72,3.1-221.52-42.82c-56.8-45.91-34.7-100.87-34.7-100.87L1253.99,2316.04L1253.99,2316.04z"/>
	<path class="st46" d="M1523.09,2730.71l43.6,42.8c0,0,30.55-11.19,35.24,6.48c4.69,17.66-2.15,15.35-2.15,15.35l-146.29,1.21
		l0.29-54.48c0,0,24.82,12.87,38.35,9.42C1505.66,2748.03,1523.09,2730.71,1523.09,2730.71L1523.09,2730.71z"/>
	<polygon points="1453.9,2794.48 1453.78,2805.71 1603.14,2807.75 1603.2,2793.01 1479.5,2794.83 1453.9,2794.48 	"/>
	<path class="st15" d="M1300.64,1976.95l-73.76-33.43l-15.39-18.54l-74.65-13.7l-23.03,23.41l-87.02,48.58l64.05,205.83
		l-24.11,132.89c0,0,70.13,8.71,125.55,10.21c55.42,1.5,105.17-9.47,105.17-9.47s-7.2-81.63-3.33-143.44
		c3.86-61.81,18.79-103.81,18.79-103.81L1300.64,1976.95L1300.64,1976.95z"/>
	<path class="st63" d="M1070.26,2321.05c-3.76,16.48-7.29,56.86,36.97,92.63c56.8,45.91,221.54,42.82,221.54,42.82l21.11,286.36
		c2.3,2.49,10.29,11.22,10.29,11.22h10.29l-20.04-304.96l-1.23-19c0,0-156.74-26.73-208.98-51.94c-52.25-25.22,0-48.91,0-48.91
		l-55.87-6.6L1070.26,2321.05L1070.26,2321.05z"/>
	<path class="st64" d="M1069.45,1987.36c0,0,18.99,6.51,38.96,39.66c19.97,33.14,31.34,79.98,31.34,79.98l122.54,30.79l10.68,52.02
		l-169.66,24.49c0,0-16.98,65.06-8.73,94.06c4.39,15.4,45.16,20.89,45.16,20.89l-71.45-5.68l30.11-231.13l-71.61-109.17
		L1069.45,1987.36L1069.45,1987.36z"/>
	<path class="st15" d="M1069.45,1987.36c28.72,21.48,60.73,129.05,60.73,129.05l141.22,33.68l1.57,32.46
		c0,0-137.57,29.76-167.48,12.67c-25.31-14.46-73.55-107.56-90.2-164.74C1001.64,1983.64,1040.72,1965.88,1069.45,1987.36
		L1069.45,1987.36z"/>
	<path class="st15" d="M1310.96,1981.63c28.72,21.48,60.73,129.05,60.73,129.05l141.22,33.68l1.57,32.45
		c0,0-137.57,29.77-167.48,12.68c-25.31-14.47-73.55-107.56-90.2-164.74C1243.15,1977.91,1282.23,1960.14,1310.96,1981.63
		L1310.96,1981.63z"/>
	<polygon class="st32" points="1136.84,1911.28 1187.63,1961.45 1170.31,1959.82 1155.57,1976.95 1116.96,1931.48 1136.84,1911.28 	
		"/>
	<polygon class="st51" points="1616.13,2051.48 1457.32,2051.48 1404.62,2204.75 1562.75,2204.75 1616.13,2051.48 	"/>
	<path class="st46" d="M1408.08,2194.67l-107.11-0.08c-2.81,0-5.08,2.28-5.08,5.08c0,2.8,2.27,5.08,5.08,5.08h103.65
		L1408.08,2194.67L1408.08,2194.67z"/>
	<polygon class="st65" points="1408.08,2194.67 1404.38,2204.75 1562.75,2204.75 1564.14,2193.47 1408.08,2194.67 	"/>
	<polygon class="st32" points="1211.49,1924.98 1187.63,1961.45 1211.73,1953.05 1227.09,1983.64 1235.35,1949.35 1226.88,1943.52 
		1211.49,1924.98 	"/>
	<polygon class="st66" points="1284.57,2186.4 1295.89,2192.78 1325.77,2194.78 1331.72,2194.78 1393.17,2193.92 1365.36,2170.47 
		1358.31,2171.55 1349.7,2166.46 1345.09,2167.63 1330.5,2162.84 1264.34,2148.91 1270.31,2178.88 1284.57,2186.4 	"/>
	<polygon class="st32" points="1264.32,2148.4 1272.97,2182.55 1235.04,2189.83 1235.02,2141.42 1264.32,2148.4 	"/>
	<path class="st41" d="M1198.93,1914.97l10.66,12.92l-21.96,33.56l-45.97-45.41l8.02-11.39c0,0-36.49-11.58-45.58-49.27
		c-9.09-37.68,3.06-65.9,41.12-77.71c38.05-11.8,69.65,5.74,69.65,5.74L1198.93,1914.97L1198.93,1914.97z"/>
	<path class="st42" d="M1199.39,1914.97l2.77,10.01c0,0-17.53-4.27-27.64-14.25c-10.1-9.97-17.79-26.55-17.79-26.55l8.9-10.62
		L1199.39,1914.97L1199.39,1914.97z"/>
	<path class="st41" d="M1140.41,1837.4c-2.25-12.81,14.49-6.64,17.64-14.69c6.59-16.88,7.48-40.86,27.68-44.4
		c29.84-5.24,64.65,26.62,57.73,73.08c-5.93,39.83-20.24,67.41-50.24,63.14c-16.46-2.34-30.3-48.14-36.06-57.18
		C1151.41,1848.3,1141.96,1846.24,1140.41,1837.4L1140.41,1837.4z"/>
	<path d="M1176.76,1819.62l-7.78,30.29c0,0-10.93-13.1-10.93-18.44c0-5.15-20.3-3.86-14.89,9.39c2.07,5.05,9.99,6.26,14.56,13.04
		c7.43,11.01,7.36,20.98,7.36,20.98l-17.66,32.98c0,0-80.84-39.37-42.53-122.3c0.95-2.05,1.54-4.23,2.82-5.91
		c23.46-31.08,46.27-24.48,91.02-24.48c52.37,0,61.16-6.47,61.16-6.47s12.64,53.69-21.64,62.03
		C1206.79,1818.39,1176.76,1819.62,1176.76,1819.62L1176.76,1819.62z"/>
	<path class="st64" d="M1312.79,2075.47c0,0,1.97-17.37-5.09-41.82c-7.05-24.45-23.13-55.99-23.13-55.99s11.02,27.36,15.58,61.49
		c4.55,34.12,2.64,75.02,2.64,75.02L1312.79,2075.47L1312.79,2075.47z"/>
	<path class="st46" d="M1416.84,2730.71l43.6,42.8c0,0,30.54-11.19,35.23,6.48c4.69,17.66-2.15,15.35-2.15,15.35l-146.28,1.21
		l0.29-54.48c0,0,24.81,12.87,38.34,9.42C1399.4,2748.03,1416.84,2730.71,1416.84,2730.71L1416.84,2730.71z"/>
	<polygon points="1347.64,2794.48 1347.53,2805.71 1496.88,2807.75 1496.94,2793.01 1373.25,2794.83 1347.64,2794.48 	"/>
	<path class="st59" d="M1003.72,2350.32c0,0,136.4-10.21,187.78,25.21c51.39,35.41,48.07,78.57,48.07,78.57h-227.44L1003.72,2350.32
		L1003.72,2350.32z"/>
	<path class="st49" d="M1102.81,2740.67c0-10.26,8.32-18.57,18.57-18.57h162.88c10.26,0,18.57,8.31,18.57,18.57v1.11
		c0,10.26,0.07,18.57,0.07,18.57h-199.82c0,0-0.27-8.31-0.27-18.57V2740.67L1102.81,2740.67z"/>
	<path class="st59" d="M1109.47,2751.28h186.77c3.68,0,8.27,2.99,10.26,6.68l23.24,43.1c1.99,3.68,0.62,6.67-3.06,6.67h-247.72
		c-3.68,0-5.04-2.99-3.05-6.67l23.3-43.11C1101.2,2754.27,1105.79,2751.28,1109.47,2751.28L1109.47,2751.28z"/>
	<polygon class="st67" points="600.08,2202.79 2146.8,2202.79 2146.8,2239.73 600.08,2239.73 600.08,2202.79 	"/>
	<polygon class="st68" points="657.89,2239.73 2087.34,2239.73 2087.34,2271.05 657.89,2271.05 657.89,2239.73 	"/>
	<polygon class="st69" points="781.03,2264.75 856.34,2264.75 705.13,2809.66 680.58,2809.66 781.03,2264.75 	"/>
	<polygon class="st69" points="1745.5,2264.75 1820.8,2264.75 1669.6,2809.66 1645.05,2809.66 1745.5,2264.75 	"/>
	<polygon class="st69" points="1022.42,2264.75 947.12,2264.75 1098.32,2809.66 1122.87,2809.66 1022.42,2264.75 	"/>
	<polygon class="st69" points="1986.89,2264.75 1911.59,2264.75 2062.79,2809.66 2087.34,2809.66 1986.89,2264.75 	"/>
	<path class="st70" d="M2071.84,1727.25c72.06,29.52,83.43,172.94,83.43,172.94l92.99-2.19l7.94,37.31
		c0,0-129.29,51.43-140.54,43.18C2099.63,1966.74,2049.68,1718.16,2071.84,1727.25L2071.84,1727.25z"/>
	<polygon class="st71" points="2248.26,1898 2218.89,1898.69 2226.5,1946.75 2256.2,1935.31 2248.26,1898 	"/>
	<path class="st72" d="M2273.49,1884.95l33.49-18.53c0,0,21.06-13.61,27.74-16.82c10.36-4.98,11.33,5.47,6.69,10.81
		c-9.38,10.81-38.47,25.47-38.47,25.47L2273.49,1884.95L2273.49,1884.95z"/>
	<path class="st41" d="M2248.26,1898c0,0,15.24-9.52,25.23-13.05c9.98-3.52,17.73-1.72,17.73-1.72l5.83-4.37l-1.96-13.71
		c0,0-5.98-7.26-5.87-11.96c0.11-4.69,6.3-6.83,6.3-6.83l10,15.56l4.8,14.81l8.74-14.44c0,0-2.03-15.97,0.05-22.62
		c2.09-6.66,8.3-3.99,8.3-3.99l3.96,29.6l-4.38,13.3l16.15-13.13c0,0,5.18-11.01,9.49-14.43c4.31-3.42,7.75,0.76,7.75,0.76
		l-8.98,16.95l-6.98,10.81l11.9-6.26c0,0,3.75-8.21,9.83-11.08c6.08-2.87,10.3,0.14,10.3,0.14l-18.35,20.8l-75.69,36.13l-28.35,5.96
		L2248.26,1898L2248.26,1898z"/>
	<path class="st62" d="M2120.89,2147.51l-23,330.08l-23.07,259.13c0,0-14.14,18.85-30.03,21.51c-15.9,2.66-35.12-10.83-35.12-10.83
		l5.02-270.59l-5.06-192.47l-92.14-120.74L2120.89,2147.51L2120.89,2147.51z"/>
	<polygon class="st62" points="2064.05,2160.23 2009.63,2284.34 1867.89,2743.9 1815.67,2739.5 1819.21,2707.47 1905.89,2157.18 
		2064.05,2160.23 	"/>
	<path class="st46" d="M2074.82,2736.72l41.01,40.26c0,0,28.72-10.52,33.13,6.09c4.41,16.62-2.02,14.44-2.02,14.44l-137.58,1.14
		l0.27-51.25c0,0,23.33,12.12,36.06,8.87C2058.42,2753.02,2074.82,2736.72,2074.82,2736.72L2074.82,2736.72z"/>
	<polygon points="2009.74,2796.71 2009.63,2807.28 2150.11,2809.19 2150.16,2795.33 2033.82,2797.04 2009.74,2796.71 	"/>
	<path class="st63" d="M2032.5,2232.7l-22.87,51.64v463.06c0,0,4.23,2.21,9.28,4.16c5.05,1.95,10.91,3.63,10.91,3.63L2032.5,2232.7
		L2032.5,2232.7z"/>
	<path class="st63" d="M1905.89,2157.18l-84.52,536.58l-5.69,45.74c0,0,5.18-1.07,9.63-1.85c4.45-0.78,8.17-1.26,8.17-1.26
		l37.9-265.27c0,0,9.34-91.87,31.06-199.62c18.34-91,71.69-105.14,71.69-105.14L1905.89,2157.18L1905.89,2157.18z"/>
	<path class="st46" d="M1870.91,2800.28l-1.34-23.23l-1.68-33.15c0,0-13.6-8.98-24.88-8.44c-11.28,0.53-27.34,4.04-27.34,4.04
		l-6.38,28.32l-10.09,23.35l-4.02,12.01L1870.91,2800.28L1870.91,2800.28z"/>
	<path d="M1871.95,2809.19c0-21.26-17.58-43.6-38.91-43.6c-21.32,0-38.33,22.34-38.33,43.6"/>
	<path class="st73" d="M2115.63,1791.38c0,0,20.55,56.91,10.84,92.78c-11.76,43.41-0.73,86.83-0.73,86.83l43.51-3.89l-70.38,29.8
		L2115.63,1791.38L2115.63,1791.38z"/>
	<path class="st70" d="M1967.6,1670.15l-11.01,14.64l-63.15,34.68c0,0-33.21,49.34-36.2,95.73
		c-2.84,44.02,24.12,128.54,33.66,185.67c16.58,99.37,3.67,169.4,3.67,169.4s78.92,11.5,139.32,4.67
		c60.4-6.83,102.29-31.98,102.29-31.98s-16.61-94.94-21.75-182.84c-5.13-87.89,17.23-107.78,1.2-168.74
		c-16.03-60.95-65.31-75.08-65.31-75.08l-5.7-21.83L1967.6,1670.15L1967.6,1670.15z"/>
	<path class="st73" d="M1954.46,1798.82l-23.77,147.93c0,0,5.21,84.91,29.61,145.51c24.4,60.59,73.58,82.67,73.58,82.67
		c-60.4,6.83-139.3-4.67-139.3-4.67s0.81-4.4,1.76-12.48c0-0.01,0-0.02,0-0.03c2.38-20.29,5.66-63.95-0.52-121.08
		c-0.62-5.71-1.34-11.54-2.15-17.51c-0.82-5.97-1.73-12.06-2.77-18.27c-0.53-3.18-1.28-6.72-1.91-10.05l-0.03-0.73l23.46-43.8
		L1954.46,1798.82L1954.46,1798.82z"/>
	<path class="st70" d="M1956.59,1779.42c0,37.79-44.17,166.88-44.17,166.88l40.09,161.36l-48.25,10.14c0,0-56.59-146.7-58.88-169.91
		c-1.87-18.99-5.36-198.69,41.69-225.27C1937.83,1693.94,1956.59,1754.73,1956.59,1779.42L1956.59,1779.42z"/>
	<polygon class="st71" points="1942.34,2066.71 1952.51,2107.66 1904.26,2117.8 1891.36,2083.86 1942.34,2066.71 	"/>
	<path class="st41" d="M1952.51,2107.66l4.72,22.26l22.24,24.23l12.4,27.19l0.84,26.66c0,0-7.76,2.61-12.61-6.17
		c-2.21-4.02-1.72-19.08-1.72-19.08l-5.05-9.9l-1.22,62.22c0,0-3.13,3.14-6.19,3.21c-3.06,0.07-6.05-2.94-6.05-2.94l-1.95-36.8
		l-0.67,33.9c0,0-2.33,2.89-4.74,3.13c-2.41,0.23-4.9-2.2-4.9-2.2l-3.11-6.26c0,0-4.8,1.31-9.08-1c-4.27-2.32-8.02-8.25-8.02-8.25
		l-0.64-5.77c0,0-4.51,2.79-8.49,0.7c-3.99-2.1-7.44-9.09-7.44-9.09l-0.85-65.4l-5.72-20.5L1952.51,2107.66L1952.51,2107.66z"/>
	<path class="st41" d="M2023.69,1674l11.44,8.68l-0.35,24.68l-8.14,10.49l-60.71-42.28l3.74-12.11c0,0-40.08-12.11-50.6-53.19
		c-10.51-41.09,2.35-72.14,43.79-85.62c41.44-13.49,76.27,5.21,76.27,5.21L2023.69,1674L2023.69,1674z"/>
	<path class="st42" d="M2035.13,1675.89l-0.18,19.38c0,0-26.82-14.77-38.02-25.53c-11.2-10.75-13.01-34.76-13.01-34.76l2.72-5.76
		L2035.13,1675.89L2035.13,1675.89z"/>
	<path class="st41" d="M1958.51,1590.05c-2.65-13.98,15.75-7.48,19.07-16.34c6.95-18.56,7.57-44.8,29.6-48.99
		c32.56-6.18,71.11,28.14,64.25,79.06c-5.88,43.66-21.12,74.04-53.99,69.83c-18.03-2.31-33.87-52.19-40.3-62
		C1970.71,1601.8,1960.34,1599.69,1958.51,1590.05L1958.51,1590.05z"/>
	<path d="M1998,1570.05l-8.05,33.25l-12.24-20c0,0-22.25-3.92-16.13,10.49c2.33,5.49,11.01,6.69,16.12,14.05
		c8.29,11.93,8.36,22.83,8.36,22.83l-17.64,35.45c0,0-90.19-40.94-49.54-132.23c1-2.26,1.62-4.65,2.99-6.51
		c25.19-34.36,50.24-27.48,99.18-28.16c57.27-0.8,66.78-8,66.78-8s14.64,58.52-22.72,68.17
		C2030.82,1568.24,1998,1570.05,1998,1570.05L1998,1570.05z"/>
	<path class="st71" d="M1967.44,1670.68l58.83,47.58l-24.71-3.17l-14.95,20.07c0,0-3.26-24.25-14-36.49
		c-10.73-12.23-12.31-18.81-12.31-18.81L1967.44,1670.68L1967.44,1670.68z"/>
	<polygon class="st71" points="2044.62,1694.61 2026.27,1718.26 2035.21,1717.25 2044.84,1727 2044.62,1694.61 	"/>
	<path d="M2015.24,1505.71c0-20.82,16.88-37.71,37.71-37.71c20.82,0,37.71,16.89,37.71,37.71c0,20.83-16.89,37.71-37.71,37.71
		C2032.12,1543.42,2015.24,1526.54,2015.24,1505.71L2015.24,1505.71z"/>
	<path class="st74" d="M2919.9,2429.03l16.09,287.44l39.05,0.73c0,0,13.49-113.9,14.55-185.13s-8.63-104.81-8.63-104.81
		L2919.9,2429.03L2919.9,2429.03z"/>
	<path class="st74" d="M2935.99,2716.47c0,0-8.49,22.01-13.56,32.81c-5.08,10.8-9.44,10.15-14.61,17.21
		c-5.78,7.89,6.54,17.04,23.61,10.34s44.68-37.14,44.68-37.14l-1.07-22.49l-19.83-13.66L2935.99,2716.47L2935.99,2716.47z"/>
	<path class="st75" d="M2976.85,2737.87c0,0,21.36,26.96,3.67,41.28c-0.86,0.7-1.38,2.22-1.77,4l-13.73,3.83
		c-1.6-3.87-3.68-6.68-6.56-6.19c-11.59,1.35-17.8,9.56-28.6,15.98c-4.42,2.63-9.52,4.99-16.19,6.41
		c-7.07,1.49-14.59,2.99-21.72,4.15c-16.04,2.62-29.91,3.27-30.82-3.45c-1.32-9.71,47.27-39.53,47.26-39.53
		c0,0,6.29,15.46,23.41,8.84C2948.91,2766.57,2976.85,2737.87,2976.85,2737.87L2976.85,2737.87z"/>
	<path class="st76" d="M2989.47,2505.91c0.18,8.1,0.26,16.75,0.12,26.16c-1.06,71.23-14.55,185.13-14.55,185.13l1.03,21.44
		l-12.73,12.1l3.97-33.69v-0.49c0,0,12.43-54.09,14.04-100.9c1.61-46.8-15.34-102.51-15.34-102.51L2989.47,2505.91L2989.47,2505.91z
		"/>
	<polygon class="st75" points="2980.52,2779.15 2963.34,2779.15 2968.74,2809.19 2976.11,2809.19 2980.52,2779.15 	"/>
	<path class="st74" d="M2985.77,2429.03l16.09,287.44l39.05,0.73c0,0,13.49-113.9,14.55-185.13c1.06-71.23-8.64-104.81-8.64-104.81
		L2985.77,2429.03L2985.77,2429.03z"/>
	<path class="st74" d="M3001.86,2716.47c0,0-8.5,22.01-13.57,32.81c-5.07,10.8-9.43,10.15-14.61,17.21
		c-5.77,7.89,6.54,17.04,23.62,10.34c17.07-6.7,44.68-37.14,44.68-37.14l-1.07-22.49l-19.83-13.66L3001.86,2716.47L3001.86,2716.47z
		"/>
	<path class="st77" d="M3042.72,2737.87c0,0,21.35,26.96,3.67,41.28c-0.87,0.7-1.39,2.22-1.77,4l-13.74,3.83
		c-1.6-3.87-3.68-6.68-6.55-6.19c-11.6,1.35-17.81,9.56-28.61,15.98c-4.41,2.63-9.52,4.99-16.19,6.41
		c-7.07,1.49-14.59,2.99-21.71,4.15c-16.05,2.62-29.92,3.27-30.83-3.45c-1.31-9.71,47.27-39.53,47.27-39.53s6.29,15.46,23.4,8.84
		C3014.78,2766.57,3042.72,2737.87,3042.72,2737.87L3042.72,2737.87z"/>
	<path class="st76" d="M3055.33,2505.91c0.19,8.1,0.27,16.75,0.13,26.16c-1.07,71.23-14.55,185.13-14.55,185.13l1.03,21.44
		l-12.74,12.1l3.98-33.69v-0.49c0,0,12.42-54.09,14.03-100.9c1.61-46.8-15.33-102.51-15.33-102.51L3055.33,2505.91L3055.33,2505.91z
		"/>
	<polygon class="st77" points="3046.39,2779.15 3029.2,2779.15 3034.61,2809.19 3041.98,2809.19 3046.39,2779.15 	"/>
	<polygon class="st51" points="3007.48,2346.85 2980.56,2665.62 2933.97,2667.44 2903.39,2348.97 3007.48,2346.85 	"/>
	<polygon class="st78" points="2855.38,1757.12 2837.43,1931.28 2816.88,1930.77 2801.03,2006.75 2866.05,2008.54 2872.26,1918.44 
		2855.38,1757.12 	"/>
	<polygon class="st46" points="3004.12,2343 2969.82,2343.69 2961.63,2666.36 2980.56,2665.62 3004.12,2343 	"/>
	<path d="M3126.27,1812.93c-26.27,79.12-3.5,84.23,10.09,130.4c42.78,145.29-177.86,81.56-177.86,81.56l155.2-259.26
		C3113.7,1765.63,3133.01,1792.64,3126.27,1812.93L3126.27,1812.93z"/>
	<polygon class="st51" points="3073.25,2346.85 3046.32,2665.62 2999.73,2667.44 2969.15,2348.97 3073.25,2346.85 	"/>
	<polygon class="st46" points="3073,2346.85 3049.27,2347.34 3031.72,2666.19 3046.32,2665.62 3073,2346.85 	"/>
	<path class="st78" d="M3033.37,1680.02l51.08,21.98c0,0-36.21,146.13-38.79,180.4c-1.63,21.59,8.72,44.15,29.24,86.84
		c12.06,25.09,34.39,56.17,41.76,100.67c19.92,120.18,8.66,293.24,8.66,293.24l-284.14,5.79l31.08-450.5l-16.88-161.32l62.9-51.19
		l11.58-23.74l79.36-17.63L3033.37,1680.02L3033.37,1680.02z"/>
	<path class="st79" d="M3050.14,1744.96c-6.21,24.75-15.91,77.67-4.48,137.45c-0.85,11.23,6.63,34.18,16.98,59.88
		c22.43,62.42,39.53,30.02,55.2,135.24c15.67,105.22,7.47,285.63,7.47,285.63l-129.14,2.62c0,0,63.83-27.15,85.19-98.78
		c21.37-71.63,12.29-163.97,8.06-198.43c-5.86-47.84-45.25-92.16-45.25-92.16l-85.67-27.85l0.25-92.39l62.4-8.3L3050.14,1744.96
		L3050.14,1744.96z"/>
	<path d="M2936.66,1494.73c0,0-58.67-10.11-69.78,59.05c-4.11,25.64,6.76,56.8,21.19,87.89c19.45,41.91,12.49,78.68,12.49,78.68
		l10.09-8.21l7.63-6.21l32.79-34.59L2936.66,1494.73L2936.66,1494.73z"/>
	<path class="st80" d="M2920.5,1652.48l20.03-2.63l4.02,12.91l-11.26,24.86l4.98,19.79l62.01-37.45l-7.95-31.74l-2.72-48.58
		l-41.31,11.13c0,0-3.97,19.04-7.4,28.1C2936.06,1641.66,2920.5,1652.48,2920.5,1652.48L2920.5,1652.48z"/>
	<path class="st80" d="M2878.8,1585.59c-4.46-36.76,9.95-64.8,31.4-64.8c21.44,0,38.83,30.02,38.83,67.04
		c0,37.03-7.09,64.65-28.53,64.65C2899.06,1652.48,2883.46,1624,2878.8,1585.59L2878.8,1585.59z"/>
	<path class="st81" d="M2927.84,1651.52l12.69-1.67l4.02,12.91l15.68-42.17c0,0-7.59,13.69-15.68,21.42
		C2936.45,1649.74,2927.84,1651.52,2927.84,1651.52L2927.84,1651.52z"/>
	<path d="M2936.66,1494.73l-26.46,26.06c0,0,32.83,40.93,38.1,79.98c1.3,9.58,10.81,16.41,20.85,28.06
		c14.18,16.45,10.46,53.61,10.46,53.61l29.61-17.88l24.15,15.46l38.94,16.76c0,0-19.8-110.14-54.9-175.99
		C2995.22,1479.18,2936.66,1494.73,2936.66,1494.73L2936.66,1494.73z"/>
	<polygon class="st50" points="3022.7,1673.19 3009.22,1664.56 2938.27,1707.41 2929.73,1732.88 2974.15,1706.81 2994.25,1729.94 
		3022.7,1673.19 	"/>
	<polygon class="st50" points="2933.29,1687.62 2938.27,1707.41 2929.73,1732.88 2925.87,1705.51 2915.63,1729.94 2910.55,1712.22 
		2918.28,1705.93 2933.29,1687.62 	"/>
	<polygon class="st79" points="2854.5,1765.63 2863.14,1919.25 2854.8,1982.78 2816.69,2007.18 2866.05,2008.54 2872.26,1918.44 
		2854.5,1765.63 	"/>
	<path class="st78" d="M3125.32,1753.56c-19.2-68.62-57.48-58.22-70.96-23.62c-13.29,34.12-16.36,134.13-16.36,134.13l-79.25-7.9
		l-0.26,92.4c0,0,107.31,11.61,129-5.83C3105.71,1928.1,3140.77,1808.78,3125.32,1753.56L3125.32,1753.56z"/>
	<path class="st80" d="M2958.74,1862.3l-150.64-39.41l-57.23,12.96c0,0,2.53,6.88,11.21,8.27c8.69,1.38,23.54-2.72,23.54-2.72
		l-3.83,13.51l40.8,25.93l7.66-2.74l-8.13-7.19l45.01-1.54l91.44,49.88L2958.74,1862.3L2958.74,1862.3z"/>
	<polygon class="st82" points="2822.59,1880.84 2705.13,1807.72 2628.02,1820.81 2622.31,1826.07 2736.65,1898.7 2816.88,1886.1 
		2822.59,1880.84 	"/>
	<polygon class="st51" points="2816.88,1886.1 2699.42,1812.98 2622.31,1826.07 2730.94,1903.96 2816.88,1886.1 	"/>
	<path class="st80" d="M2816.88,1930.77l-27.58-11.73l-10.45-20.98l2.16-15.23c0,0-0.86-6.51-3.31-8.03
		c-2.45-1.52-6.49,1.96-6.49,1.96l-12.59,21.03l-8.05-1.03l1.28-20.51c0,0-1.11-9.65-5.33-13.89c-4.22-4.24-11.55-3.07-11.55-3.07
		l-0.27,28.18l-8.82-11.88l-4.43-14.02c0,0-1.24-7.8-5.69-11.72c-4.44-3.91-12.09-3.95-12.09-3.95l6.21,27.15
		c0,0-21.41-20.85-32.34-26.46c-10.92-5.62-11.36,3.99-11.36,3.99l52.76,55.83l42.88,31.74l13.53,18.22l32.31,18.59L2816.88,1930.77
		L2816.88,1930.77z"/>
</g>
</svg>
