<?xml version="1.0" standalone="no"?>
<!DOCTYPE svg PUBLIC "-//W3C//DTD SVG 20010904//EN"
 "http://www.w3.org/TR/2001/REC-SVG-20010904/DTD/svg10.dtd">
<svg version="1.0" xmlns="http://www.w3.org/2000/svg"
 width="225.000000pt" height="225.000000pt" viewBox="0 0 225.000000 225.000000"
 preserveAspectRatio="xMidYMid meet">

<g transform="translate(0.000000,225.000000) scale(0.100000,-0.100000)" stroke="none">
<path d="M253 1865 c-65 -28 -63 -4 -63 -740 0 -739 -2 -713 65 -741 51 -21
1689 -21 1740 0 67 28 65 2 65 741 0 739 2 713 -65 741 -50 21 -1694 20 -1742
-1z m1746 -61 c21 -26 21 -34 21 -679 0 -645 0 -653 -21 -679 l-20 -26 -854 0
-854 0 -20 26 c-21 26 -21 34 -21 679 0 645 0 653 21 679 l20 26 854 0 854 0
20 -26z"/>
<path d="M402 1674 l-22 -15 0 -534 0 -534 22 -15 c20 -14 105 -16 723 -16
618 0 703 2 723 16 l22 15 0 534 0 534 -22 15 c-20 14 -105 16 -723 16 -618 0
-703 -2 -723 -16z m1416 -36 c9 -9 12 -137 12 -514 0 -556 4 -528 -67 -522
-38 3 -38 3 -43 53 l-5 50 -170 0 -170 0 -3 -52 -3 -53 -463 0 c-346 0 -465 3
-474 12 -17 17 -17 1009 0 1026 17 17 1369 17 1386 0z m-138 -1008 l0 -31
-132 3 -133 3 -3 28 -3 27 135 0 136 0 0 -30z"/>
<path d="M1085 1413 c-64 -17 -111 -89 -102 -155 19 -138 194 -175 267 -56 36
60 18 147 -40 188 -29 20 -92 32 -125 23z m103 -68 c54 -45 45 -128 -19 -160
-27 -14 -39 -15 -70 -6 -48 15 -69 44 -69 97 0 82 94 123 158 69z"/>
<path d="M692 1277 c-49 -28 -70 -89 -48 -142 16 -38 68 -75 106 -75 32 0 85
32 101 61 16 31 13 93 -6 122 -29 44 -104 61 -153 34z m102 -48 c50 -40 21
-119 -44 -119 -65 0 -94 79 -44 119 15 12 34 21 44 21 10 0 29 -9 44 -21z"/>
<path d="M1442 1277 c-49 -28 -70 -89 -48 -142 16 -38 68 -75 106 -75 39 0 90
37 106 76 15 35 13 58 -9 102 -23 46 -104 67 -155 39z m102 -48 c50 -40 21
-119 -44 -119 -65 0 -94 79 -44 119 15 12 34 21 44 21 10 0 29 -9 44 -21z"/>
<path d="M995 1071 c-17 -4 -44 -16 -60 -27 -26 -17 -44 -18 -161 -15 -106 2
-137 0 -163 -13 -48 -25 -63 -55 -59 -123 l3 -58 570 0 570 0 3 58 c4 68 -11
98 -59 123 -26 13 -57 15 -163 13 -125 -4 -133 -3 -171 21 -35 22 -52 24 -160
27 -66 1 -134 -1 -150 -6z m290 -63 c29 -23 55 -74 55 -108 0 -19 -6 -20 -215
-20 l-215 0 0 25 c0 35 24 79 56 104 24 19 40 21 159 21 121 0 135 -2 160 -22z
m-413 -28 c3 -3 3 -26 0 -52 l-4 -48 -139 0 -139 0 0 26 c0 34 17 63 43 74 22
10 232 9 239 0z m747 -5 c31 -15 41 -33 41 -71 l0 -24 -140 0 -140 0 0 34 c0
19 -3 41 -6 49 -7 20 12 24 124 26 64 1 102 -4 121 -14z"/>
</g>
</svg>
