<?xml version="1.0" standalone="no"?>
<!DOCTYPE svg PUBLIC "-//W3C//DTD SVG 20010904//EN"
 "http://www.w3.org/TR/2001/REC-SVG-20010904/DTD/svg10.dtd">
<svg version="1.0" xmlns="http://www.w3.org/2000/svg"
 width="195.000000pt" height="166.000000pt" viewBox="0 0 195.000000 166.000000"
 preserveAspectRatio="xMidYMid meet">

<g transform="translate(0.000000,166.000000) scale(0.100000,-0.100000)"
 stroke="none">
<path d="M266 1588 c-9 -12 -16 -30 -16 -40 0 -15 -9 -18 -63 -18 -58 0 -66
-3 -93 -31 l-29 -30 0 -539 0 -540 28 -27 27 -28 253 -5 252 -5 3 -117 3 -117
-93 -3 c-75 -2 -93 -6 -93 -18 0 -13 87 -15 725 -15 l725 0 3 134 c4 185 -21
264 -109 348 -40 38 -133 83 -171 83 -27 0 -28 1 -28 59 0 45 6 72 25 107 34
64 34 133 0 201 -23 45 -25 61 -23 140 l3 88 115 2 c198 5 190 -4 190 202 0
140 -2 160 -18 174 -16 15 -48 17 -244 17 -241 0 -244 -1 -251 -51 l-4 -24
-361 -3 c-342 -2 -362 -1 -362 16 0 9 -7 28 -16 40 -15 21 -21 22 -189 22
-168 0 -174 -1 -189 -22z m1584 -168 l0 -150 -131 0 -131 0 -30 -30 c-36 -36
-38 -37 -38 -6 0 26 -16 36 -61 36 l-29 0 0 150 0 150 210 0 210 0 0 -150z
m-1240 35 l0 -105 -25 0 c-14 0 -30 -9 -37 -19 -12 -19 -12 -19 -36 0 -20 16
-41 19 -118 19 l-94 0 0 105 0 105 155 0 155 0 0 -105z m-360 -38 c0 -110 8
-117 129 -117 95 0 98 -1 126 -30 37 -38 69 -37 73 3 3 21 9 27 27 27 39 0 55
35 55 117 l0 73 359 0 359 0 4 -116 c3 -108 5 -117 27 -135 13 -10 34 -19 47
-19 20 0 24 -5 24 -29 0 -32 22 -56 45 -47 12 4 15 -3 15 -35 0 -35 -2 -40
-17 -34 -10 5 -45 10 -78 12 -50 4 -68 0 -105 -19 -67 -36 -103 -94 -108 -171
-4 -78 24 -138 87 -182 37 -26 51 -30 109 -30 37 0 77 4 90 8 20 8 22 5 22
-26 l0 -35 -152 -4 c-140 -4 -158 -6 -212 -31 l-58 -27 -504 0 -504 0 0 444 0
445 22 15 c13 9 43 16 70 16 l48 0 0 -73z m1243 -381 c18 -7 47 -29 64 -49 60
-68 54 -157 -16 -220 -69 -62 -161 -58 -224 12 -60 67 -58 157 6 219 51 50
111 63 170 38z m207 -492 c61 -34 121 -105 139 -164 6 -20 11 -94 11 -164 l0
-126 -70 0 -70 0 0 110 c0 103 -1 110 -20 110 -19 0 -20 -7 -20 -110 l0 -110
-235 0 -235 0 0 110 c0 103 -1 110 -20 110 -19 0 -20 -7 -20 -110 l0 -110 -70
0 -70 0 0 133 c0 111 4 139 21 177 28 61 62 104 105 131 74 45 98 49 304 46
l195 -2 55 -31z m-640 -22 c0 -2 -9 -17 -20 -33 -12 -15 -30 -49 -41 -74 l-20
-45 -412 0 c-483 0 -457 -5 -457 93 l0 62 475 0 c261 0 475 -2 475 -3z m-90
-312 l0 -120 -150 0 -150 0 0 113 c0 63 3 117 7 120 3 4 71 7 150 7 l143 0 0
-120z"/>
<path d="M758 1344 c-78 -42 -76 -178 2 -219 88 -45 190 13 190 110 0 97 -105
157 -192 109z m118 -48 c56 -47 20 -146 -52 -146 -34 0 -84 51 -84 85 0 34 50
85 84 85 14 0 37 -11 52 -24z"/>
<path d="M640 1031 c-49 -26 -89 -69 -111 -116 -25 -55 -28 -250 -3 -259 20
-8 578 -8 598 0 13 5 16 24 16 103 0 119 -11 162 -57 212 -64 71 -91 79 -260
79 -124 -1 -154 -4 -183 -19z m346 -40 c40 -18 84 -65 98 -105 4 -11 9 -57 13
-103 l6 -84 -44 3 -44 3 0 62 c0 61 -13 92 -34 79 -6 -4 -11 -37 -11 -77 l0
-69 -145 0 -145 0 0 70 c0 56 -3 72 -16 77 -24 9 -34 -15 -34 -84 l0 -63 -40
0 -40 0 0 68 c0 120 34 187 115 223 58 27 262 27 321 0z"/>
</g>
</svg>
