<?xml version="1.0" standalone="no"?>
<!DOCTYPE svg PUBLIC "-//W3C//DTD SVG 20010904//EN"
 "http://www.w3.org/TR/2001/REC-SVG-20010904/DTD/svg10.dtd">
<svg version="1.0" xmlns="http://www.w3.org/2000/svg"
 width="980.000000pt" height="980.000000pt" viewBox="0 0 980.000000 980.000000"
 preserveAspectRatio="xMidYMid meet">

<g transform="translate(0.000000,980.000000) scale(0.100000,-0.100000)" stroke="none">
<path d="M1577 8399 c-55 -13 -90 -33 -124 -73 -61 -69 -58 19 -58 -1556 0
-1390 1 -1446 19 -1480 10 -19 34 -52 54 -72 70 -73 -36 -69 1573 -66 l1446 3
49 30 c30 19 60 49 79 79 l30 49 3 1445 c1 999 -1 1456 -8 1484 -13 48 -69
112 -124 141 l-41 22 -1430 2 c-818 0 -1446 -3 -1468 -8z m2610 -1621 l-2
-1163 -1162 -2 -1163 -3 0 1165 0 1165 1165 0 1165 0 -3 -1162z"/>
<path d="M5335 8401 c-45 -11 -76 -29 -117 -69 -73 -69 -69 36 -66 -1573 l3
-1446 30 -49 c19 -30 49 -60 79 -79 l49 -30 1446 -3 c1609 -3 1503 -7 1573 66
20 20 44 53 54 72 18 34 19 91 19 1490 0 1400 -1 1456 -19 1490 -26 49 -64 88
-111 113 l-40 22 -1435 2 c-789 0 -1448 -2 -1465 -6z m2603 -1623 l-3 -1163
-1160 0 -1160 0 -3 1163 -2 1162 1165 0 1165 0 -2 -1162z"/>
<path d="M1545 4634 c-53 -20 -111 -78 -132 -133 -17 -43 -18 -136 -18 -1491
l0 -1445 22 -40 c25 -47 64 -85 113 -111 34 -18 90 -19 1490 -19 1399 0 1456
1 1490 19 19 10 52 34 72 54 73 70 69 -36 66 1573 l-3 1446 -30 49 c-19 30
-49 60 -79 79 l-49 30 -1451 2 c-1254 1 -1456 0 -1491 -13z m2640 -1609 l0
-1160 -1162 -3 -1163 -2 0 1158 c0 637 3 1162 7 1165 3 4 526 6 1162 4 l1156
-2 0 -1160z"/>
<path d="M5309 4636 c-56 -20 -96 -53 -126 -104 l-28 -47 -3 -1445 c-3 -1595
-6 -1501 60 -1569 18 -18 50 -42 72 -54 l41 -22 1455 0 1455 0 40 22 c47 25
85 64 111 113 18 34 19 90 19 1490 l0 1455 -22 41 c-12 22 -36 54 -54 72 -67
66 26 62 -1553 62 -1143 -1 -1438 -3 -1467 -14z m2631 -1611 l0 -1165 -1165 0
-1165 0 0 1158 c0 637 3 1162 7 1165 3 4 527 7 1165 7 l1158 0 0 -1165z"/>
</g>
</svg>
