<?xml version="1.0" standalone="no"?>
<!DOCTYPE svg PUBLIC "-//W3C//DTD SVG 20010904//EN"
 "http://www.w3.org/TR/2001/REC-SVG-20010904/DTD/svg10.dtd">
<svg version="1.0" xmlns="http://www.w3.org/2000/svg"
 width="512.000000pt" height="512.000000pt" viewBox="0 0 512.000000 512.000000"
 preserveAspectRatio="xMidYMid meet">

<g transform="translate(0.000000,512.000000) scale(0.100000,-0.100000)" stroke="none">
<path d="M1145 4120 c-346 -70 -656 -133 -688 -140 -68 -14 -97 -38 -97 -79 0
-61 11 -66 345 -136 171 -35 319 -67 330 -69 20 -5 20 -11 15 -300 l-5 -295
-42 -30 c-24 -17 -55 -50 -70 -73 -28 -41 -28 -44 -31 -221 -3 -149 -1 -187
13 -223 21 -55 90 -117 159 -143 l51 -19 12 -98 c7 -55 24 -146 39 -202 l26
-104 -92 -137 -91 -138 -158 -6 c-241 -10 -375 -44 -516 -132 -70 -43 -177
-143 -216 -200 -69 -102 -116 -236 -125 -360 -7 -80 -6 -84 19 -109 53 -53
127 -15 127 66 1 132 60 276 155 376 141 149 324 212 615 212 l105 0 370 -260
c204 -143 380 -263 393 -266 13 -4 33 -2 46 4 12 5 186 125 386 267 l365 257
160 -5 c263 -9 407 -60 540 -191 105 -103 156 -214 171 -368 5 -53 12 -79 27
-96 25 -27 67 -29 98 -3 22 18 24 27 22 98 0 43 -8 105 -17 138 -8 33 -12 62
-8 66 22 18 481 338 502 349 37 20 302 7 405 -19 273 -70 437 -256 464 -527 7
-73 13 -91 31 -106 30 -25 72 -23 97 4 29 33 31 45 21 128 -31 259 -153 447
-369 568 -125 71 -255 101 -476 109 l-161 6 -74 105 c-125 180 -114 152 -89
235 27 91 51 228 51 290 0 37 4 49 18 53 89 28 164 81 191 138 19 39 21 61 21
253 0 198 -1 212 -23 252 -20 40 -61 71 -109 85 -17 5 -18 27 -18 286 0 154 3
280 8 280 7 0 373 74 420 85 l22 5 0 -288 0 -288 -75 -333 c-41 -183 -75 -340
-75 -348 0 -7 11 -25 25 -38 24 -25 26 -25 205 -25 167 0 181 1 200 20 11 11
20 33 20 50 0 17 -34 182 -75 367 l-75 337 0 286 0 286 62 19 c69 22 87 47 74
98 -8 33 -32 46 -115 63 -89 18 -1072 209 -1241 241 l-135 26 -335 -67 c-184
-37 -346 -72 -360 -77 -19 -7 -119 9 -410 66 -211 41 -393 75 -405 74 -11 0
-303 -58 -650 -129z m1142 -115 c269 -52 499 -98 513 -101 30 -8 69 1 -539
-123 l-454 -93 -441 93 c-488 102 -553 116 -546 118 3 1 223 46 490 100 267
55 486 99 487 100 2 1 222 -42 490 -94z m1518 -2 c275 -53 503 -99 508 -103 4
-3 -220 -53 -498 -109 -484 -98 -507 -102 -563 -91 -95 19 -92 17 -92 65 l0
43 50 12 c52 13 90 47 90 81 0 10 -10 30 -22 44 -20 22 -44 30 -168 54 -80 16
-143 30 -140 30 4 2 283 61 330 70 3 1 230 -42 505 -96z m-795 -502 l0 -279
-75 -333 c-41 -183 -75 -344 -75 -358 0 -13 10 -35 22 -48 21 -22 26 -23 200
-23 177 0 179 0 203 25 14 13 25 31 25 40 0 14 -115 540 -126 578 -5 16 6 17
146 17 83 0 194 5 248 10 94 10 285 44 316 56 14 5 16 -5 16 -69 0 -96 20
-124 95 -135 l50 -7 3 -184 c2 -132 -1 -187 -10 -198 -18 -23 -82 -52 -129
-59 -61 -10 -76 -30 -83 -111 -14 -159 -28 -246 -53 -330 -44 -146 -47 -130
62 -287 53 -76 98 -143 101 -150 3 -9 -403 -303 -434 -314 -6 -2 -24 17 -41
41 -16 24 -63 75 -103 112 -80 74 -225 152 -335 180 -77 19 -228 34 -349 35
l-90 0 -93 136 c-67 97 -92 142 -88 157 2 12 14 58 25 102 12 44 27 127 34
184 l13 103 51 19 c65 24 132 82 155 133 16 35 19 68 19 226 0 256 -12 293
-103 339 l-47 23 0 278 0 277 103 22 c225 47 332 69 340 70 4 1 7 -125 7 -278z
m-1494 94 c144 -30 274 -55 290 -55 16 0 151 25 299 55 149 31 277 57 285 58
13 2 15 -21 15 -153 l0 -155 -70 -17 c-167 -41 -283 -52 -535 -52 -247 0 -377
14 -545 56 l-50 13 -3 145 c-1 79 0 150 2 157 4 8 14 11 28 8 13 -3 141 -30
284 -60z m2394 -93 l0 -159 -97 -21 c-167 -37 -222 -43 -440 -49 l-213 -6 0
150 0 149 76 -15 75 -16 297 62 c163 34 298 62 300 62 1 1 2 -70 2 -157z
m-2381 -371 c126 -14 426 -14 546 -1 90 10 292 46 320 56 13 5 15 -6 15 -71 0
-42 4 -85 10 -95 11 -20 60 -40 100 -40 16 0 30 -7 34 -16 3 -9 6 -93 6 -188
0 -152 -2 -175 -17 -188 -31 -27 -81 -48 -128 -55 -63 -8 -85 -37 -85 -114 0
-31 -5 -93 -11 -136 -43 -318 -180 -550 -369 -625 -76 -30 -213 -30 -287 -1
-143 57 -248 187 -319 395 -31 90 -64 279 -64 363 0 82 -20 110 -88 119 -27 3
-69 19 -95 36 l-47 30 0 150 c0 86 5 160 10 171 6 11 36 33 66 50 30 17 59 39
64 49 6 10 10 50 10 88 0 38 2 71 5 73 2 3 53 -5 113 -17 60 -12 155 -27 211
-33z m1581 -381 c11 -52 22 -105 25 -117 5 -22 2 -23 -50 -23 -30 0 -55 4 -55
10 0 8 15 76 46 209 3 13 7 22 9 19 2 -2 13 -46 25 -98z m1508 -20 c12 -58 22
-108 22 -112 0 -5 -25 -8 -56 -8 -41 0 -55 3 -51 13 2 6 15 61 27 120 13 59
26 104 30 100 4 -5 17 -55 28 -113z m-3261 -1018 c248 -326 706 -301 938 51
21 32 41 54 45 50 4 -4 30 -43 59 -85 l51 -77 -33 -24 c-85 -64 -606 -427
-611 -427 -5 0 -614 422 -645 447 -2 1 22 42 54 90 57 86 58 87 74 65 9 -13
39 -53 68 -90z"/>
</g>
</svg>
