<?xml version="1.0" encoding="utf-8"?>
<!-- Generator: Adobe Illustrator 24.3.0, SVG Export Plug-In . SVG Version: 6.00 Build 0)  -->
<svg version="1.1" id="Layer_1" xmlns="http://www.w3.org/2000/svg" xmlns:xlink="http://www.w3.org/1999/xlink" x="0px" y="0px"
	 viewBox="0 0 2200 2200" style="enable-background:new 0 0 2200 2200;" xml:space="preserve">
<style type="text/css">
	.st0{fill:#51AA4D;}
	.st1{fill:#C93232;}
	.st2{fill:#E0BA00;}
	.st3{fill:#FFFFFF;}
</style>
<g>
	<path class="st0" d="M1100,1997.2c-239.7,0-465-93.3-634.4-262.8C296.1,1565,202.8,1339.7,202.8,1100c0-239.7,93.3-465,262.8-634.4
		S860.3,202.8,1100,202.8c103.2,0,204.4,17.4,300.8,51.7c48.4,17.2,73.6,70.3,56.4,118.7c-17.2,48.4-70.3,73.6-118.7,56.4
		c-76.4-27.2-156.6-40.9-238.5-40.9c-392.3,0-711.4,319.1-711.4,711.4s319.1,711.4,711.4,711.4s711.4-319.1,711.4-711.4
		c0-63.6-8.4-126.6-24.9-187.3c-13.5-49.5,15.8-100.6,65.3-114.1c49.5-13.5,100.6,15.8,114.1,65.3c20.8,76.6,31.4,156,31.4,236.1
		c0,239.7-93.3,465-262.8,634.4S1339.7,1997.2,1100,1997.2z"/>
	<path class="st0" d="M1970,425.4c-265.4,291.5-514.6,635.7-709.9,981.1c-40.7,72.1-118.2,115.5-200.9,112c-0.7,0-1.5-0.1-2.2-0.1
		c-80.4-3.2-152.7-50.2-188-122.5c-62.1-127.2-151.3-262.2-230.8-375.8c-29.2-41.7-15.3-99.3,29.4-123.6c0.9-0.5,1.8-1,2.8-1.5
		c109.6-59.2,246.5-22.8,312.5,82.8c23.9,38.3,46.7,77.4,68.2,117.1c182.5-253.6,388.1-488.7,612.7-700.7
		c75.1-70.9,179.2-96.3,275.1-72.7C1985.2,333,2002.1,390.1,1970,425.4z"/>
</g>
</svg>
