<?xml version="1.0" standalone="no"?>
<!DOCTYPE svg PUBLIC "-//W3C//DTD SVG 20010904//EN"
 "http://www.w3.org/TR/2001/REC-SVG-20010904/DTD/svg10.dtd">
<svg version="1.0" xmlns="http://www.w3.org/2000/svg"
 width="201.000000pt" height="191.000000pt" viewBox="0 0 201.000000 191.000000"
 preserveAspectRatio="xMidYMid meet">

<g transform="translate(0.000000,191.000000) scale(0.100000,-0.100000)" stroke="none">
<path d="M477 1833 c-4 -3 -7 -15 -7 -25 0 -13 7 -18 25 -18 l25 0 0 -270 c0
-263 0 -270 20 -270 20 0 20 7 20 270 l0 270 645 0 645 0 -2 -352 -3 -353
-574 -2 c-341 -2 -578 -6 -584 -12 -5 -5 -6 -14 -3 -20 9 -15 1252 -16 1261
-1 8 14 -7 35 -25 35 -13 0 -15 47 -18 352 l-2 352 22 3 c15 2 23 10 23 23 0
20 -8 20 -731 23 -402 1 -734 -1 -737 -5z"/>
<path d="M680 1700 c0 -20 7 -20 530 -20 523 0 530 0 530 20 0 20 -7 20 -530
20 -523 0 -530 0 -530 -20z"/>
<path d="M1284 1575 c-7 -18 3 -35 21 -35 18 0 26 25 12 39 -15 15 -27 14 -33
-4z"/>
<path d="M1384 1575 c-4 -9 -2 -21 4 -27 15 -15 44 -1 40 19 -4 23 -36 29 -44
8z"/>
<path d="M1490 1566 c0 -20 5 -26 21 -26 15 0 20 5 17 22 -5 34 -38 37 -38 4z"/>
<path d="M1594 1575 c-7 -18 3 -35 22 -35 8 0 14 10 14 25 0 27 -27 35 -36 10z"/>
<path d="M1694 1575 c-4 -9 -2 -21 4 -27 15 -15 44 -1 40 19 -4 23 -36 29 -44
8z"/>
<path d="M908 1483 c-86 -86 -87 -87 -108 -68 -11 10 -22 16 -25 14 -2 -2 -51
-50 -108 -106 l-105 -103 -89 0 -90 0 -34 -65 c-18 -36 -38 -65 -44 -65 -5 0
-26 29 -44 65 -33 62 -37 65 -72 65 -41 0 -91 -30 -123 -73 -20 -27 -21 -43
-24 -273 l-3 -244 40 0 41 0 -7 -300 -6 -300 76 0 c67 0 77 2 77 18 0 9 9 85
20 167 11 83 20 154 20 159 0 5 2 7 5 4 5 -5 45 -303 45 -336 0 -10 19 -12 78
-10 l77 3 -3 55 c-13 283 -21 893 -12 910 8 15 21 20 53 20 42 0 46 4 195 152
137 137 150 153 137 168 -8 9 -15 21 -15 26 0 5 37 45 81 90 57 57 80 87 76
98 -4 9 -10 16 -14 16 -5 0 -47 -39 -95 -87z m-106 -130 c10 -9 18 -21 18 -27
0 -6 -55 -66 -122 -133 -111 -111 -126 -123 -158 -123 -42 0 -75 -20 -94 -59
-12 -23 -13 -64 -6 -247 5 -120 10 -325 12 -454 l3 -235 -30 0 -30 0 -17 125
c-9 69 -24 187 -34 263 -12 98 -21 140 -31 144 -8 3 -18 2 -23 -3 -9 -9 -26
-132 -55 -393 -8 -68 -18 -128 -23 -133 -5 -5 -20 -8 -33 -6 -24 3 -24 5 -24
108 0 58 4 243 9 413 l9 307 -22 0 c-18 0 -21 -6 -21 -42 0 -24 -3 -73 -7
-110 -5 -57 -9 -68 -24 -68 -18 0 -19 12 -19 196 0 162 3 202 17 231 15 33 64
73 88 73 6 0 28 -32 49 -71 37 -68 39 -70 73 -67 33 3 38 8 70 71 l34 67 87 0
87 0 95 95 c52 52 97 95 99 95 2 0 13 -7 23 -17z"/>
<path d="M253 1456 c-36 -17 -73 -69 -73 -104 0 -57 64 -122 120 -122 39 0 90
37 107 77 39 94 -61 190 -154 149z m94 -58 c46 -43 16 -118 -47 -118 -38 0
-70 32 -70 70 0 62 71 92 117 48z"/>
<path d="M1170 1351 c0 -10 7 -22 16 -25 20 -8 518 -8 538 0 9 3 16 15 16 25
0 18 -12 19 -285 19 -273 0 -285 -1 -285 -19z"/>
<path d="M960 1230 c0 -20 7 -20 390 -20 383 0 390 0 390 20 0 20 -7 20 -390
20 -383 0 -390 0 -390 -20z"/>
<path d="M1200 613 c-43 -22 -80 -76 -80 -115 0 -76 61 -138 135 -138 103 0
168 111 115 197 -38 63 -110 86 -170 56z m115 -58 c38 -37 35 -95 -6 -129 -17
-14 -41 -26 -54 -26 -13 0 -37 12 -54 26 -25 21 -31 33 -31 65 0 79 91 119
145 64z"/>
<path d="M732 532 c-58 -55 -48 -150 20 -192 43 -26 87 -25 129 3 63 42 70
129 16 187 -25 26 -36 30 -82 30 -44 0 -58 -5 -83 -28z m132 -33 c54 -42 21
-129 -49 -129 -46 0 -75 29 -75 74 0 39 37 76 75 76 12 0 34 -9 49 -21z"/>
<path d="M1611 525 c-25 -29 -31 -44 -31 -83 0 -54 18 -85 60 -107 40 -21 79
-19 118 5 68 42 78 137 20 192 -25 23 -39 28 -83 28 -48 0 -56 -3 -84 -35z
m136 -27 c49 -46 18 -128 -49 -128 -69 0 -102 77 -53 125 30 31 71 32 102 3z"/>
<path d="M1096 330 c-26 -10 -57 -27 -67 -36 -18 -16 -22 -16 -56 -1 -79 33
-77 34 -118 -39 -43 -76 -42 -76 -91 19 -13 26 -30 47 -37 47 -26 0 -116 -50
-131 -72 -18 -27 -39 -189 -26 -202 22 -23 37 4 43 79 4 42 12 85 17 96 11 19
69 50 82 43 3 -2 20 -29 37 -59 28 -50 34 -55 65 -55 31 0 38 5 66 55 17 30
34 56 38 58 4 2 22 -2 40 -10 l34 -14 -8 -99 c-6 -96 -6 -100 13 -100 17 0 21
9 27 53 3 28 6 67 6 85 0 53 25 90 70 103 47 14 47 14 88 -61 27 -49 34 -55
65 -58 34 -3 37 -1 72 62 39 70 44 72 94 55 43 -15 58 -48 66 -151 7 -79 9
-88 28 -88 19 0 20 4 14 99 l-7 99 30 12 c41 17 55 9 85 -50 24 -47 28 -50 63
-50 36 0 40 3 62 50 30 65 38 70 77 54 43 -18 53 -40 61 -132 6 -68 9 -77 27
-77 18 0 20 6 17 70 -4 86 -16 126 -45 152 -20 18 -96 53 -116 53 -5 0 -24
-29 -42 -65 -19 -36 -38 -64 -42 -62 -5 1 -24 29 -42 62 -37 66 -47 70 -118
38 -35 -15 -38 -15 -56 1 -18 16 -111 56 -130 56 -5 0 -27 -31 -47 -70 -21
-38 -43 -70 -49 -70 -6 0 -28 32 -49 70 -20 39 -43 70 -49 70 -7 -1 -34 -9
-61 -20z"/>
<path d="M1076 98 c-7 -44 3 -64 28 -55 11 5 16 20 16 52 0 37 -3 45 -19 45
-14 0 -20 -10 -25 -42z"/>
<path d="M1390 103 c0 -46 13 -68 34 -60 29 11 16 97 -15 97 -15 0 -19 -7 -19
-37z"/>
<path d="M650 85 c0 -37 3 -45 19 -45 14 0 21 10 25 35 8 42 2 55 -25 55 -16
0 -19 -7 -19 -45z"/>
<path d="M1815 120 c-3 -5 -3 -26 1 -45 10 -53 38 -44 42 13 3 36 0 42 -17 42
-11 0 -23 -4 -26 -10z"/>
</g>
</svg>
