<?xml version="1.0" encoding="utf-8"?>
<!-- Generator: Adobe Illustrator 24.3.0, SVG Export Plug-In . SVG Version: 6.00 Build 0)  -->
<svg version="1.1" id="Layer_1" xmlns="http://www.w3.org/2000/svg" xmlns:xlink="http://www.w3.org/1999/xlink" x="0px" y="0px"
	 viewBox="0 0 2200 2200" style="enable-background:new 0 0 2200 2200;" xml:space="preserve">
<style type="text/css">
	.st0{fill:#51AA4D;}
	.st1{fill:#C93232;}
	.st2{fill:#E0BA00;}
	.st3{fill:#FFFFFF;}
</style>
<g>
	<path class="st2" d="M1612.4,1475.2h-1020c-34.7,0-55.9-38.6-37.9-68.8l510-851.6c17.3-28.9,58.5-28.9,75.8,0l510,851.6
		C1668.4,1436.6,1647.1,1475.2,1612.4,1475.2z"/>
	<path class="st3" d="M767.1,1305.9l311-519.3c11-18.4,37.7-18.4,48.8,0l311,519.3c11.3,18.9-2.3,43-24.4,43H791.5
		C769.4,1348.9,755.7,1324.8,767.1,1305.9z"/>
	<ellipse class="st2" cx="1102.4" cy="1243.4" rx="33.9" ry="34.5"/>
	<path class="st2" d="M1107.2,1188.5c0,0,46.8-126.7,46.8-190.4c0-29-23.1-52.5-51.6-52.5c-28.5,0-51.6,23.5-51.6,52.5
		c0,63.7,46.8,190.4,46.8,190.4H1107.2z"/>
</g>
<path class="st2" d="M1102.4,2040.3c-239.7,0-465-93.3-634.4-262.8s-262.8-394.8-262.8-634.4c0-239.7,93.3-465,262.8-634.4
	c169.5-169.5,394.8-262.8,634.4-262.8c103.2,0,204.4,17.4,300.8,51.7c48.4,17.2,73.6,70.3,56.4,118.7
	c-17.2,48.4-70.3,73.6-118.7,56.4c-76.4-27.2-156.6-40.9-238.5-40.9c-392.3,0-711.4,319.1-711.4,711.4s319.1,711.4,711.4,711.4
	s711.4-319.1,711.4-711.4c0-63.6-8.4-126.6-24.9-187.3c-13.5-49.5,15.8-100.6,65.3-114.1c49.5-13.5,100.6,15.8,114.1,65.3
	c20.8,76.6,31.4,156,31.4,236.1c0,239.7-93.3,465-262.8,634.4C1567.4,1947,1342.1,2040.3,1102.4,2040.3z"/>
</svg>
