<?xml version="1.0" standalone="no"?>
<!DOCTYPE svg PUBLIC "-//W3C//DTD SVG 20010904//EN"
 "http://www.w3.org/TR/2001/REC-SVG-20010904/DTD/svg10.dtd">
<svg version="1.0" xmlns="http://www.w3.org/2000/svg"
 width="512.000000pt" height="512.000000pt" viewBox="0 0 512.000000 512.000000"
 preserveAspectRatio="xMidYMid meet">

<g transform="translate(0.000000,512.000000) scale(0.100000,-0.100000)"
fill="#000000" stroke="none">
<path d="M665 5046 c-96 -30 -172 -96 -214 -186 l-26 -55 0 -2015 0 -2015 26
-56 c48 -101 148 -178 254 -194 50 -8 88 17 88 58 0 33 -29 67 -55 67 -58 0
-139 59 -169 125 -18 39 -19 114 -19 2015 0 1889 1 1977 19 2015 22 50 79 101
128 115 27 8 502 10 1629 8 l1591 -3 48 -30 c78 -48 97 -95 104 -263 6 -136 6
-136 33 -152 25 -13 31 -13 55 0 l28 16 3 146 c2 127 0 153 -18 201 -29 77
-87 140 -168 179 l-67 33 -1615 2 c-1283 1 -1623 -1 -1655 -11z"/>
<path d="M1186 4579 c-114 -39 -192 -114 -238 -227 l-23 -57 -3 -1905 c-1
-1133 1 -1937 7 -1983 17 -144 92 -250 219 -310 l67 -32 1600 0 1600 0 57 27
c80 37 152 107 191 187 l32 66 3 1674 2 1675 -453 453 -452 453 -1275 0
c-1256 -1 -1276 -1 -1334 -21z m2514 -469 c0 -302 3 -367 15 -397 21 -50 42
-72 90 -94 36 -17 72 -19 403 -19 l362 0 0 -1602 c-1 -1313 -3 -1610 -14
-1641 -20 -55 -61 -103 -114 -134 l-47 -28 -1565 -3 c-1753 -3 -1611 -9 -1696
70 -86 80 -79 -115 -79 2068 0 1848 1 1937 18 1982 21 55 97 129 149 145 22 8
421 11 1256 12 l1222 1 0 -360z m469 -378 c-271 -2 -304 -1 -321 14 -17 16
-18 38 -18 323 l0 306 320 -320 320 -320 -301 -3z"/>
<path d="M1406 4205 c-37 -37 -22 -98 27 -110 12 -3 309 -4 660 -3 619 3 639
4 653 22 19 27 18 70 -4 89 -17 15 -78 17 -670 17 -566 0 -653 -2 -666 -15z"/>
<path d="M1405 3885 c-14 -13 -25 -29 -25 -35 0 -16 21 -53 34 -62 6 -4 196
-8 422 -8 385 0 412 1 427 18 25 27 22 78 -5 96 -19 14 -77 16 -426 16 l-403
0 -24 -25z"/>
<path d="M1635 3102 c-105 -36 -183 -112 -230 -220 -19 -45 -20 -72 -23 -767
-3 -763 -2 -797 43 -885 28 -54 105 -131 160 -158 85 -42 110 -43 1265 -40
l1105 3 57 23 c80 32 150 99 190 180 l33 67 0 775 0 775 -28 55 c-50 98 -129
165 -227 194 -48 14 -180 16 -1174 16 -1038 -1 -1125 -2 -1171 -18z m2340
-136 c54 -25 100 -71 122 -123 10 -26 13 -173 13 -766 l0 -733 -26 -53 c-32
-64 -86 -106 -157 -121 -37 -8 -369 -10 -1147 -8 -1046 3 -1097 4 -1130 22
-49 26 -88 64 -113 111 -22 40 -22 41 -22 780 0 692 1 742 18 776 25 50 74 98
122 120 38 18 97 19 1155 19 l1115 0 50 -24z"/>
<path d="M2425 2745 c-42 -20 -59 -35 -84 -75 -21 -35 -21 -41 -21 -605 l0
-570 23 -39 c42 -74 155 -108 229 -70 63 32 854 527 876 547 73 67 77 181 9
252 -18 18 -165 115 -327 215 -162 101 -351 218 -420 261 -69 43 -138 82 -153
88 -39 15 -96 13 -132 -4z m516 -381 c257 -160 431 -273 434 -285 3 -10 2 -26
-3 -36 -14 -24 -853 -543 -879 -543 -53 0 -53 2 -53 565 0 455 2 523 16 543 8
12 25 22 36 22 12 0 214 -120 449 -266z"/>
</g>
</svg>
